G04 #@! TF.GenerationSoftware,KiCad,Pcbnew,7.0.6*
G04 #@! TF.CreationDate,2023-12-17T19:57:47+09:00*
G04 #@! TF.ProjectId,EB-RH850F1KMS1,45422d52-4838-4353-9046-314b4d53312e,V1.0*
G04 #@! TF.SameCoordinates,Original*
G04 #@! TF.FileFunction,Copper,L2,Bot*
G04 #@! TF.FilePolarity,Positive*
%FSLAX46Y46*%
G04 Gerber Fmt 4.6, Leading zero omitted, Abs format (unit mm)*
G04 Created by KiCad (PCBNEW 7.0.6) date 2023-12-17 19:57:47*
%MOMM*%
%LPD*%
G01*
G04 APERTURE LIST*
G04 #@! TA.AperFunction,ComponentPad*
%ADD10C,1.100000*%
G04 #@! TD*
G04 #@! TA.AperFunction,ComponentPad*
%ADD11C,1.600000*%
G04 #@! TD*
G04 #@! TA.AperFunction,ComponentPad*
%ADD12C,1.400000*%
G04 #@! TD*
G04 #@! TA.AperFunction,ComponentPad*
%ADD13O,1.000000X1.800000*%
G04 #@! TD*
G04 #@! TA.AperFunction,ComponentPad*
%ADD14O,1.000000X2.100000*%
G04 #@! TD*
G04 #@! TA.AperFunction,ViaPad*
%ADD15C,0.609600*%
G04 #@! TD*
G04 #@! TA.AperFunction,Conductor*
%ADD16C,0.304800*%
G04 #@! TD*
G04 #@! TA.AperFunction,Conductor*
%ADD17C,0.203200*%
G04 #@! TD*
G04 APERTURE END LIST*
D10*
X-30480000Y-5240000D03*
X30480000Y-21430000D03*
X39370000Y10320000D03*
X30480000Y-8730000D03*
D11*
X-12500000Y-32775000D03*
X-10000000Y-32775000D03*
X-7500000Y-32775000D03*
X-12500000Y-30275000D03*
X-10000000Y-30275000D03*
X-7500000Y-30275000D03*
D10*
X39370000Y17940000D03*
X-44450000Y-3810000D03*
X7500000Y-16000000D03*
X30480000Y-23970000D03*
X-21590000Y-5080000D03*
D12*
X4050000Y29069669D03*
X1280000Y29069669D03*
X-1490000Y29069669D03*
X-4260000Y29069669D03*
X-7030000Y29069669D03*
X2665000Y31909669D03*
X-105000Y31909669D03*
X-2875000Y31909669D03*
X-5645000Y31909669D03*
D10*
X-7500000Y-16000000D03*
X-44450000Y6350000D03*
X-21590000Y-2540000D03*
D12*
X-38100000Y-12655000D03*
X-35560000Y-12655000D03*
X-33020000Y-12655000D03*
X-30480000Y-12655000D03*
X37400000Y-3650000D03*
X39940000Y-3650000D03*
X37400000Y-6190000D03*
X39940000Y-6190000D03*
X37400000Y-8730000D03*
X39940000Y-8730000D03*
X37400000Y-11270000D03*
X39940000Y-11270000D03*
X37400000Y-13810000D03*
X39940000Y-13810000D03*
X37400000Y-16350000D03*
X39940000Y-16350000D03*
D10*
X15000000Y-26000000D03*
X30480000Y-6190000D03*
X-21590000Y0D03*
X39370000Y15400000D03*
D13*
X-25680000Y37425000D03*
D14*
X-34320000Y33245000D03*
D13*
X-34320000Y37425000D03*
D14*
X-25680000Y33245000D03*
D10*
X-44450000Y1270000D03*
X7620000Y20480000D03*
X30480000Y-3650000D03*
X30480000Y-11270000D03*
X-10000000Y-26000000D03*
X7620000Y12860000D03*
X-21590000Y2540000D03*
D12*
X37050000Y29069669D03*
X34280000Y29069669D03*
X31510000Y29069669D03*
X28740000Y29069669D03*
X25970000Y29069669D03*
X35665000Y31909669D03*
X32895000Y31909669D03*
X30125000Y31909669D03*
X27355000Y31909669D03*
D10*
X30480000Y-1110000D03*
X30480000Y-13810000D03*
X-30480000Y6420000D03*
X30480000Y-16350000D03*
X39370000Y12860000D03*
X5000000Y-26000000D03*
X7620000Y17940000D03*
X-30480000Y-7780000D03*
X7620000Y10320000D03*
D11*
X-44500000Y33000000D03*
X-44500000Y27920000D03*
X-44500000Y25380000D03*
X-44500000Y22840000D03*
D12*
X-33620000Y13730000D03*
X-33620000Y16270000D03*
X-31080000Y13730000D03*
X-31080000Y16270000D03*
X-28540000Y13730000D03*
X-28540000Y16270000D03*
X-26000000Y13730000D03*
X-26000000Y16270000D03*
X-23460000Y13730000D03*
X-23460000Y16270000D03*
X-20920000Y13730000D03*
X-20920000Y16270000D03*
X-18380000Y13730000D03*
X-18380000Y16270000D03*
D10*
X30480000Y-18890000D03*
D12*
X-5300000Y18800000D03*
X-5300000Y16260000D03*
X-5300000Y13720000D03*
X-5300000Y11180000D03*
X2320000Y11180000D03*
X2320000Y13720000D03*
X2320000Y16260000D03*
X2320000Y18800000D03*
D10*
X7620000Y15400000D03*
D15*
X30000000Y35000000D03*
X35000000Y35000000D03*
X45000000Y35000000D03*
X40000000Y35000000D03*
X40000000Y30000000D03*
X45000000Y25000000D03*
X40000000Y25000000D03*
X30000000Y25000000D03*
X25000000Y25000000D03*
X25000000Y35000000D03*
X20000000Y35000000D03*
X20000000Y25000000D03*
X15000000Y25000000D03*
X15000000Y30000000D03*
X15000000Y35000000D03*
X10000000Y35000000D03*
X10000000Y25000000D03*
X5000000Y25000000D03*
X0Y35000000D03*
X5000000Y35000000D03*
X-5000000Y35000000D03*
X-10000000Y30000000D03*
X-10000000Y35000000D03*
X-15000000Y35000000D03*
X-15000000Y25000000D03*
X-20000000Y25000000D03*
X-25000000Y30000000D03*
X-20000000Y30000000D03*
X-20000000Y35000000D03*
X-30000000Y35000000D03*
X-40000000Y35000000D03*
X-45000000Y35000000D03*
X-30000000Y20000000D03*
X-40000000Y20000000D03*
X-35000000Y20000000D03*
X-10000000Y20000000D03*
X5000000Y20000000D03*
X10000000Y20000000D03*
X15000000Y20000000D03*
X25000000Y20000000D03*
X30000000Y20000000D03*
X40000000Y20000000D03*
X45000000Y20000000D03*
X45000000Y15000000D03*
X30000000Y15000000D03*
X15000000Y15000000D03*
X-10000000Y15000000D03*
X-15000000Y15000000D03*
X-35000000Y15000000D03*
X-40000000Y15000000D03*
X-45000000Y10000000D03*
X-40000000Y10000000D03*
X-35000000Y10000000D03*
X-30000000Y10000000D03*
X-25000000Y10000000D03*
X-10000000Y10000000D03*
X15000000Y10000000D03*
X25000000Y10000000D03*
X30000000Y10000000D03*
X45000000Y10000000D03*
X45000000Y5000000D03*
X40000000Y5000000D03*
X35000000Y5000000D03*
X25000000Y5000000D03*
X20000000Y5000000D03*
X15000000Y5000000D03*
X-5000000Y5000000D03*
X-15000000Y5000000D03*
X-20000000Y5000000D03*
X-25000000Y5000000D03*
X-40000000Y5000000D03*
X-40000000Y0D03*
X-30000000Y0D03*
X-25000000Y0D03*
X-15000000Y0D03*
X-5000000Y0D03*
X35000000Y0D03*
X40000000Y0D03*
X45000000Y0D03*
X45000000Y-5000000D03*
X25000000Y-5000000D03*
X0Y-5000000D03*
X-25000000Y-5000000D03*
X-45000000Y-10000000D03*
X-40000000Y-10000000D03*
X-35000000Y-10000000D03*
X-25000000Y-10000000D03*
X-20000000Y-10000000D03*
X-5000000Y-10000000D03*
X5000000Y-10000000D03*
X15000000Y-10000000D03*
X20000000Y-10000000D03*
X25000000Y-10000000D03*
X45000000Y-10000000D03*
X45000000Y-15000000D03*
X-5000000Y-15000000D03*
X-5000000Y-20000000D03*
X-10000000Y-15000000D03*
X-15000000Y-15000000D03*
X-20000000Y-15000000D03*
X-25000000Y-15000000D03*
X-30000000Y-15000000D03*
X-30000000Y-20000000D03*
X-35000000Y-15000000D03*
X-40000000Y-15000000D03*
X-45000000Y-15000000D03*
X-45000000Y-20000000D03*
X-40000000Y-20000000D03*
X-35000000Y-20000000D03*
X-25000000Y-20000000D03*
X-20000000Y-20000000D03*
X-15000000Y-20000000D03*
X-10000000Y-20000000D03*
X5000000Y-20000000D03*
X15000000Y-20000000D03*
X20000000Y-20000000D03*
X40000000Y-20000000D03*
X45000000Y-20000000D03*
X45000000Y-25000000D03*
X35000000Y-25000000D03*
X25000000Y-25000000D03*
X20000000Y-25000000D03*
X10000000Y-25000000D03*
X0Y-25000000D03*
X-15000000Y-25000000D03*
X-20000000Y-25000000D03*
X-30000000Y-25000000D03*
X-25000000Y-25000000D03*
X-35000000Y-25000000D03*
X-40000000Y-25000000D03*
X-45000000Y-25000000D03*
X-45000000Y-30000000D03*
X-35000000Y-30000000D03*
X-40000000Y-30000000D03*
X-30000000Y-30000000D03*
X-25000000Y-30000000D03*
X-5000000Y-30000000D03*
X0Y-30000000D03*
X10000000Y-30000000D03*
X20000000Y-30000000D03*
X25000000Y-30000000D03*
X30000000Y-30000000D03*
X35000000Y-30000000D03*
X40000000Y-30000000D03*
X45000000Y-30000000D03*
X45000000Y-35000000D03*
X40000000Y-35000000D03*
X35000000Y-35000000D03*
X30000000Y-35000000D03*
X25000000Y-35000000D03*
X20000000Y-35000000D03*
X10000000Y-35000000D03*
X0Y-35000000D03*
X-5000000Y-35000000D03*
X-10000000Y-35000000D03*
X-15000000Y-35000000D03*
X-20000000Y-35000000D03*
X-25000000Y-35000000D03*
X-30000000Y-35000000D03*
X-35000000Y-35000000D03*
X-40000000Y-35000000D03*
X-45000000Y-35000000D03*
X33900000Y18800000D03*
X23400000Y18800000D03*
X23400000Y11000000D03*
X0Y24100000D03*
X-25700000Y20900000D03*
X-10550000Y-1950000D03*
X-32800000Y4400000D03*
X-45200000Y18000000D03*
X-33300000Y22700000D03*
X-10000000Y23500000D03*
X-26000000Y20000000D03*
X-26500000Y26500000D03*
X-5500000Y3400000D03*
X-5500000Y2000000D03*
X-7300000Y200000D03*
X-7300000Y1100000D03*
X-7300000Y2000000D03*
X-9000000Y-1700000D03*
X-9400000Y-5900000D03*
X-7400000Y-6500000D03*
X-300000Y3000000D03*
X-1200000Y3000000D03*
X10200000Y4600000D03*
X34000000Y11900000D03*
X10200000Y3700000D03*
X10200000Y2800000D03*
X10200000Y1900000D03*
X10200000Y1000000D03*
X11100000Y1000000D03*
X12000000Y1000000D03*
X7900000Y-7500000D03*
X7800000Y-8400000D03*
X5000000Y-13390900D03*
X4100000Y-12700000D03*
X3200000Y-13300000D03*
X2500000Y-12600000D03*
X36500000Y-25900000D03*
D16*
X33900000Y18800000D02*
X23400000Y18800000D01*
X23400000Y11000000D02*
X23400000Y18800000D01*
X-60400Y24160400D02*
X0Y24100000D01*
X-14000000Y20900000D02*
X-10739600Y24160400D01*
X-10739600Y24160400D02*
X-60400Y24160400D01*
X-25700000Y20900000D02*
X-14000000Y20900000D01*
D17*
X-29900000Y13100000D02*
X-29900000Y15090000D01*
X-29900000Y15090000D02*
X-31080000Y16270000D01*
X-28100000Y11300000D02*
X-29900000Y13100000D01*
X-19262105Y11300000D02*
X-28100000Y11300000D01*
X-7600000Y-2500000D02*
X-7600000Y-362105D01*
X-7600000Y-362105D02*
X-19262105Y11300000D01*
X-9400000Y-4300000D02*
X-7600000Y-2500000D01*
X-9400000Y-5900000D02*
X-9400000Y-4300000D01*
D16*
X-33025600Y-1634400D02*
X-35930000Y1270000D01*
X-10865600Y-1634400D02*
X-33025600Y-1634400D01*
X-10550000Y-1950000D02*
X-10865600Y-1634400D01*
X-10825000Y-28600000D02*
X-12500000Y-30275000D01*
X35200000Y-28600000D02*
X-10825000Y-28600000D01*
X37400000Y-26400000D02*
X35200000Y-28600000D01*
X37400000Y-16350000D02*
X37400000Y-26400000D01*
X-17940000Y-30275000D02*
X-35560000Y-12655000D01*
X-12500000Y-30275000D02*
X-17940000Y-30275000D01*
X-35930000Y1270000D02*
X-32800000Y4400000D01*
X-44450000Y1270000D02*
X-35930000Y1270000D01*
X-33300000Y22700000D02*
X-40500000Y22700000D01*
X-40500000Y22700000D02*
X-45200000Y18000000D01*
X-13500000Y20000000D02*
X-10000000Y23500000D01*
X-26000000Y20000000D02*
X-13500000Y20000000D01*
X-26500000Y20500000D02*
X-26000000Y20000000D01*
X-26500000Y26500000D02*
X-26500000Y20500000D01*
D17*
X-1400000Y9100000D02*
X-1750000Y8750000D01*
X3860000Y9100000D02*
X-1400000Y9100000D01*
X7620000Y12860000D02*
X3860000Y9100000D01*
X-1750000Y8750000D02*
X-3300000Y10300000D01*
X-300000Y7300000D02*
X-1750000Y8750000D01*
X-3300000Y10300000D02*
X-3300000Y16800000D01*
X-3300000Y16800000D02*
X-5300000Y18800000D01*
X-1200000Y3000000D02*
X-1200000Y7080000D01*
X-1200000Y7080000D02*
X-5300000Y11180000D01*
X-3900000Y12580000D02*
X-5300000Y11180000D01*
X-3900000Y16600000D02*
X-3900000Y12580000D01*
X-4900000Y17600000D02*
X-3900000Y16600000D01*
X-5850000Y17600000D02*
X-4900000Y17600000D01*
X-6500000Y19325000D02*
X-6500000Y18250000D01*
X-5825000Y20000000D02*
X-6500000Y19325000D01*
X-4800000Y20000000D02*
X-5825000Y20000000D01*
X-2700000Y17900000D02*
X-4800000Y20000000D01*
X-2700000Y10600000D02*
X-2700000Y17900000D01*
X-1800000Y9700000D02*
X-2700000Y10600000D01*
X6600000Y12700000D02*
X3600000Y9700000D01*
X7100000Y13900000D02*
X6600000Y13400000D01*
X8100000Y13900000D02*
X7100000Y13900000D01*
X8700000Y11400000D02*
X8700000Y13300000D01*
X6600000Y13400000D02*
X6600000Y12700000D01*
X-6500000Y18250000D02*
X-5850000Y17600000D01*
X3600000Y9700000D02*
X-1800000Y9700000D01*
X8700000Y13300000D02*
X8100000Y13900000D01*
X7620000Y10320000D02*
X8700000Y11400000D01*
X9400000Y13620000D02*
X7620000Y15400000D01*
X9400000Y9200000D02*
X9400000Y13620000D01*
X5300000Y5100000D02*
X9400000Y9200000D01*
X5300000Y-3300000D02*
X5300000Y5100000D01*
X-7400000Y-6500000D02*
X2100000Y-6500000D01*
X2100000Y-6500000D02*
X5300000Y-3300000D01*
X-300000Y3000000D02*
X-300000Y7300000D01*
X-32300000Y15050000D02*
X-33620000Y13730000D01*
X-32300000Y16800000D02*
X-32300000Y15050000D01*
X-31600000Y17500000D02*
X-32300000Y16800000D01*
X-30600000Y17500000D02*
X-31600000Y17500000D01*
X-29900000Y15900000D02*
X-29900000Y16800000D01*
X-29200000Y15200000D02*
X-29900000Y15900000D01*
X-17500000Y15200000D02*
X-29200000Y15200000D01*
X-16600000Y14300000D02*
X-17500000Y15200000D01*
X-16600000Y13100000D02*
X-16600000Y14300000D01*
X-5500000Y2000000D02*
X-16600000Y13100000D01*
X-29900000Y16800000D02*
X-30600000Y17500000D01*
X-26710000Y11900000D02*
X-28540000Y13730000D01*
X-19000000Y11900000D02*
X-26710000Y11900000D01*
X-7300000Y200000D02*
X-19000000Y11900000D01*
X-24770000Y12500000D02*
X-26000000Y13730000D01*
X-18700000Y12500000D02*
X-24770000Y12500000D01*
X-7300000Y1100000D02*
X-18700000Y12500000D01*
X-19856400Y14793600D02*
X-20920000Y13730000D01*
X-17200000Y14100000D02*
X-17893600Y14793600D01*
X-5700000Y1300000D02*
X-17200000Y12800000D01*
X-5337895Y1300000D02*
X-5700000Y1300000D01*
X-17200000Y12800000D02*
X-17200000Y14100000D01*
X-4890400Y1747495D02*
X-5337895Y1300000D01*
X-4890400Y2790400D02*
X-4890400Y1747495D01*
X-17893600Y14793600D02*
X-19856400Y14793600D01*
X-5500000Y3400000D02*
X-4890400Y2790400D01*
X-18380000Y13080000D02*
X-18380000Y13730000D01*
X-7300000Y2000000D02*
X-18380000Y13080000D01*
X33400000Y-13430000D02*
X30480000Y-16350000D01*
X33400000Y300000D02*
X33400000Y-13430000D01*
X30300000Y3400000D02*
X33400000Y300000D01*
X11400000Y3400000D02*
X30300000Y3400000D01*
X10200000Y4600000D02*
X11400000Y3400000D01*
X11100000Y2800000D02*
X10200000Y3700000D01*
X30100000Y2800000D02*
X11100000Y2800000D01*
X32800000Y100000D02*
X30100000Y2800000D01*
X30480000Y-13810000D02*
X32800000Y-11490000D01*
X32800000Y-11490000D02*
X32800000Y100000D01*
X10500000Y2200000D02*
X10200000Y1900000D01*
X29800000Y2200000D02*
X10500000Y2200000D01*
X32200000Y-9550000D02*
X32200000Y-200000D01*
X30480000Y-11270000D02*
X32200000Y-9550000D01*
X32200000Y-200000D02*
X29800000Y2200000D01*
X33700000Y26879669D02*
X31510000Y29069669D01*
X39370000Y16430000D02*
X33700000Y22100000D01*
X39370000Y15400000D02*
X39370000Y16430000D01*
X33700000Y22100000D02*
X33700000Y26879669D01*
X38660000Y17940000D02*
X39370000Y17940000D01*
X34280000Y22320000D02*
X38660000Y17940000D01*
X34280000Y29069669D02*
X34280000Y22320000D01*
X37790000Y11900000D02*
X34000000Y11900000D01*
X39370000Y10320000D02*
X37790000Y11900000D01*
X11709600Y1609600D02*
X11100000Y1000000D01*
X29490400Y1609600D02*
X11709600Y1609600D01*
X31600000Y-500000D02*
X29490400Y1609600D01*
X31600000Y-7610000D02*
X31600000Y-500000D01*
X30480000Y-8730000D02*
X31600000Y-7610000D01*
X9500000Y2100000D02*
X10200000Y2800000D01*
X9500000Y837895D02*
X9500000Y2100000D01*
X10537895Y-200000D02*
X9500000Y837895D01*
X24500000Y-200000D02*
X10537895Y-200000D01*
X30480000Y-6180000D02*
X24500000Y-200000D01*
X30480000Y-6190000D02*
X30480000Y-6180000D01*
X10809600Y390400D02*
X10200000Y1000000D01*
X30450000Y-3650000D02*
X26409600Y390400D01*
X30480000Y-3650000D02*
X30450000Y-3650000D01*
X26409600Y390400D02*
X10809600Y390400D01*
X28300000Y1000000D02*
X12000000Y1000000D01*
X30410000Y-1110000D02*
X28300000Y1000000D01*
X30480000Y-1110000D02*
X30410000Y-1110000D01*
X9800000Y-10400000D02*
X7800000Y-8400000D01*
X5000000Y-26000000D02*
X9800000Y-21200000D01*
X9800000Y-21200000D02*
X9800000Y-10400000D01*
X10206400Y-9806400D02*
X7900000Y-7500000D01*
X15000000Y-26000000D02*
X10206400Y-21206400D01*
X10206400Y-21206400D02*
X10206400Y-9806400D01*
X5000000Y-13500000D02*
X5000000Y-13390900D01*
X7500000Y-16000000D02*
X5000000Y-13500000D01*
X-5500000Y-14000000D02*
X3600000Y-14000000D01*
X4100000Y-13500000D02*
X4100000Y-12700000D01*
X-7500000Y-16000000D02*
X-5500000Y-14000000D01*
X3600000Y-14000000D02*
X4100000Y-13500000D01*
X-29300000Y-13300000D02*
X3200000Y-13300000D01*
X-29900000Y-13900000D02*
X-29300000Y-13300000D01*
X-31775000Y-13900000D02*
X-29900000Y-13900000D01*
X-33020000Y-12655000D02*
X-31775000Y-13900000D01*
X2445000Y-12655000D02*
X2500000Y-12600000D01*
X-30480000Y-12655000D02*
X2445000Y-12655000D01*
X-33020000Y-7780000D02*
X-30480000Y-5240000D01*
X-33020000Y-12655000D02*
X-33020000Y-7780000D01*
X36500000Y-22370000D02*
X30480000Y-16350000D01*
X36500000Y-25900000D02*
X36500000Y-22370000D01*
G04 #@! TA.AperFunction,Conductor*
G36*
X-7881761Y-30605798D02*
G01*
X-7773100Y-30699952D01*
X-7729388Y-30719914D01*
X-8169299Y-31159825D01*
X-8168644Y-31160424D01*
X-8168640Y-31160427D01*
X-7994563Y-31268211D01*
X-7994561Y-31268212D01*
X-7981785Y-31273162D01*
X-7918523Y-31319421D01*
X-7886865Y-31391113D01*
X-7895295Y-31469028D01*
X-7941554Y-31532290D01*
X-7972488Y-31551555D01*
X-8156751Y-31637478D01*
X-8156756Y-31637481D01*
X-8344300Y-31768802D01*
X-8506197Y-31930699D01*
X-8625981Y-32101766D01*
X-8686016Y-32152141D01*
X-8763196Y-32165750D01*
X-8836840Y-32138945D01*
X-8874019Y-32101766D01*
X-8993802Y-31930699D01*
X-9155699Y-31768802D01*
X-9326766Y-31649019D01*
X-9377141Y-31588984D01*
X-9390750Y-31511804D01*
X-9363945Y-31438160D01*
X-9326766Y-31400981D01*
X-9155699Y-31281197D01*
X-8993802Y-31119300D01*
X-8862481Y-30931756D01*
X-8862476Y-30931747D01*
X-8788602Y-30773323D01*
X-8775030Y-30744218D01*
X-8724656Y-30684184D01*
X-8651012Y-30657379D01*
X-8573832Y-30670988D01*
X-8513797Y-30721363D01*
X-8502288Y-30740719D01*
X-8443345Y-30859091D01*
X-8443343Y-30859096D01*
X-8381506Y-30940979D01*
X-8381505Y-30940979D01*
X-7946143Y-30505617D01*
X-7881761Y-30605798D01*
G37*
G04 #@! TD.AperFunction*
G04 #@! TA.AperFunction,Conductor*
G36*
X-8245551Y-29281184D02*
G01*
X-8190135Y-29336600D01*
X-8178151Y-29381321D01*
X-7729387Y-29830084D01*
X-7773100Y-29850048D01*
X-7881761Y-29944202D01*
X-7946142Y-30044381D01*
X-8381505Y-29609019D01*
X-8443344Y-29690907D01*
X-8502288Y-29809281D01*
X-8554188Y-29868003D01*
X-8628496Y-29892909D01*
X-8705301Y-29877324D01*
X-8764023Y-29825424D01*
X-8775031Y-29805780D01*
X-8862476Y-29618252D01*
X-8862481Y-29618243D01*
X-8945880Y-29499140D01*
X-8972685Y-29425496D01*
X-8959076Y-29348316D01*
X-8908701Y-29288281D01*
X-8835057Y-29261476D01*
X-8821861Y-29260900D01*
X-8321251Y-29260900D01*
X-8245551Y-29281184D01*
G37*
G04 #@! TD.AperFunction*
G04 #@! TA.AperFunction,Conductor*
G36*
X47002118Y39694581D02*
G01*
X47297464Y39677994D01*
X47305906Y39677042D01*
X47595431Y39627850D01*
X47603714Y39625960D01*
X47885912Y39544660D01*
X47893931Y39541854D01*
X48165259Y39429467D01*
X48172913Y39425781D01*
X48429942Y39283726D01*
X48437136Y39279206D01*
X48676649Y39109261D01*
X48683291Y39103964D01*
X48902268Y38908276D01*
X48908276Y38902268D01*
X49103964Y38683291D01*
X49109261Y38676649D01*
X49279206Y38437136D01*
X49283726Y38429942D01*
X49425781Y38172913D01*
X49429467Y38165259D01*
X49541854Y37893931D01*
X49544660Y37885912D01*
X49625960Y37603714D01*
X49627850Y37595431D01*
X49677042Y37305906D01*
X49677994Y37297464D01*
X49694581Y37002117D01*
X49694700Y36997872D01*
X49694700Y-36997872D01*
X49694581Y-37002117D01*
X49677994Y-37297464D01*
X49677042Y-37305906D01*
X49627850Y-37595431D01*
X49625960Y-37603714D01*
X49544660Y-37885912D01*
X49541854Y-37893931D01*
X49429467Y-38165259D01*
X49425781Y-38172913D01*
X49283726Y-38429942D01*
X49279206Y-38437136D01*
X49109261Y-38676649D01*
X49103964Y-38683291D01*
X48908276Y-38902268D01*
X48902268Y-38908276D01*
X48683291Y-39103964D01*
X48676649Y-39109261D01*
X48437136Y-39279206D01*
X48429942Y-39283726D01*
X48172913Y-39425781D01*
X48165259Y-39429467D01*
X47893931Y-39541854D01*
X47885912Y-39544660D01*
X47603714Y-39625960D01*
X47595431Y-39627850D01*
X47305906Y-39677042D01*
X47297464Y-39677994D01*
X47002118Y-39694581D01*
X46997873Y-39694700D01*
X-46997873Y-39694700D01*
X-47002118Y-39694581D01*
X-47297464Y-39677994D01*
X-47305906Y-39677042D01*
X-47595431Y-39627850D01*
X-47603714Y-39625960D01*
X-47885919Y-39544658D01*
X-47893938Y-39541852D01*
X-48165250Y-39429471D01*
X-48172904Y-39425785D01*
X-48429943Y-39283725D01*
X-48437137Y-39279205D01*
X-48676649Y-39109261D01*
X-48683292Y-39103964D01*
X-48902267Y-38908275D01*
X-48908275Y-38902267D01*
X-49103964Y-38683292D01*
X-49109261Y-38676649D01*
X-49279205Y-38437137D01*
X-49283725Y-38429943D01*
X-49425785Y-38172904D01*
X-49429471Y-38165250D01*
X-49541852Y-37893938D01*
X-49544658Y-37885919D01*
X-49625960Y-37603714D01*
X-49627850Y-37595431D01*
X-49677042Y-37305906D01*
X-49677994Y-37297464D01*
X-49694581Y-37002117D01*
X-49694700Y-36997872D01*
X-49694700Y-12655000D01*
X-39109661Y-12655000D01*
X-39090261Y-12851975D01*
X-39032807Y-13041378D01*
X-38939504Y-13215934D01*
X-38939502Y-13215937D01*
X-38911086Y-13250560D01*
X-38470147Y-12809620D01*
X-38427641Y-12893045D01*
X-38338045Y-12982641D01*
X-38254621Y-13025147D01*
X-38695561Y-13466086D01*
X-38660937Y-13494502D01*
X-38660934Y-13494504D01*
X-38486378Y-13587807D01*
X-38296975Y-13645261D01*
X-38100000Y-13664661D01*
X-37903024Y-13645261D01*
X-37713621Y-13587807D01*
X-37539060Y-13494501D01*
X-37504438Y-13466087D01*
X-37504438Y-13466086D01*
X-37945378Y-13025147D01*
X-37861955Y-12982641D01*
X-37772359Y-12893045D01*
X-37729852Y-12809620D01*
X-37288912Y-13250560D01*
X-37288910Y-13250560D01*
X-37260500Y-13215943D01*
X-37167192Y-13041378D01*
X-37109738Y-12851975D01*
X-37090338Y-12655000D01*
X-36773116Y-12655000D01*
X-36754686Y-12865655D01*
X-36699956Y-13069910D01*
X-36610589Y-13261558D01*
X-36489301Y-13434776D01*
X-36339776Y-13584301D01*
X-36166558Y-13705589D01*
X-35974910Y-13794956D01*
X-35770655Y-13849686D01*
X-35560000Y-13868116D01*
X-35374266Y-13851866D01*
X-35297089Y-13865475D01*
X-35254020Y-13895631D01*
X-18423053Y-30726598D01*
X-18419961Y-30729882D01*
X-18381477Y-30773324D01*
X-18333735Y-30806277D01*
X-18330071Y-30808972D01*
X-18284420Y-30844739D01*
X-18284410Y-30844743D01*
X-18284411Y-30844743D01*
X-18278562Y-30847376D01*
X-18254680Y-30860844D01*
X-18249391Y-30864496D01*
X-18195143Y-30885068D01*
X-18190972Y-30886796D01*
X-18138064Y-30910609D01*
X-18131733Y-30911768D01*
X-18105328Y-30919130D01*
X-18099325Y-30921408D01*
X-18041747Y-30928398D01*
X-18037254Y-30929083D01*
X-18032874Y-30929885D01*
X-17980197Y-30939540D01*
X-17926724Y-30936305D01*
X-17922304Y-30936038D01*
X-17917732Y-30935900D01*
X-13713430Y-30935900D01*
X-13637730Y-30956184D01*
X-13589409Y-31000460D01*
X-13506198Y-31119300D01*
X-13344300Y-31281198D01*
X-13207894Y-31376710D01*
X-13173233Y-31400981D01*
X-13122858Y-31461016D01*
X-13109249Y-31538196D01*
X-13136054Y-31611840D01*
X-13173233Y-31649019D01*
X-13344300Y-31768802D01*
X-13506197Y-31930699D01*
X-13637518Y-32118243D01*
X-13637520Y-32118247D01*
X-13637523Y-32118251D01*
X-13734284Y-32325757D01*
X-13793543Y-32546913D01*
X-13813498Y-32775000D01*
X-13793543Y-33003087D01*
X-13734284Y-33224243D01*
X-13637523Y-33431749D01*
X-13506198Y-33619300D01*
X-13344300Y-33781198D01*
X-13156749Y-33912523D01*
X-12949243Y-34009284D01*
X-12728087Y-34068543D01*
X-12500000Y-34088498D01*
X-12271913Y-34068543D01*
X-12050757Y-34009284D01*
X-11843251Y-33912523D01*
X-11843247Y-33912520D01*
X-11843243Y-33912518D01*
X-11655699Y-33781197D01*
X-11493802Y-33619300D01*
X-11374019Y-33448233D01*
X-11313984Y-33397858D01*
X-11236804Y-33384249D01*
X-11163160Y-33411054D01*
X-11125980Y-33448233D01*
X-11006198Y-33619300D01*
X-10844300Y-33781198D01*
X-10656749Y-33912523D01*
X-10449243Y-34009284D01*
X-10228087Y-34068543D01*
X-10000000Y-34088498D01*
X-9771913Y-34068543D01*
X-9550757Y-34009284D01*
X-9343251Y-33912523D01*
X-9343247Y-33912520D01*
X-9343243Y-33912518D01*
X-9155699Y-33781197D01*
X-8993802Y-33619300D01*
X-8874018Y-33448233D01*
X-8813983Y-33397858D01*
X-8736803Y-33384249D01*
X-8663159Y-33411054D01*
X-8625982Y-33448230D01*
X-8506198Y-33619300D01*
X-8344300Y-33781198D01*
X-8156749Y-33912523D01*
X-7949243Y-34009284D01*
X-7728087Y-34068543D01*
X-7500000Y-34088498D01*
X-7271913Y-34068543D01*
X-7050757Y-34009284D01*
X-6843251Y-33912523D01*
X-6843247Y-33912520D01*
X-6843243Y-33912518D01*
X-6655699Y-33781197D01*
X-6493802Y-33619300D01*
X-6362481Y-33431756D01*
X-6362476Y-33431747D01*
X-6265719Y-33224251D01*
X-6265717Y-33224246D01*
X-6265716Y-33224243D01*
X-6206457Y-33003087D01*
X-6206456Y-33003085D01*
X-6186502Y-32774999D01*
X-6206456Y-32546914D01*
X-6265716Y-32325758D01*
X-6265719Y-32325748D01*
X-6362476Y-32118252D01*
X-6362481Y-32118243D01*
X-6387437Y-32082603D01*
X3419700Y-32082603D01*
X3459236Y-32243010D01*
X3536012Y-32389293D01*
X3645564Y-32512952D01*
X3645566Y-32512953D01*
X3645569Y-32512956D01*
X3781521Y-32606796D01*
X3781527Y-32606800D01*
X3781528Y-32606800D01*
X3781531Y-32606802D01*
X3935991Y-32665382D01*
X3935993Y-32665382D01*
X3935998Y-32665384D01*
X4028723Y-32676642D01*
X4058842Y-32680300D01*
X4058845Y-32680300D01*
X4141158Y-32680300D01*
X4169000Y-32676918D01*
X4264002Y-32665384D01*
X4264006Y-32665382D01*
X4264008Y-32665382D01*
X4418468Y-32606802D01*
X4418468Y-32606801D01*
X4418473Y-32606800D01*
X4554436Y-32512952D01*
X4663988Y-32389293D01*
X4740764Y-32243010D01*
X4780300Y-32082603D01*
X5219700Y-32082603D01*
X5259236Y-32243010D01*
X5336012Y-32389293D01*
X5445564Y-32512952D01*
X5445566Y-32512953D01*
X5445569Y-32512956D01*
X5581521Y-32606796D01*
X5581527Y-32606800D01*
X5581528Y-32606800D01*
X5581531Y-32606802D01*
X5735991Y-32665382D01*
X5735993Y-32665382D01*
X5735998Y-32665384D01*
X5828723Y-32676642D01*
X5858842Y-32680300D01*
X5858845Y-32680300D01*
X5941158Y-32680300D01*
X5969000Y-32676918D01*
X6064002Y-32665384D01*
X6064006Y-32665382D01*
X6064008Y-32665382D01*
X6218468Y-32606802D01*
X6218468Y-32606801D01*
X6218473Y-32606800D01*
X6354436Y-32512952D01*
X6463988Y-32389293D01*
X6540764Y-32243010D01*
X6580300Y-32082603D01*
X13419700Y-32082603D01*
X13459236Y-32243010D01*
X13536012Y-32389293D01*
X13645564Y-32512952D01*
X13645566Y-32512953D01*
X13645569Y-32512956D01*
X13781521Y-32606796D01*
X13781527Y-32606800D01*
X13781528Y-32606800D01*
X13781531Y-32606802D01*
X13935991Y-32665382D01*
X13935993Y-32665382D01*
X13935998Y-32665384D01*
X14028723Y-32676642D01*
X14058842Y-32680300D01*
X14058845Y-32680300D01*
X14141158Y-32680300D01*
X14169000Y-32676918D01*
X14264002Y-32665384D01*
X14264006Y-32665382D01*
X14264008Y-32665382D01*
X14418468Y-32606802D01*
X14418468Y-32606801D01*
X14418473Y-32606800D01*
X14554436Y-32512952D01*
X14663988Y-32389293D01*
X14740764Y-32243010D01*
X14780300Y-32082603D01*
X15219700Y-32082603D01*
X15259236Y-32243010D01*
X15336012Y-32389293D01*
X15445564Y-32512952D01*
X15445566Y-32512953D01*
X15445569Y-32512956D01*
X15581521Y-32606796D01*
X15581527Y-32606800D01*
X15581528Y-32606800D01*
X15581531Y-32606802D01*
X15735991Y-32665382D01*
X15735993Y-32665382D01*
X15735998Y-32665384D01*
X15828723Y-32676642D01*
X15858842Y-32680300D01*
X15858845Y-32680300D01*
X15941158Y-32680300D01*
X15969000Y-32676918D01*
X16064002Y-32665384D01*
X16064006Y-32665382D01*
X16064008Y-32665382D01*
X16218468Y-32606802D01*
X16218468Y-32606801D01*
X16218473Y-32606800D01*
X16354436Y-32512952D01*
X16463988Y-32389293D01*
X16540764Y-32243010D01*
X16580300Y-32082603D01*
X16580300Y-31917397D01*
X16540764Y-31756990D01*
X16463988Y-31610707D01*
X16394517Y-31532290D01*
X16354439Y-31487051D01*
X16354430Y-31487043D01*
X16218478Y-31393203D01*
X16218468Y-31393197D01*
X16064008Y-31334617D01*
X16064002Y-31334616D01*
X16014863Y-31328649D01*
X15941158Y-31319700D01*
X15941155Y-31319700D01*
X15858845Y-31319700D01*
X15858842Y-31319700D01*
X15766709Y-31330887D01*
X15735998Y-31334616D01*
X15735997Y-31334616D01*
X15735991Y-31334617D01*
X15581531Y-31393197D01*
X15581521Y-31393203D01*
X15445569Y-31487043D01*
X15445560Y-31487051D01*
X15336013Y-31610705D01*
X15336011Y-31610707D01*
X15336012Y-31610707D01*
X15259236Y-31756990D01*
X15219700Y-31917397D01*
X15219700Y-32082603D01*
X14780300Y-32082603D01*
X14780300Y-31917397D01*
X14740764Y-31756990D01*
X14663988Y-31610707D01*
X14594517Y-31532290D01*
X14554439Y-31487051D01*
X14554430Y-31487043D01*
X14418478Y-31393203D01*
X14418468Y-31393197D01*
X14264008Y-31334617D01*
X14264002Y-31334616D01*
X14214863Y-31328649D01*
X14141158Y-31319700D01*
X14141155Y-31319700D01*
X14058845Y-31319700D01*
X14058842Y-31319700D01*
X13966709Y-31330887D01*
X13935998Y-31334616D01*
X13935997Y-31334616D01*
X13935991Y-31334617D01*
X13781531Y-31393197D01*
X13781521Y-31393203D01*
X13645569Y-31487043D01*
X13645560Y-31487051D01*
X13536013Y-31610705D01*
X13536011Y-31610707D01*
X13536012Y-31610707D01*
X13459236Y-31756990D01*
X13419700Y-31917397D01*
X13419700Y-32082603D01*
X6580300Y-32082603D01*
X6580300Y-31917397D01*
X6540764Y-31756990D01*
X6463988Y-31610707D01*
X6394517Y-31532290D01*
X6354439Y-31487051D01*
X6354430Y-31487043D01*
X6218478Y-31393203D01*
X6218468Y-31393197D01*
X6064008Y-31334617D01*
X6064002Y-31334616D01*
X6014863Y-31328649D01*
X5941158Y-31319700D01*
X5941155Y-31319700D01*
X5858845Y-31319700D01*
X5858842Y-31319700D01*
X5766709Y-31330887D01*
X5735998Y-31334616D01*
X5735997Y-31334616D01*
X5735991Y-31334617D01*
X5581531Y-31393197D01*
X5581521Y-31393203D01*
X5445569Y-31487043D01*
X5445560Y-31487051D01*
X5336013Y-31610705D01*
X5336011Y-31610707D01*
X5336012Y-31610707D01*
X5259236Y-31756990D01*
X5219700Y-31917397D01*
X5219700Y-32082603D01*
X4780300Y-32082603D01*
X4780300Y-31917397D01*
X4740764Y-31756990D01*
X4663988Y-31610707D01*
X4594517Y-31532290D01*
X4554439Y-31487051D01*
X4554430Y-31487043D01*
X4418478Y-31393203D01*
X4418468Y-31393197D01*
X4264008Y-31334617D01*
X4264002Y-31334616D01*
X4214863Y-31328649D01*
X4141158Y-31319700D01*
X4141155Y-31319700D01*
X4058845Y-31319700D01*
X4058842Y-31319700D01*
X3966709Y-31330887D01*
X3935998Y-31334616D01*
X3935997Y-31334616D01*
X3935991Y-31334617D01*
X3781531Y-31393197D01*
X3781521Y-31393203D01*
X3645569Y-31487043D01*
X3645560Y-31487051D01*
X3536013Y-31610705D01*
X3536011Y-31610707D01*
X3536012Y-31610707D01*
X3459236Y-31756990D01*
X3419700Y-31917397D01*
X3419700Y-32082603D01*
X-6387437Y-32082603D01*
X-6493802Y-31930699D01*
X-6655699Y-31768802D01*
X-6843243Y-31637481D01*
X-6843248Y-31637478D01*
X-7027511Y-31551555D01*
X-7087546Y-31501179D01*
X-7114350Y-31427535D01*
X-7100741Y-31350355D01*
X-7050365Y-31290320D01*
X-7018217Y-31273163D01*
X-7005438Y-31268212D01*
X-7005436Y-31268211D01*
X-6831359Y-31160426D01*
X-6831348Y-31160418D01*
X-6830699Y-31159826D01*
X-7270611Y-30719914D01*
X-7226900Y-30699952D01*
X-7118239Y-30605798D01*
X-7053856Y-30505615D01*
X-6618493Y-30940979D01*
X-6618491Y-30940979D01*
X-6556656Y-30859095D01*
X-6465391Y-30675811D01*
X-6409359Y-30478875D01*
X-6409359Y-30478874D01*
X-6390467Y-30275001D01*
X-6390467Y-30274998D01*
X-6409359Y-30071125D01*
X-6409359Y-30071124D01*
X-6465391Y-29874189D01*
X-6556656Y-29690905D01*
X-6618493Y-29609019D01*
X-7053856Y-30044382D01*
X-7118239Y-29944202D01*
X-7226900Y-29850048D01*
X-7270611Y-29830085D01*
X-6821661Y-29381135D01*
X-6811593Y-29339694D01*
X-6757491Y-29282994D01*
X-6682287Y-29260942D01*
X-6678738Y-29260900D01*
X35177732Y-29260900D01*
X35182304Y-29261038D01*
X35186724Y-29261305D01*
X35240197Y-29264540D01*
X35292874Y-29254885D01*
X35297254Y-29254083D01*
X35301747Y-29253398D01*
X35359325Y-29246408D01*
X35365328Y-29244130D01*
X35391733Y-29236768D01*
X35398064Y-29235609D01*
X35450972Y-29211796D01*
X35455143Y-29210068D01*
X35509391Y-29189496D01*
X35514680Y-29185844D01*
X35538562Y-29172376D01*
X35544411Y-29169743D01*
X35544410Y-29169743D01*
X35544420Y-29169739D01*
X35590071Y-29133972D01*
X35593735Y-29131277D01*
X35641477Y-29098324D01*
X35679961Y-29054882D01*
X35683053Y-29051598D01*
X37851607Y-26883045D01*
X37854891Y-26879953D01*
X37898324Y-26841477D01*
X37931282Y-26793726D01*
X37933984Y-26790057D01*
X37944072Y-26777181D01*
X37969739Y-26744420D01*
X37970406Y-26742937D01*
X37972376Y-26738562D01*
X37985845Y-26714680D01*
X37989496Y-26709391D01*
X38010068Y-26655143D01*
X38011796Y-26650972D01*
X38035609Y-26598064D01*
X38036768Y-26591733D01*
X38044130Y-26565328D01*
X38046408Y-26559325D01*
X38053398Y-26501747D01*
X38054083Y-26497254D01*
X38054785Y-26493422D01*
X38064540Y-26440197D01*
X38061038Y-26382302D01*
X38060900Y-26377730D01*
X38060900Y-17441352D01*
X38081184Y-17365652D01*
X38125460Y-17317333D01*
X38179776Y-17279301D01*
X38329301Y-17129776D01*
X38450589Y-16956558D01*
X38539956Y-16764910D01*
X38594686Y-16560655D01*
X38613116Y-16350000D01*
X38930338Y-16350000D01*
X38949738Y-16546975D01*
X39007192Y-16736378D01*
X39100500Y-16910943D01*
X39128910Y-16945560D01*
X39128912Y-16945560D01*
X39569851Y-16504620D01*
X39612359Y-16588045D01*
X39701955Y-16677641D01*
X39785378Y-16720147D01*
X39344438Y-17161086D01*
X39344438Y-17161087D01*
X39379060Y-17189501D01*
X39553621Y-17282807D01*
X39743024Y-17340261D01*
X39940000Y-17359661D01*
X40136975Y-17340261D01*
X40326378Y-17282807D01*
X40500934Y-17189504D01*
X40500937Y-17189502D01*
X40535560Y-17161086D01*
X40094621Y-16720147D01*
X40178045Y-16677641D01*
X40267641Y-16588045D01*
X40310147Y-16504621D01*
X40751086Y-16945560D01*
X40779502Y-16910937D01*
X40779504Y-16910934D01*
X40872807Y-16736378D01*
X40930261Y-16546975D01*
X40949661Y-16349999D01*
X40930261Y-16153024D01*
X40872807Y-15963621D01*
X40779501Y-15789060D01*
X40751086Y-15754438D01*
X40310147Y-16195377D01*
X40267641Y-16111955D01*
X40178045Y-16022359D01*
X40094620Y-15979851D01*
X40535560Y-15538912D01*
X40535560Y-15538910D01*
X40500943Y-15510500D01*
X40326378Y-15417192D01*
X40136975Y-15359738D01*
X39940000Y-15340338D01*
X39743024Y-15359738D01*
X39553621Y-15417192D01*
X39379065Y-15510495D01*
X39344438Y-15538912D01*
X39785378Y-15979852D01*
X39701955Y-16022359D01*
X39612359Y-16111955D01*
X39569852Y-16195378D01*
X39128912Y-15754438D01*
X39100495Y-15789065D01*
X39007192Y-15963621D01*
X38949738Y-16153024D01*
X38930338Y-16350000D01*
X38613116Y-16350000D01*
X38594686Y-16139345D01*
X38539956Y-15935090D01*
X38450589Y-15743442D01*
X38329301Y-15570224D01*
X38179776Y-15420699D01*
X38006558Y-15299411D01*
X37830287Y-15217214D01*
X37770253Y-15166839D01*
X37743449Y-15093195D01*
X37757058Y-15016015D01*
X37807434Y-14955980D01*
X37830288Y-14942785D01*
X37844028Y-14936378D01*
X38006558Y-14860589D01*
X38179776Y-14739301D01*
X38329301Y-14589776D01*
X38450589Y-14416558D01*
X38532785Y-14240287D01*
X38583159Y-14180253D01*
X38656803Y-14153449D01*
X38733983Y-14167058D01*
X38794019Y-14217433D01*
X38807213Y-14240288D01*
X38889406Y-14416549D01*
X38889408Y-14416553D01*
X38889411Y-14416558D01*
X39010699Y-14589776D01*
X39160224Y-14739301D01*
X39333442Y-14860589D01*
X39525088Y-14949955D01*
X39525089Y-14949955D01*
X39525090Y-14949956D01*
X39729345Y-15004686D01*
X39729344Y-15004686D01*
X39746291Y-15006168D01*
X39940000Y-15023116D01*
X40150655Y-15004686D01*
X40354910Y-14949956D01*
X40546558Y-14860589D01*
X40719776Y-14739301D01*
X40869301Y-14589776D01*
X40990589Y-14416558D01*
X41079956Y-14224910D01*
X41134686Y-14020655D01*
X41153116Y-13810000D01*
X41134686Y-13599345D01*
X41079956Y-13395090D01*
X41078002Y-13390900D01*
X41061507Y-13355528D01*
X40990589Y-13203442D01*
X40869301Y-13030224D01*
X40719776Y-12880699D01*
X40546558Y-12759411D01*
X40546553Y-12759408D01*
X40546549Y-12759406D01*
X40370288Y-12677213D01*
X40310253Y-12626837D01*
X40283449Y-12553193D01*
X40297059Y-12476014D01*
X40347435Y-12415979D01*
X40370283Y-12402787D01*
X40546558Y-12320589D01*
X40719776Y-12199301D01*
X40869301Y-12049776D01*
X40990589Y-11876558D01*
X41079956Y-11684910D01*
X41134686Y-11480655D01*
X41153116Y-11270000D01*
X41134686Y-11059345D01*
X41079956Y-10855090D01*
X40990589Y-10663442D01*
X40869301Y-10490224D01*
X40719776Y-10340699D01*
X40546558Y-10219411D01*
X40370287Y-10137214D01*
X40310253Y-10086839D01*
X40283449Y-10013195D01*
X40297058Y-9936015D01*
X40347434Y-9875980D01*
X40370288Y-9862785D01*
X40546558Y-9780589D01*
X40719776Y-9659301D01*
X40869301Y-9509776D01*
X40990589Y-9336558D01*
X41079956Y-9144910D01*
X41134686Y-8940655D01*
X41153116Y-8730000D01*
X41134686Y-8519345D01*
X41079956Y-8315090D01*
X40990589Y-8123442D01*
X40869301Y-7950224D01*
X40719776Y-7800699D01*
X40546558Y-7679411D01*
X40370287Y-7597214D01*
X40310253Y-7546839D01*
X40283449Y-7473195D01*
X40297058Y-7396015D01*
X40347434Y-7335980D01*
X40370288Y-7322785D01*
X40380809Y-7317879D01*
X40546558Y-7240589D01*
X40719776Y-7119301D01*
X40869301Y-6969776D01*
X40990589Y-6796558D01*
X41079956Y-6604910D01*
X41134686Y-6400655D01*
X41153116Y-6190000D01*
X41134686Y-5979345D01*
X41079956Y-5775090D01*
X40990589Y-5583442D01*
X40869301Y-5410224D01*
X40719776Y-5260699D01*
X40546558Y-5139411D01*
X40370287Y-5057214D01*
X40310253Y-5006839D01*
X40283449Y-4933195D01*
X40297058Y-4856015D01*
X40347434Y-4795980D01*
X40370288Y-4782785D01*
X40370290Y-4782784D01*
X40546558Y-4700589D01*
X40719776Y-4579301D01*
X40869301Y-4429776D01*
X40990589Y-4256558D01*
X41079956Y-4064910D01*
X41134686Y-3860655D01*
X41153116Y-3650000D01*
X41134686Y-3439345D01*
X41079956Y-3235090D01*
X41072492Y-3219084D01*
X41061507Y-3195528D01*
X40990589Y-3043442D01*
X40869301Y-2870224D01*
X40719776Y-2720699D01*
X40546558Y-2599411D01*
X40411124Y-2536257D01*
X40354911Y-2510044D01*
X40354912Y-2510044D01*
X40150654Y-2455313D01*
X40150655Y-2455313D01*
X39940000Y-2436884D01*
X39729345Y-2455313D01*
X39525087Y-2510044D01*
X39396287Y-2570106D01*
X39333442Y-2599411D01*
X39293494Y-2627383D01*
X39160222Y-2720700D01*
X39010700Y-2870222D01*
X38986866Y-2904261D01*
X38934511Y-2979033D01*
X38889412Y-3043441D01*
X38889409Y-3043446D01*
X38807213Y-3219712D01*
X38756837Y-3279746D01*
X38683193Y-3306550D01*
X38606013Y-3292940D01*
X38545979Y-3242564D01*
X38532785Y-3219712D01*
X38450589Y-3043442D01*
X38329301Y-2870224D01*
X38179776Y-2720699D01*
X38006558Y-2599411D01*
X37871124Y-2536257D01*
X37814911Y-2510044D01*
X37814912Y-2510044D01*
X37610654Y-2455313D01*
X37610655Y-2455313D01*
X37400000Y-2436884D01*
X37189345Y-2455313D01*
X36985087Y-2510044D01*
X36856287Y-2570106D01*
X36793442Y-2599411D01*
X36753494Y-2627383D01*
X36620222Y-2720700D01*
X36470700Y-2870222D01*
X36446866Y-2904261D01*
X36349411Y-3043442D01*
X36341562Y-3060275D01*
X36260044Y-3235087D01*
X36205313Y-3439345D01*
X36186884Y-3649999D01*
X36205313Y-3860654D01*
X36260044Y-4064912D01*
X36289665Y-4128432D01*
X36349411Y-4256558D01*
X36470699Y-4429776D01*
X36620224Y-4579301D01*
X36793442Y-4700589D01*
X36969712Y-4782785D01*
X37029746Y-4833160D01*
X37056550Y-4906804D01*
X37042941Y-4983984D01*
X36992565Y-5044019D01*
X36969712Y-5057213D01*
X36799755Y-5136467D01*
X36793442Y-5139411D01*
X36736493Y-5179287D01*
X36620222Y-5260700D01*
X36470700Y-5410222D01*
X36457646Y-5428865D01*
X36349411Y-5583442D01*
X36324733Y-5636364D01*
X36260044Y-5775087D01*
X36205313Y-5979345D01*
X36186884Y-6190000D01*
X36205313Y-6400654D01*
X36260044Y-6604912D01*
X36296048Y-6682121D01*
X36349411Y-6796558D01*
X36470699Y-6969776D01*
X36620224Y-7119301D01*
X36793442Y-7240589D01*
X36920056Y-7299630D01*
X36969711Y-7322785D01*
X37029746Y-7373161D01*
X37056550Y-7446805D01*
X37042941Y-7523985D01*
X36992565Y-7584020D01*
X36969711Y-7597215D01*
X36945650Y-7608435D01*
X36793442Y-7679411D01*
X36782868Y-7686815D01*
X36620222Y-7800700D01*
X36470700Y-7950222D01*
X36470699Y-7950224D01*
X36349411Y-8123442D01*
X36342117Y-8139084D01*
X36260044Y-8315087D01*
X36205313Y-8519345D01*
X36186884Y-8729999D01*
X36205313Y-8940654D01*
X36260044Y-9144912D01*
X36288941Y-9206880D01*
X36349411Y-9336558D01*
X36470699Y-9509776D01*
X36620224Y-9659301D01*
X36793442Y-9780589D01*
X36936876Y-9847473D01*
X36969711Y-9862785D01*
X37029746Y-9913161D01*
X37056550Y-9986805D01*
X37042941Y-10063985D01*
X36992565Y-10124020D01*
X36969711Y-10137215D01*
X36899765Y-10169831D01*
X36793442Y-10219411D01*
X36782868Y-10226815D01*
X36620222Y-10340700D01*
X36470700Y-10490222D01*
X36470699Y-10490224D01*
X36349411Y-10663442D01*
X36342117Y-10679084D01*
X36260044Y-10855087D01*
X36205313Y-11059345D01*
X36186884Y-11270000D01*
X36205313Y-11480654D01*
X36260044Y-11684912D01*
X36303170Y-11777393D01*
X36349411Y-11876558D01*
X36470699Y-12049776D01*
X36620224Y-12199301D01*
X36793442Y-12320589D01*
X36936876Y-12387473D01*
X36969711Y-12402785D01*
X37029746Y-12453161D01*
X37056550Y-12526805D01*
X37042941Y-12603985D01*
X36992565Y-12664020D01*
X36969711Y-12677215D01*
X36899765Y-12709831D01*
X36793442Y-12759411D01*
X36719276Y-12811342D01*
X36620222Y-12880700D01*
X36470700Y-13030222D01*
X36442909Y-13069912D01*
X36349411Y-13203442D01*
X36324733Y-13256364D01*
X36260044Y-13395087D01*
X36205313Y-13599345D01*
X36186884Y-13809999D01*
X36205313Y-14020654D01*
X36260044Y-14224912D01*
X36299035Y-14308527D01*
X36349411Y-14416558D01*
X36470699Y-14589776D01*
X36620224Y-14739301D01*
X36793442Y-14860589D01*
X36936876Y-14927473D01*
X36969711Y-14942785D01*
X37029746Y-14993161D01*
X37056550Y-15066805D01*
X37042941Y-15143985D01*
X36992565Y-15204020D01*
X36969711Y-15217215D01*
X36903895Y-15247906D01*
X36793442Y-15299411D01*
X36782868Y-15306815D01*
X36620222Y-15420700D01*
X36470700Y-15570222D01*
X36470699Y-15570224D01*
X36349411Y-15743442D01*
X36338631Y-15766560D01*
X36260044Y-15935087D01*
X36205313Y-16139345D01*
X36186884Y-16350000D01*
X36205313Y-16560654D01*
X36260044Y-16764912D01*
X36303170Y-16857393D01*
X36349411Y-16956558D01*
X36470699Y-17129776D01*
X36620224Y-17279301D01*
X36674539Y-17317332D01*
X36724915Y-17377367D01*
X36739100Y-17441352D01*
X36739100Y-21380776D01*
X36718816Y-21456476D01*
X36663400Y-21511892D01*
X36587700Y-21532176D01*
X36512000Y-21511892D01*
X36480644Y-21487832D01*
X31576250Y-16583438D01*
X31537065Y-16515567D01*
X31532635Y-16461546D01*
X31543622Y-16350000D01*
X31532635Y-16238452D01*
X31545401Y-16161132D01*
X31576247Y-16116562D01*
X33771960Y-13920849D01*
X33785032Y-13910381D01*
X33784637Y-13909903D01*
X33791978Y-13903828D01*
X33791983Y-13903826D01*
X33838170Y-13854641D01*
X33858547Y-13834265D01*
X33862247Y-13829493D01*
X33866885Y-13824062D01*
X33897504Y-13791458D01*
X33905763Y-13776432D01*
X33918801Y-13756584D01*
X33929313Y-13743034D01*
X33947082Y-13701970D01*
X33950216Y-13695575D01*
X33967211Y-13664661D01*
X33971765Y-13656378D01*
X33976028Y-13639772D01*
X33983723Y-13617297D01*
X33990532Y-13601565D01*
X33997530Y-13557374D01*
X33998976Y-13550397D01*
X34000574Y-13544170D01*
X34010100Y-13507074D01*
X34010100Y-13489933D01*
X34011964Y-13466249D01*
X34011990Y-13466086D01*
X34014646Y-13449316D01*
X34010435Y-13404777D01*
X34010100Y-13397654D01*
X34010100Y215934D01*
X34011937Y232585D01*
X34011323Y232644D01*
X34012218Y242125D01*
X34012219Y242128D01*
X34010100Y309567D01*
X34010100Y338383D01*
X34009340Y344399D01*
X34008783Y351480D01*
X34007378Y396199D01*
X34002597Y412653D01*
X33997776Y435930D01*
X33995629Y452930D01*
X33995629Y452932D01*
X33979154Y494539D01*
X33976853Y501261D01*
X33964372Y544226D01*
X33955642Y558985D01*
X33945196Y580310D01*
X33938884Y596254D01*
X33912577Y632461D01*
X33908681Y638391D01*
X33885905Y676906D01*
X33873784Y689025D01*
X33858361Y707083D01*
X33848279Y720962D01*
X33813790Y749491D01*
X33808536Y754273D01*
X30790849Y3771961D01*
X30780381Y3785032D01*
X30779903Y3784637D01*
X30773828Y3791978D01*
X30773826Y3791983D01*
X30724641Y3838170D01*
X30704265Y3858547D01*
X30699493Y3862247D01*
X30694067Y3866880D01*
X30661458Y3897504D01*
X30646432Y3905763D01*
X30626584Y3918801D01*
X30613034Y3929313D01*
X30571970Y3947082D01*
X30565575Y3950216D01*
X30526378Y3971765D01*
X30509772Y3976028D01*
X30487297Y3983723D01*
X30471565Y3990532D01*
X30427374Y3997530D01*
X30420397Y3998976D01*
X30409509Y4001771D01*
X30377074Y4010100D01*
X30377073Y4010100D01*
X30359933Y4010100D01*
X30336249Y4011964D01*
X30319316Y4014646D01*
X30274778Y4010435D01*
X30267655Y4010100D01*
X11715423Y4010100D01*
X11639723Y4030384D01*
X11608367Y4054444D01*
X11417920Y4244891D01*
X11050270Y4612540D01*
X11011087Y4680409D01*
X11006881Y4702636D01*
X10997926Y4782121D01*
X10937394Y4955110D01*
X10839887Y5110293D01*
X10710293Y5239887D01*
X10555110Y5337394D01*
X10382121Y5397926D01*
X10200000Y5418446D01*
X10017879Y5397926D01*
X9899143Y5356378D01*
X9844892Y5337395D01*
X9844886Y5337392D01*
X9689708Y5239888D01*
X9560111Y5110291D01*
X9462607Y4955113D01*
X9462604Y4955107D01*
X9402074Y4782120D01*
X9381554Y4600000D01*
X9381554Y4599999D01*
X9402073Y4417880D01*
X9462605Y4244891D01*
X9462607Y4244888D01*
X9471619Y4230545D01*
X9494716Y4155655D01*
X9477274Y4079251D01*
X9471617Y4069452D01*
X9462607Y4055112D01*
X9462604Y4055107D01*
X9418588Y3929315D01*
X9404729Y3889707D01*
X9402074Y3882120D01*
X9381554Y3700000D01*
X9381554Y3699999D01*
X9402073Y3517880D01*
X9462607Y3344887D01*
X9471617Y3330548D01*
X9494716Y3255659D01*
X9477276Y3179253D01*
X9471617Y3169452D01*
X9462607Y3155112D01*
X9462606Y3155110D01*
X9454140Y3130915D01*
X9402073Y2982119D01*
X9393118Y2902641D01*
X9364485Y2829688D01*
X9349726Y2812538D01*
X9128037Y2590849D01*
X9114957Y2580370D01*
X9115352Y2579893D01*
X9108021Y2573828D01*
X9108017Y2573826D01*
X9108013Y2573822D01*
X9108012Y2573821D01*
X9061829Y2524641D01*
X9041459Y2504271D01*
X9041447Y2504258D01*
X9037738Y2499476D01*
X9033108Y2494056D01*
X9002496Y2461458D01*
X9002494Y2461455D01*
X8994239Y2446438D01*
X8981196Y2426581D01*
X8970687Y2413034D01*
X8952917Y2371971D01*
X8949784Y2365577D01*
X8928234Y2326377D01*
X8923971Y2309772D01*
X8916276Y2287298D01*
X8909467Y2271564D01*
X8909467Y2271563D01*
X8902469Y2227381D01*
X8901022Y2220398D01*
X8889900Y2177074D01*
X8889900Y2159933D01*
X8888036Y2136249D01*
X8885354Y2119316D01*
X8889564Y2074781D01*
X8889900Y2067654D01*
X8889900Y921962D01*
X8888061Y905314D01*
X8888678Y905256D01*
X8887781Y895764D01*
X8889900Y828326D01*
X8889900Y799514D01*
X8889901Y799496D01*
X8890658Y793499D01*
X8891217Y786393D01*
X8892621Y741696D01*
X8892622Y741691D01*
X8897406Y725224D01*
X8902221Y701973D01*
X8904370Y684965D01*
X8904370Y684962D01*
X8915630Y656523D01*
X8920842Y643360D01*
X8923149Y636622D01*
X8935627Y593670D01*
X8944357Y578908D01*
X8954799Y557592D01*
X8961113Y541647D01*
X8961117Y541638D01*
X8987412Y505445D01*
X8991327Y499485D01*
X9014096Y460986D01*
X9026219Y448863D01*
X9041638Y430810D01*
X9051723Y416930D01*
X9051722Y416930D01*
X9086194Y388413D01*
X9091470Y383611D01*
X10047045Y-571962D01*
X10057525Y-585041D01*
X10058001Y-584648D01*
X10064070Y-591985D01*
X10110580Y-635660D01*
X10113253Y-638170D01*
X10133630Y-658547D01*
X10138405Y-662251D01*
X10143827Y-666882D01*
X10176437Y-697504D01*
X10191466Y-705766D01*
X10211318Y-718807D01*
X10224857Y-729309D01*
X10224861Y-729312D01*
X10265909Y-747074D01*
X10272317Y-750214D01*
X10311517Y-771765D01*
X10328125Y-776029D01*
X10350597Y-783723D01*
X10366330Y-790532D01*
X10410523Y-797531D01*
X10417486Y-798973D01*
X10460821Y-810100D01*
X10477962Y-810100D01*
X10501645Y-811963D01*
X10518579Y-814646D01*
X10563116Y-810435D01*
X10570240Y-810100D01*
X24184577Y-810100D01*
X24260277Y-830384D01*
X24291633Y-854444D01*
X29384645Y-5947457D01*
X29423830Y-6015328D01*
X29428260Y-6069352D01*
X29416378Y-6189998D01*
X29416378Y-6189999D01*
X29436814Y-6397500D01*
X29436814Y-6397501D01*
X29497340Y-6597029D01*
X29497342Y-6597035D01*
X29561134Y-6716378D01*
X29595631Y-6780917D01*
X29727906Y-6942094D01*
X29889083Y-7074369D01*
X29958217Y-7111322D01*
X30072964Y-7172657D01*
X30072967Y-7172658D01*
X30072969Y-7172659D01*
X30272498Y-7233185D01*
X30480000Y-7253622D01*
X30687502Y-7233185D01*
X30721318Y-7222926D01*
X30799644Y-7220361D01*
X30868761Y-7257304D01*
X30910147Y-7323855D01*
X30912713Y-7402184D01*
X30875770Y-7471301D01*
X30872323Y-7474863D01*
X30713438Y-7633748D01*
X30645567Y-7672933D01*
X30591544Y-7677363D01*
X30480001Y-7666378D01*
X30480000Y-7666378D01*
X30272499Y-7686814D01*
X30272498Y-7686814D01*
X30072970Y-7747340D01*
X30072964Y-7747342D01*
X29889084Y-7845630D01*
X29889081Y-7845632D01*
X29727906Y-7977906D01*
X29595632Y-8139081D01*
X29595630Y-8139084D01*
X29497342Y-8322964D01*
X29497340Y-8322970D01*
X29436814Y-8522498D01*
X29436814Y-8522499D01*
X29416378Y-8730000D01*
X29436814Y-8937500D01*
X29436814Y-8937501D01*
X29497340Y-9137029D01*
X29497342Y-9137035D01*
X29529890Y-9197926D01*
X29595631Y-9320917D01*
X29727906Y-9482094D01*
X29889083Y-9614369D01*
X29970508Y-9657892D01*
X30072964Y-9712657D01*
X30072967Y-9712658D01*
X30072969Y-9712659D01*
X30272498Y-9773185D01*
X30480000Y-9793622D01*
X30687502Y-9773185D01*
X30721318Y-9762926D01*
X30799644Y-9760361D01*
X30868761Y-9797304D01*
X30910147Y-9863855D01*
X30912713Y-9942184D01*
X30875770Y-10011301D01*
X30872323Y-10014863D01*
X30713438Y-10173748D01*
X30645567Y-10212933D01*
X30591544Y-10217363D01*
X30480001Y-10206378D01*
X30480000Y-10206378D01*
X30272499Y-10226814D01*
X30272498Y-10226814D01*
X30072970Y-10287340D01*
X30072964Y-10287342D01*
X29889084Y-10385630D01*
X29889081Y-10385632D01*
X29727906Y-10517906D01*
X29595632Y-10679081D01*
X29595630Y-10679084D01*
X29497342Y-10862964D01*
X29497340Y-10862970D01*
X29436814Y-11062498D01*
X29436814Y-11062499D01*
X29416378Y-11269999D01*
X29436814Y-11477500D01*
X29436814Y-11477501D01*
X29497340Y-11677029D01*
X29497342Y-11677035D01*
X29523355Y-11725700D01*
X29595631Y-11860917D01*
X29727906Y-12022094D01*
X29889083Y-12154369D01*
X29966426Y-12195710D01*
X30072964Y-12252657D01*
X30072967Y-12252658D01*
X30072969Y-12252659D01*
X30272498Y-12313185D01*
X30480000Y-12333622D01*
X30687502Y-12313185D01*
X30721318Y-12302926D01*
X30799644Y-12300361D01*
X30868761Y-12337304D01*
X30910147Y-12403855D01*
X30912713Y-12482184D01*
X30875770Y-12551301D01*
X30872323Y-12554863D01*
X30713438Y-12713748D01*
X30645567Y-12752933D01*
X30591544Y-12757363D01*
X30480001Y-12746378D01*
X30480000Y-12746378D01*
X30272499Y-12766814D01*
X30272498Y-12766814D01*
X30072970Y-12827340D01*
X30072964Y-12827342D01*
X29889084Y-12925630D01*
X29889081Y-12925632D01*
X29727906Y-13057906D01*
X29595632Y-13219081D01*
X29595630Y-13219084D01*
X29497342Y-13402964D01*
X29497340Y-13402970D01*
X29436814Y-13602498D01*
X29436814Y-13602499D01*
X29416378Y-13809999D01*
X29436814Y-14017500D01*
X29436814Y-14017501D01*
X29497340Y-14217029D01*
X29497342Y-14217035D01*
X29574958Y-14362241D01*
X29595631Y-14400917D01*
X29727906Y-14562094D01*
X29889083Y-14694369D01*
X29970508Y-14737892D01*
X30072964Y-14792657D01*
X30072967Y-14792658D01*
X30072969Y-14792659D01*
X30272498Y-14853185D01*
X30480000Y-14873622D01*
X30687502Y-14853185D01*
X30721318Y-14842926D01*
X30799644Y-14840361D01*
X30868761Y-14877304D01*
X30910147Y-14943855D01*
X30912713Y-15022184D01*
X30875770Y-15091301D01*
X30872323Y-15094863D01*
X30713438Y-15253748D01*
X30645567Y-15292933D01*
X30591544Y-15297363D01*
X30480001Y-15286378D01*
X30480000Y-15286378D01*
X30272499Y-15306814D01*
X30272498Y-15306814D01*
X30072970Y-15367340D01*
X30072964Y-15367342D01*
X29889084Y-15465630D01*
X29889081Y-15465632D01*
X29727906Y-15597906D01*
X29595632Y-15759081D01*
X29595630Y-15759084D01*
X29497342Y-15942964D01*
X29497340Y-15942970D01*
X29436814Y-16142498D01*
X29436814Y-16142499D01*
X29416378Y-16350000D01*
X29436814Y-16557500D01*
X29436814Y-16557501D01*
X29497340Y-16757029D01*
X29497342Y-16757035D01*
X29579606Y-16910937D01*
X29595631Y-16940917D01*
X29727906Y-17102094D01*
X29889083Y-17234369D01*
X29970508Y-17277892D01*
X30072964Y-17332657D01*
X30072967Y-17332658D01*
X30072969Y-17332659D01*
X30272498Y-17393185D01*
X30480000Y-17413622D01*
X30591545Y-17402635D01*
X30668866Y-17415401D01*
X30713439Y-17446250D01*
X30872325Y-17605136D01*
X30911510Y-17673007D01*
X30911510Y-17751377D01*
X30872325Y-17819248D01*
X30804454Y-17858433D01*
X30726084Y-17858433D01*
X30721322Y-17857074D01*
X30710039Y-17853651D01*
X30687502Y-17846815D01*
X30687500Y-17846814D01*
X30480000Y-17826378D01*
X30272499Y-17846814D01*
X30272498Y-17846814D01*
X30072970Y-17907340D01*
X30072964Y-17907342D01*
X29889084Y-18005630D01*
X29889081Y-18005632D01*
X29727906Y-18137906D01*
X29595632Y-18299081D01*
X29595630Y-18299084D01*
X29497342Y-18482964D01*
X29497340Y-18482970D01*
X29436814Y-18682498D01*
X29436814Y-18682499D01*
X29416378Y-18890000D01*
X29436814Y-19097500D01*
X29436814Y-19097501D01*
X29497340Y-19297029D01*
X29497342Y-19297035D01*
X29590009Y-19470399D01*
X29595631Y-19480917D01*
X29727906Y-19642094D01*
X29889083Y-19774369D01*
X29970508Y-19817892D01*
X30072964Y-19872657D01*
X30072967Y-19872658D01*
X30072969Y-19872659D01*
X30272498Y-19933185D01*
X30480000Y-19953622D01*
X30687502Y-19933185D01*
X30887031Y-19872659D01*
X31070917Y-19774369D01*
X31232094Y-19642094D01*
X31364369Y-19480917D01*
X31462659Y-19297031D01*
X31523185Y-19097502D01*
X31543622Y-18890000D01*
X31523185Y-18682498D01*
X31512925Y-18648678D01*
X31510362Y-18570350D01*
X31547306Y-18501234D01*
X31613858Y-18459849D01*
X31692187Y-18457285D01*
X31761303Y-18494229D01*
X31764863Y-18497673D01*
X35845557Y-22578368D01*
X35884741Y-22646237D01*
X35889900Y-22685422D01*
X35889900Y-25299378D01*
X35869616Y-25375078D01*
X35864576Y-25382470D01*
X35864636Y-25382508D01*
X35762607Y-25544886D01*
X35762604Y-25544892D01*
X35702074Y-25717879D01*
X35681554Y-25899999D01*
X35681554Y-25900000D01*
X35702074Y-26082120D01*
X35762604Y-26255107D01*
X35762607Y-26255113D01*
X35860111Y-26410291D01*
X35860113Y-26410293D01*
X35989707Y-26539887D01*
X36035148Y-26568439D01*
X36088453Y-26625887D01*
X36105893Y-26702292D01*
X36082794Y-26777181D01*
X36061655Y-26803689D01*
X34970591Y-27894756D01*
X34902720Y-27933941D01*
X34863535Y-27939100D01*
X-10802732Y-27939100D01*
X-10807304Y-27938962D01*
X-10865196Y-27935460D01*
X-10865200Y-27935460D01*
X-10922247Y-27945914D01*
X-10926767Y-27946602D01*
X-10976449Y-27952635D01*
X-10984325Y-27953592D01*
X-10990342Y-27955874D01*
X-11016732Y-27963230D01*
X-11023059Y-27964389D01*
X-11023063Y-27964390D01*
X-11023064Y-27964391D01*
X-11075944Y-27988190D01*
X-11080161Y-27989937D01*
X-11098437Y-27996868D01*
X-11134387Y-28010502D01*
X-11134396Y-28010506D01*
X-11139692Y-28014162D01*
X-11163553Y-28027620D01*
X-11169414Y-28030258D01*
X-11169415Y-28030258D01*
X-11215058Y-28066015D01*
X-11218740Y-28068725D01*
X-11266474Y-28101673D01*
X-11266477Y-28101676D01*
X-11304926Y-28145076D01*
X-11308061Y-28148407D01*
X-12106944Y-28947290D01*
X-12174815Y-28986475D01*
X-12253181Y-28986475D01*
X-12271913Y-28981457D01*
X-12271913Y-28981456D01*
X-12271917Y-28981456D01*
X-12500000Y-28961502D01*
X-12728085Y-28981456D01*
X-12830722Y-29008958D01*
X-12949243Y-29040716D01*
X-12949246Y-29040717D01*
X-12949251Y-29040719D01*
X-13156747Y-29137476D01*
X-13156756Y-29137481D01*
X-13344300Y-29268802D01*
X-13506197Y-29430699D01*
X-13589411Y-29549540D01*
X-13649446Y-29599915D01*
X-13713430Y-29614100D01*
X-17603535Y-29614100D01*
X-17679235Y-29593816D01*
X-17710591Y-29569756D01*
X-21280347Y-26000000D01*
X-11063622Y-26000000D01*
X-11043185Y-26207502D01*
X-10982659Y-26407031D01*
X-10982657Y-26407034D01*
X-10982657Y-26407035D01*
X-10971415Y-26428066D01*
X-10884369Y-26590917D01*
X-10752094Y-26752094D01*
X-10590917Y-26884369D01*
X-10407031Y-26982659D01*
X-10207502Y-27043185D01*
X-10000000Y-27063622D01*
X-9792498Y-27043185D01*
X-9592969Y-26982659D01*
X-9592967Y-26982658D01*
X-9592964Y-26982657D01*
X-9490508Y-26927892D01*
X-9409083Y-26884369D01*
X-9247906Y-26752094D01*
X-9115631Y-26590917D01*
X-9103616Y-26568438D01*
X-9017342Y-26407035D01*
X-9017340Y-26407029D01*
X-8956814Y-26207501D01*
X-8956814Y-26207500D01*
X-8936378Y-26000000D01*
X3936378Y-26000000D01*
X3956814Y-26207500D01*
X3956814Y-26207501D01*
X4017340Y-26407029D01*
X4017342Y-26407035D01*
X4103616Y-26568438D01*
X4115631Y-26590917D01*
X4247906Y-26752094D01*
X4409083Y-26884369D01*
X4490508Y-26927892D01*
X4592964Y-26982657D01*
X4592967Y-26982658D01*
X4592969Y-26982659D01*
X4792498Y-27043185D01*
X5000000Y-27063622D01*
X5207502Y-27043185D01*
X5407031Y-26982659D01*
X5590917Y-26884369D01*
X5752094Y-26752094D01*
X5884369Y-26590917D01*
X5971415Y-26428066D01*
X5982657Y-26407035D01*
X5982657Y-26407034D01*
X5982659Y-26407031D01*
X6043185Y-26207502D01*
X6063622Y-26000000D01*
X6052635Y-25888452D01*
X6065401Y-25811132D01*
X6096247Y-25766562D01*
X9892947Y-21969863D01*
X9960814Y-21930681D01*
X10039184Y-21930681D01*
X10107055Y-21969866D01*
X13903748Y-25766560D01*
X13942933Y-25834431D01*
X13947363Y-25888454D01*
X13936378Y-25999998D01*
X13936378Y-25999999D01*
X13956814Y-26207500D01*
X13956814Y-26207501D01*
X14017340Y-26407029D01*
X14017342Y-26407035D01*
X14103616Y-26568438D01*
X14115631Y-26590917D01*
X14247906Y-26752094D01*
X14409083Y-26884369D01*
X14490508Y-26927892D01*
X14592964Y-26982657D01*
X14592967Y-26982658D01*
X14592969Y-26982659D01*
X14792498Y-27043185D01*
X15000000Y-27063622D01*
X15207502Y-27043185D01*
X15407031Y-26982659D01*
X15590917Y-26884369D01*
X15752094Y-26752094D01*
X15884369Y-26590917D01*
X15971415Y-26428066D01*
X15982657Y-26407035D01*
X15982657Y-26407034D01*
X15982659Y-26407031D01*
X16043185Y-26207502D01*
X16063622Y-26000000D01*
X16043185Y-25792498D01*
X15982659Y-25592969D01*
X15982658Y-25592967D01*
X15982657Y-25592964D01*
X15927892Y-25490508D01*
X15884369Y-25409083D01*
X15752094Y-25247906D01*
X15590917Y-25115631D01*
X15580399Y-25110009D01*
X15407035Y-25017342D01*
X15407029Y-25017340D01*
X15207500Y-24956814D01*
X15000000Y-24936378D01*
X14999998Y-24936378D01*
X14888453Y-24947363D01*
X14811130Y-24934596D01*
X14766559Y-24903748D01*
X13832810Y-23969999D01*
X29416378Y-23969999D01*
X29436814Y-24177500D01*
X29436814Y-24177501D01*
X29497340Y-24377029D01*
X29497342Y-24377035D01*
X29590009Y-24550399D01*
X29595631Y-24560917D01*
X29727906Y-24722094D01*
X29889083Y-24854369D01*
X29970508Y-24897892D01*
X30072964Y-24952657D01*
X30072967Y-24952658D01*
X30072969Y-24952659D01*
X30272498Y-25013185D01*
X30480000Y-25033622D01*
X30687502Y-25013185D01*
X30887031Y-24952659D01*
X31070917Y-24854369D01*
X31232094Y-24722094D01*
X31364369Y-24560917D01*
X31462659Y-24377031D01*
X31523185Y-24177502D01*
X31543622Y-23970000D01*
X31523185Y-23762498D01*
X31462659Y-23562969D01*
X31462658Y-23562967D01*
X31462657Y-23562964D01*
X31407892Y-23460508D01*
X31364369Y-23379083D01*
X31232094Y-23217906D01*
X31070917Y-23085631D01*
X31060399Y-23080009D01*
X30887035Y-22987342D01*
X30887029Y-22987340D01*
X30687500Y-22926814D01*
X30480000Y-22906378D01*
X30272499Y-22926814D01*
X30272498Y-22926814D01*
X30072970Y-22987340D01*
X30072964Y-22987342D01*
X29889084Y-23085630D01*
X29889081Y-23085632D01*
X29727906Y-23217906D01*
X29595632Y-23379081D01*
X29595630Y-23379084D01*
X29497342Y-23562964D01*
X29497340Y-23562970D01*
X29436814Y-23762498D01*
X29436814Y-23762499D01*
X29416378Y-23969999D01*
X13832810Y-23969999D01*
X11292811Y-21429999D01*
X29416378Y-21429999D01*
X29436814Y-21637500D01*
X29436814Y-21637501D01*
X29497340Y-21837029D01*
X29497342Y-21837035D01*
X29547398Y-21930681D01*
X29595631Y-22020917D01*
X29727906Y-22182094D01*
X29889083Y-22314369D01*
X29970508Y-22357892D01*
X30072964Y-22412657D01*
X30072967Y-22412658D01*
X30072969Y-22412659D01*
X30272498Y-22473185D01*
X30480000Y-22493622D01*
X30687502Y-22473185D01*
X30887031Y-22412659D01*
X31070917Y-22314369D01*
X31232094Y-22182094D01*
X31364369Y-22020917D01*
X31462659Y-21837031D01*
X31523185Y-21637502D01*
X31543622Y-21430000D01*
X31523185Y-21222498D01*
X31462659Y-21022969D01*
X31462658Y-21022967D01*
X31462657Y-21022964D01*
X31407892Y-20920508D01*
X31364369Y-20839083D01*
X31232094Y-20677906D01*
X31070917Y-20545631D01*
X31060399Y-20540009D01*
X30887035Y-20447342D01*
X30887029Y-20447340D01*
X30687500Y-20386814D01*
X30480000Y-20366378D01*
X30272499Y-20386814D01*
X30272498Y-20386814D01*
X30072970Y-20447340D01*
X30072964Y-20447342D01*
X29889084Y-20545630D01*
X29889081Y-20545632D01*
X29727906Y-20677906D01*
X29595632Y-20839081D01*
X29595630Y-20839084D01*
X29497342Y-21022964D01*
X29497340Y-21022970D01*
X29436814Y-21222498D01*
X29436814Y-21222499D01*
X29416378Y-21429999D01*
X11292811Y-21429999D01*
X10860844Y-20998032D01*
X10821659Y-20930161D01*
X10816500Y-20890976D01*
X10816500Y-9890467D01*
X10818338Y-9873819D01*
X10817722Y-9873761D01*
X10818616Y-9864281D01*
X10818619Y-9864272D01*
X10816500Y-9796832D01*
X10816500Y-9768017D01*
X10815741Y-9762020D01*
X10815181Y-9754905D01*
X10813778Y-9710201D01*
X10808994Y-9693737D01*
X10804176Y-9670470D01*
X10802029Y-9653468D01*
X10785562Y-9611878D01*
X10783250Y-9605126D01*
X10770772Y-9562174D01*
X10762046Y-9547419D01*
X10751593Y-9526081D01*
X10745284Y-9510146D01*
X10745284Y-9510145D01*
X10718989Y-9473955D01*
X10715071Y-9467989D01*
X10692306Y-9429496D01*
X10692305Y-9429494D01*
X10680188Y-9417377D01*
X10664759Y-9399311D01*
X10654685Y-9385445D01*
X10654681Y-9385441D01*
X10654679Y-9385438D01*
X10620203Y-9356917D01*
X10614927Y-9352116D01*
X8750272Y-7487460D01*
X8711087Y-7419589D01*
X8706880Y-7397354D01*
X8706729Y-7396015D01*
X8697926Y-7317879D01*
X8663803Y-7220361D01*
X8637395Y-7144892D01*
X8637392Y-7144886D01*
X8539888Y-6989708D01*
X8410291Y-6860111D01*
X8255113Y-6762607D01*
X8255107Y-6762604D01*
X8112465Y-6712692D01*
X8082121Y-6702074D01*
X7900000Y-6681554D01*
X7717879Y-6702074D01*
X7544892Y-6762604D01*
X7544886Y-6762607D01*
X7389708Y-6860111D01*
X7260111Y-6989708D01*
X7162607Y-7144886D01*
X7162604Y-7144892D01*
X7102074Y-7317879D01*
X7084788Y-7471301D01*
X7081554Y-7500000D01*
X7102074Y-7682121D01*
X7115352Y-7720066D01*
X7145409Y-7805965D01*
X7151266Y-7884116D01*
X7130700Y-7936518D01*
X7062604Y-8044892D01*
X7002074Y-8217879D01*
X6981554Y-8399999D01*
X6981554Y-8400000D01*
X7002074Y-8582120D01*
X7062604Y-8755107D01*
X7062607Y-8755113D01*
X7160111Y-8910291D01*
X7289708Y-9039888D01*
X7444886Y-9137392D01*
X7444892Y-9137395D01*
X7617878Y-9197925D01*
X7617879Y-9197926D01*
X7697356Y-9206880D01*
X7770308Y-9235511D01*
X7787461Y-9250272D01*
X9145556Y-10608367D01*
X9184741Y-10676238D01*
X9189900Y-10715423D01*
X9189900Y-20884575D01*
X9169616Y-20960275D01*
X9145556Y-20991631D01*
X5233438Y-24903748D01*
X5165567Y-24942933D01*
X5111544Y-24947363D01*
X5000001Y-24936378D01*
X5000000Y-24936378D01*
X4792499Y-24956814D01*
X4792498Y-24956814D01*
X4592970Y-25017340D01*
X4592964Y-25017342D01*
X4409084Y-25115630D01*
X4409081Y-25115632D01*
X4247906Y-25247906D01*
X4115632Y-25409081D01*
X4115630Y-25409084D01*
X4017342Y-25592964D01*
X4017340Y-25592970D01*
X3956814Y-25792498D01*
X3956814Y-25792499D01*
X3936378Y-26000000D01*
X-8936378Y-26000000D01*
X-8956814Y-25792499D01*
X-8956814Y-25792498D01*
X-9017340Y-25592970D01*
X-9017342Y-25592964D01*
X-9115630Y-25409084D01*
X-9115632Y-25409081D01*
X-9247906Y-25247906D01*
X-9409081Y-25115632D01*
X-9409084Y-25115630D01*
X-9592964Y-25017342D01*
X-9592970Y-25017340D01*
X-9792499Y-24956814D01*
X-10000000Y-24936378D01*
X-10207500Y-24956814D01*
X-10207501Y-24956814D01*
X-10407029Y-25017340D01*
X-10407035Y-25017342D01*
X-10580399Y-25110009D01*
X-10590917Y-25115631D01*
X-10752094Y-25247906D01*
X-10884369Y-25409083D01*
X-10927892Y-25490508D01*
X-10982657Y-25592964D01*
X-10982658Y-25592967D01*
X-10982659Y-25592969D01*
X-11043185Y-25792498D01*
X-11063622Y-26000000D01*
X-21280347Y-26000000D01*
X-33155701Y-14124644D01*
X-33194886Y-14056773D01*
X-33194886Y-13978403D01*
X-33155701Y-13910532D01*
X-33087830Y-13871347D01*
X-33035450Y-13866764D01*
X-33020000Y-13868116D01*
X-32809345Y-13849686D01*
X-32798178Y-13846693D01*
X-32719811Y-13846690D01*
X-32651940Y-13885870D01*
X-32265849Y-14271961D01*
X-32255381Y-14285032D01*
X-32254903Y-14284637D01*
X-32248828Y-14291978D01*
X-32248826Y-14291983D01*
X-32199641Y-14338170D01*
X-32179265Y-14358547D01*
X-32174493Y-14362247D01*
X-32169067Y-14366880D01*
X-32136458Y-14397504D01*
X-32121432Y-14405763D01*
X-32101584Y-14418801D01*
X-32088034Y-14429313D01*
X-32046970Y-14447082D01*
X-32040576Y-14450215D01*
X-32001378Y-14471765D01*
X-31993479Y-14473793D01*
X-31984774Y-14476028D01*
X-31962297Y-14483723D01*
X-31946565Y-14490532D01*
X-31902374Y-14497530D01*
X-31895395Y-14498976D01*
X-31852074Y-14510100D01*
X-31834933Y-14510100D01*
X-31811249Y-14511963D01*
X-31794316Y-14514646D01*
X-31749778Y-14510435D01*
X-31742655Y-14510100D01*
X-29984068Y-14510100D01*
X-29967419Y-14511937D01*
X-29967361Y-14511322D01*
X-29957881Y-14512216D01*
X-29957872Y-14512219D01*
X-29892692Y-14510171D01*
X-29890431Y-14510100D01*
X-29861617Y-14510100D01*
X-29855621Y-14509342D01*
X-29848505Y-14508781D01*
X-29803801Y-14507378D01*
X-29787337Y-14502594D01*
X-29764074Y-14497776D01*
X-29747068Y-14495629D01*
X-29705476Y-14479161D01*
X-29698735Y-14476852D01*
X-29655775Y-14464372D01*
X-29641021Y-14455647D01*
X-29619687Y-14445195D01*
X-29603746Y-14438884D01*
X-29567552Y-14412587D01*
X-29561592Y-14408673D01*
X-29523099Y-14385908D01*
X-29523098Y-14385907D01*
X-29523094Y-14385905D01*
X-29510975Y-14373786D01*
X-29492913Y-14358360D01*
X-29479042Y-14348282D01*
X-29479041Y-14348281D01*
X-29479038Y-14348279D01*
X-29450517Y-14313803D01*
X-29445716Y-14308527D01*
X-29091632Y-13954444D01*
X-29023761Y-13915259D01*
X-28984576Y-13910100D01*
X-6638423Y-13910100D01*
X-6562723Y-13930384D01*
X-6507307Y-13985800D01*
X-6487023Y-14061500D01*
X-6507307Y-14137200D01*
X-6531366Y-14168554D01*
X-6901694Y-14538882D01*
X-7266560Y-14903748D01*
X-7334431Y-14942933D01*
X-7388454Y-14947363D01*
X-7499999Y-14936378D01*
X-7500000Y-14936378D01*
X-7707500Y-14956814D01*
X-7707501Y-14956814D01*
X-7907029Y-15017340D01*
X-7907035Y-15017342D01*
X-8080399Y-15110009D01*
X-8090917Y-15115631D01*
X-8252094Y-15247906D01*
X-8384369Y-15409083D01*
X-8390578Y-15420700D01*
X-8482657Y-15592964D01*
X-8482658Y-15592967D01*
X-8482659Y-15592969D01*
X-8543185Y-15792498D01*
X-8563622Y-16000000D01*
X-8543185Y-16207502D01*
X-8482659Y-16407031D01*
X-8384369Y-16590917D01*
X-8252094Y-16752094D01*
X-8090917Y-16884369D01*
X-7907031Y-16982659D01*
X-7707502Y-17043185D01*
X-7500000Y-17063622D01*
X-7292498Y-17043185D01*
X-7092969Y-16982659D01*
X-7092967Y-16982658D01*
X-7092964Y-16982657D01*
X-6958788Y-16910937D01*
X-6909083Y-16884369D01*
X-6747906Y-16752094D01*
X-6615631Y-16590917D01*
X-6597770Y-16557502D01*
X-6517342Y-16407035D01*
X-6517340Y-16407029D01*
X-6456814Y-16207501D01*
X-6456814Y-16207500D01*
X-6436378Y-15999999D01*
X-6436378Y-15999998D01*
X-6447363Y-15888453D01*
X-6434596Y-15811130D01*
X-6403748Y-15766559D01*
X-5291632Y-14654444D01*
X-5223761Y-14615259D01*
X-5184576Y-14610100D01*
X3515932Y-14610100D01*
X3532580Y-14611937D01*
X3532639Y-14611322D01*
X3542118Y-14612216D01*
X3542128Y-14612219D01*
X3607381Y-14610168D01*
X3609569Y-14610100D01*
X3638383Y-14610100D01*
X3644379Y-14609341D01*
X3651483Y-14608782D01*
X3696199Y-14607378D01*
X3712652Y-14602597D01*
X3735926Y-14597776D01*
X3752932Y-14595629D01*
X3794541Y-14579153D01*
X3801263Y-14576852D01*
X3844225Y-14564372D01*
X3858976Y-14555647D01*
X3880304Y-14545198D01*
X3896254Y-14538884D01*
X3932467Y-14512573D01*
X3938388Y-14508683D01*
X3976906Y-14485905D01*
X3989025Y-14473784D01*
X4007083Y-14458361D01*
X4020962Y-14448279D01*
X4049491Y-14413790D01*
X4054273Y-14408536D01*
X4368909Y-14093900D01*
X4436778Y-14054717D01*
X4515148Y-14054717D01*
X4556512Y-14072763D01*
X4644892Y-14128295D01*
X4716778Y-14153449D01*
X4797775Y-14181791D01*
X4854827Y-14217639D01*
X6403748Y-15766560D01*
X6442933Y-15834431D01*
X6447363Y-15888454D01*
X6436378Y-15999998D01*
X6436378Y-15999999D01*
X6456814Y-16207500D01*
X6456814Y-16207501D01*
X6517340Y-16407029D01*
X6517342Y-16407035D01*
X6597770Y-16557502D01*
X6615631Y-16590917D01*
X6747906Y-16752094D01*
X6909083Y-16884369D01*
X6958788Y-16910937D01*
X7092964Y-16982657D01*
X7092967Y-16982658D01*
X7092969Y-16982659D01*
X7292498Y-17043185D01*
X7500000Y-17063622D01*
X7707502Y-17043185D01*
X7907031Y-16982659D01*
X8090917Y-16884369D01*
X8252094Y-16752094D01*
X8384369Y-16590917D01*
X8482659Y-16407031D01*
X8543185Y-16207502D01*
X8563622Y-16000000D01*
X8543185Y-15792498D01*
X8482659Y-15592969D01*
X8482658Y-15592967D01*
X8482657Y-15592964D01*
X8390578Y-15420700D01*
X8384369Y-15409083D01*
X8252094Y-15247906D01*
X8090917Y-15115631D01*
X8080399Y-15110009D01*
X7907035Y-15017342D01*
X7907029Y-15017340D01*
X7707500Y-14956814D01*
X7500000Y-14936378D01*
X7499998Y-14936378D01*
X7388453Y-14947363D01*
X7311130Y-14934596D01*
X7266559Y-14903748D01*
X6565134Y-14202323D01*
X5862787Y-13499975D01*
X5823604Y-13432107D01*
X5818445Y-13392908D01*
X5818445Y-13390908D01*
X5818446Y-13390900D01*
X5797926Y-13208779D01*
X5744116Y-13055000D01*
X5737395Y-13035792D01*
X5737392Y-13035786D01*
X5639888Y-12880608D01*
X5510291Y-12751011D01*
X5355113Y-12653507D01*
X5355107Y-12653504D01*
X5182120Y-12592973D01*
X5008149Y-12573372D01*
X4935196Y-12544740D01*
X4886332Y-12483468D01*
X4882196Y-12472927D01*
X4879312Y-12464686D01*
X4837394Y-12344890D01*
X4837393Y-12344888D01*
X4837392Y-12344886D01*
X4739888Y-12189708D01*
X4610291Y-12060111D01*
X4455113Y-11962607D01*
X4455107Y-11962604D01*
X4328676Y-11918364D01*
X4282121Y-11902074D01*
X4100000Y-11881554D01*
X3917879Y-11902074D01*
X3744892Y-11962604D01*
X3744886Y-11962607D01*
X3589708Y-12060111D01*
X3460110Y-12189709D01*
X3459602Y-12190519D01*
X3459076Y-12191006D01*
X3454812Y-12196354D01*
X3454005Y-12195710D01*
X3402147Y-12243818D01*
X3325739Y-12261250D01*
X3250853Y-12238142D01*
X3203223Y-12190507D01*
X3139887Y-12089707D01*
X3010293Y-11960113D01*
X3010291Y-11960111D01*
X2855113Y-11862607D01*
X2855107Y-11862604D01*
X2720476Y-11815495D01*
X2682121Y-11802074D01*
X2500000Y-11781554D01*
X2317879Y-11802074D01*
X2144892Y-11862604D01*
X2144886Y-11862607D01*
X1989708Y-11960111D01*
X1949264Y-12000556D01*
X1881393Y-12039741D01*
X1842208Y-12044900D01*
X-29353077Y-12044900D01*
X-29428777Y-12024616D01*
X-29477094Y-11980341D01*
X-29550699Y-11875224D01*
X-29550701Y-11875222D01*
X-29550702Y-11875220D01*
X-29700222Y-11725700D01*
X-29841099Y-11627058D01*
X-29873442Y-11604411D01*
X-29943194Y-11571884D01*
X-30065088Y-11515044D01*
X-30065087Y-11515044D01*
X-30269345Y-11460313D01*
X-30269344Y-11460313D01*
X-30480000Y-11441884D01*
X-30690654Y-11460313D01*
X-30894912Y-11515044D01*
X-30987393Y-11558170D01*
X-31086558Y-11604411D01*
X-31259776Y-11725699D01*
X-31409301Y-11875224D01*
X-31530589Y-12048442D01*
X-31596462Y-12189707D01*
X-31612785Y-12224711D01*
X-31663161Y-12284746D01*
X-31736805Y-12311550D01*
X-31813985Y-12297941D01*
X-31874020Y-12247565D01*
X-31887215Y-12224711D01*
X-31963970Y-12060111D01*
X-31969411Y-12048442D01*
X-32031261Y-11960111D01*
X-32090700Y-11875222D01*
X-32240223Y-11725699D01*
X-32345339Y-11652096D01*
X-32395714Y-11592061D01*
X-32409899Y-11528077D01*
X-32409900Y-8095423D01*
X-32389616Y-8019723D01*
X-32365556Y-7988367D01*
X-31764863Y-7387674D01*
X-31696992Y-7348489D01*
X-31618622Y-7348489D01*
X-31550751Y-7387674D01*
X-31511566Y-7455545D01*
X-31511566Y-7533915D01*
X-31512922Y-7538668D01*
X-31523185Y-7572498D01*
X-31543622Y-7780000D01*
X-31523185Y-7987502D01*
X-31462659Y-8187031D01*
X-31364369Y-8370917D01*
X-31232094Y-8532094D01*
X-31070917Y-8664369D01*
X-30948133Y-8729999D01*
X-30901149Y-8755113D01*
X-30887031Y-8762659D01*
X-30687502Y-8823185D01*
X-30480000Y-8843622D01*
X-30272498Y-8823185D01*
X-30072969Y-8762659D01*
X-30072967Y-8762658D01*
X-30072964Y-8762657D01*
X-29970508Y-8707892D01*
X-29889083Y-8664369D01*
X-29727906Y-8532094D01*
X-29595631Y-8370917D01*
X-29589660Y-8359746D01*
X-29497342Y-8187035D01*
X-29497340Y-8187029D01*
X-29436814Y-7987501D01*
X-29436814Y-7987500D01*
X-29416378Y-7780000D01*
X-29436814Y-7572499D01*
X-29436814Y-7572498D01*
X-29497340Y-7372970D01*
X-29497342Y-7372964D01*
X-29595630Y-7189084D01*
X-29595632Y-7189081D01*
X-29727906Y-7027906D01*
X-29889081Y-6895632D01*
X-29889084Y-6895630D01*
X-30072964Y-6797342D01*
X-30072970Y-6797340D01*
X-30272499Y-6736814D01*
X-30480000Y-6716378D01*
X-30687499Y-6736814D01*
X-30721322Y-6747074D01*
X-30799651Y-6749636D01*
X-30868767Y-6712692D01*
X-30910151Y-6646139D01*
X-30912713Y-6567810D01*
X-30875769Y-6498694D01*
X-30872325Y-6495136D01*
X-30713439Y-6336250D01*
X-30645568Y-6297065D01*
X-30591547Y-6292635D01*
X-30480000Y-6303622D01*
X-30272498Y-6283185D01*
X-30072969Y-6222659D01*
X-30072967Y-6222658D01*
X-30072964Y-6222657D01*
X-29970508Y-6167892D01*
X-29889083Y-6124369D01*
X-29727906Y-5992094D01*
X-29595631Y-5830917D01*
X-29589660Y-5819746D01*
X-29497342Y-5647035D01*
X-29497340Y-5647029D01*
X-29436814Y-5447501D01*
X-29436814Y-5447500D01*
X-29416378Y-5240000D01*
X-29432136Y-5080000D01*
X-22653622Y-5080000D01*
X-22633185Y-5287502D01*
X-22572659Y-5487031D01*
X-22474369Y-5670917D01*
X-22342094Y-5832094D01*
X-22180917Y-5964369D01*
X-21997031Y-6062659D01*
X-21797502Y-6123185D01*
X-21590000Y-6143622D01*
X-21382498Y-6123185D01*
X-21182969Y-6062659D01*
X-21182967Y-6062658D01*
X-21182964Y-6062657D01*
X-21062172Y-5998091D01*
X-20999083Y-5964369D01*
X-20837906Y-5832094D01*
X-20705631Y-5670917D01*
X-20692866Y-5647035D01*
X-20607342Y-5487035D01*
X-20607340Y-5487029D01*
X-20546814Y-5287501D01*
X-20546814Y-5287500D01*
X-20526378Y-5080000D01*
X-20546814Y-4872499D01*
X-20546814Y-4872498D01*
X-20607340Y-4672970D01*
X-20607342Y-4672964D01*
X-20705630Y-4489084D01*
X-20705632Y-4489081D01*
X-20837906Y-4327906D01*
X-20999081Y-4195632D01*
X-20999084Y-4195630D01*
X-21182964Y-4097342D01*
X-21182970Y-4097340D01*
X-21382499Y-4036814D01*
X-21590000Y-4016378D01*
X-21797500Y-4036814D01*
X-21797501Y-4036814D01*
X-21997029Y-4097340D01*
X-21997035Y-4097342D01*
X-22150935Y-4179605D01*
X-22180917Y-4195631D01*
X-22342094Y-4327906D01*
X-22474369Y-4489083D01*
X-22517892Y-4570508D01*
X-22572657Y-4672964D01*
X-22572658Y-4672967D01*
X-22572659Y-4672969D01*
X-22633185Y-4872498D01*
X-22653622Y-5080000D01*
X-29432136Y-5080000D01*
X-29436814Y-5032499D01*
X-29436814Y-5032498D01*
X-29497340Y-4832970D01*
X-29497342Y-4832964D01*
X-29595630Y-4649084D01*
X-29595632Y-4649081D01*
X-29727906Y-4487906D01*
X-29889081Y-4355632D01*
X-29889084Y-4355630D01*
X-30072964Y-4257342D01*
X-30072970Y-4257340D01*
X-30272499Y-4196814D01*
X-30480000Y-4176378D01*
X-30687500Y-4196814D01*
X-30687501Y-4196814D01*
X-30887029Y-4257340D01*
X-30887035Y-4257342D01*
X-31060399Y-4350009D01*
X-31070917Y-4355631D01*
X-31232094Y-4487906D01*
X-31364369Y-4649083D01*
X-31398866Y-4713622D01*
X-31462657Y-4832964D01*
X-31462658Y-4832967D01*
X-31462659Y-4832969D01*
X-31523185Y-5032498D01*
X-31543622Y-5240000D01*
X-31532635Y-5351544D01*
X-31545401Y-5428865D01*
X-31576250Y-5473438D01*
X-33391962Y-7289150D01*
X-33405041Y-7299630D01*
X-33404648Y-7300106D01*
X-33411985Y-7306175D01*
X-33458170Y-7355358D01*
X-33478546Y-7375734D01*
X-33478552Y-7375741D01*
X-33482248Y-7380506D01*
X-33486884Y-7385935D01*
X-33494563Y-7394113D01*
X-33517503Y-7418540D01*
X-33525761Y-7433562D01*
X-33538806Y-7453421D01*
X-33549309Y-7466960D01*
X-33549310Y-7466962D01*
X-33549313Y-7466966D01*
X-33562709Y-7497922D01*
X-33567080Y-7508022D01*
X-33570216Y-7514424D01*
X-33575472Y-7523985D01*
X-33591766Y-7553624D01*
X-33596027Y-7570221D01*
X-33603723Y-7592700D01*
X-33610532Y-7608435D01*
X-33617531Y-7652633D01*
X-33618973Y-7659591D01*
X-33625963Y-7686814D01*
X-33630100Y-7702927D01*
X-33630100Y-7720066D01*
X-33631964Y-7743749D01*
X-33634646Y-7760684D01*
X-33630863Y-7800699D01*
X-33630436Y-7805216D01*
X-33630100Y-7812344D01*
X-33630100Y-11528077D01*
X-33650384Y-11603777D01*
X-33694658Y-11652094D01*
X-33799776Y-11725699D01*
X-33949301Y-11875224D01*
X-34070589Y-12048442D01*
X-34136462Y-12189707D01*
X-34152785Y-12224711D01*
X-34203161Y-12284746D01*
X-34276805Y-12311550D01*
X-34353985Y-12297941D01*
X-34414020Y-12247565D01*
X-34427215Y-12224711D01*
X-34503970Y-12060111D01*
X-34509411Y-12048442D01*
X-34571261Y-11960111D01*
X-34630700Y-11875222D01*
X-34780222Y-11725700D01*
X-34921099Y-11627058D01*
X-34953442Y-11604411D01*
X-35023194Y-11571884D01*
X-35145088Y-11515044D01*
X-35145087Y-11515044D01*
X-35349345Y-11460313D01*
X-35349344Y-11460313D01*
X-35560000Y-11441884D01*
X-35770654Y-11460313D01*
X-35974912Y-11515044D01*
X-36067393Y-11558170D01*
X-36166558Y-11604411D01*
X-36339776Y-11725699D01*
X-36489301Y-11875224D01*
X-36610589Y-12048442D01*
X-36699956Y-12240090D01*
X-36754686Y-12444345D01*
X-36773116Y-12655000D01*
X-37090338Y-12655000D01*
X-37109738Y-12458024D01*
X-37167192Y-12268621D01*
X-37260495Y-12094065D01*
X-37288912Y-12059438D01*
X-37729852Y-12500378D01*
X-37772359Y-12416955D01*
X-37861955Y-12327359D01*
X-37945378Y-12284852D01*
X-37504438Y-11843912D01*
X-37539065Y-11815495D01*
X-37713621Y-11722192D01*
X-37903024Y-11664738D01*
X-38100000Y-11645338D01*
X-38296975Y-11664738D01*
X-38486378Y-11722192D01*
X-38660943Y-11815500D01*
X-38695560Y-11843910D01*
X-38695560Y-11843912D01*
X-38254620Y-12284851D01*
X-38338045Y-12327359D01*
X-38427641Y-12416955D01*
X-38470147Y-12500377D01*
X-38911086Y-12059438D01*
X-38911087Y-12059438D01*
X-38939501Y-12094060D01*
X-39032807Y-12268621D01*
X-39090261Y-12458024D01*
X-39109661Y-12655000D01*
X-49694700Y-12655000D01*
X-49694700Y-3810000D01*
X-45513622Y-3810000D01*
X-45493185Y-4017502D01*
X-45432659Y-4217031D01*
X-45432657Y-4217034D01*
X-45432657Y-4217035D01*
X-45421415Y-4238066D01*
X-45334369Y-4400917D01*
X-45202094Y-4562094D01*
X-45040917Y-4694369D01*
X-44857031Y-4792659D01*
X-44657502Y-4853185D01*
X-44450000Y-4873622D01*
X-44242498Y-4853185D01*
X-44042969Y-4792659D01*
X-44042967Y-4792658D01*
X-44042964Y-4792657D01*
X-43940508Y-4737892D01*
X-43859083Y-4694369D01*
X-43697906Y-4562094D01*
X-43565631Y-4400917D01*
X-43541424Y-4355630D01*
X-43467342Y-4217035D01*
X-43467340Y-4217029D01*
X-43406814Y-4017501D01*
X-43406814Y-4017500D01*
X-43386378Y-3810000D01*
X-43406814Y-3602499D01*
X-43406814Y-3602498D01*
X-43467340Y-3402970D01*
X-43467342Y-3402964D01*
X-43565630Y-3219084D01*
X-43565632Y-3219081D01*
X-43697906Y-3057906D01*
X-43859081Y-2925632D01*
X-43859084Y-2925630D01*
X-44042964Y-2827342D01*
X-44042970Y-2827340D01*
X-44242499Y-2766814D01*
X-44450000Y-2746378D01*
X-44657500Y-2766814D01*
X-44657501Y-2766814D01*
X-44857029Y-2827340D01*
X-44857035Y-2827342D01*
X-45030399Y-2920009D01*
X-45040917Y-2925631D01*
X-45202094Y-3057906D01*
X-45334369Y-3219083D01*
X-45373847Y-3292940D01*
X-45432657Y-3402964D01*
X-45432658Y-3402967D01*
X-45432659Y-3402969D01*
X-45493185Y-3602498D01*
X-45513622Y-3810000D01*
X-49694700Y-3810000D01*
X-49694700Y1270000D01*
X-45513622Y1270000D01*
X-45493185Y1062498D01*
X-45439151Y884369D01*
X-45432659Y862970D01*
X-45432657Y862964D01*
X-45398740Y799512D01*
X-45334369Y679083D01*
X-45202094Y517906D01*
X-45066993Y407031D01*
X-45040918Y385632D01*
X-45040915Y385630D01*
X-44857035Y287342D01*
X-44857029Y287340D01*
X-44657500Y226814D01*
X-44450000Y206378D01*
X-44242499Y226814D01*
X-44242498Y226814D01*
X-44042970Y287340D01*
X-44042964Y287342D01*
X-43859084Y385630D01*
X-43859081Y385632D01*
X-43697906Y517906D01*
X-43668492Y553747D01*
X-43604788Y599396D01*
X-43551458Y609100D01*
X-36266465Y609100D01*
X-36190765Y588816D01*
X-36159409Y564756D01*
X-33508645Y-2086007D01*
X-33505553Y-2089291D01*
X-33467077Y-2132724D01*
X-33419326Y-2165682D01*
X-33415667Y-2168376D01*
X-33370020Y-2204139D01*
X-33368537Y-2204806D01*
X-33364162Y-2206776D01*
X-33340280Y-2220244D01*
X-33334991Y-2223896D01*
X-33280743Y-2244468D01*
X-33276572Y-2246196D01*
X-33223664Y-2270009D01*
X-33217333Y-2271168D01*
X-33190928Y-2278530D01*
X-33184925Y-2280808D01*
X-33127347Y-2287798D01*
X-33122854Y-2288483D01*
X-33118474Y-2289285D01*
X-33065797Y-2298940D01*
X-33012324Y-2295705D01*
X-33007904Y-2295438D01*
X-33003332Y-2295300D01*
X-22796565Y-2295300D01*
X-22720865Y-2315584D01*
X-22665449Y-2371000D01*
X-22645165Y-2446700D01*
X-22645893Y-2461531D01*
X-22653622Y-2540000D01*
X-22633185Y-2747502D01*
X-22572659Y-2947031D01*
X-22474369Y-3130917D01*
X-22342094Y-3292094D01*
X-22180917Y-3424369D01*
X-21997031Y-3522659D01*
X-21797502Y-3583185D01*
X-21590000Y-3603622D01*
X-21382498Y-3583185D01*
X-21182969Y-3522659D01*
X-21182967Y-3522658D01*
X-21182964Y-3522657D01*
X-21035565Y-3443869D01*
X-20999083Y-3424369D01*
X-20837906Y-3292094D01*
X-20705631Y-3130917D01*
X-20684632Y-3091631D01*
X-20607342Y-2947035D01*
X-20607340Y-2947029D01*
X-20546814Y-2747501D01*
X-20546814Y-2747500D01*
X-20526378Y-2540000D01*
X-20528415Y-2519316D01*
X-20534105Y-2461538D01*
X-20521340Y-2384217D01*
X-20471623Y-2323635D01*
X-20398275Y-2296029D01*
X-20383435Y-2295300D01*
X-11377234Y-2295300D01*
X-11301534Y-2315584D01*
X-11249039Y-2366151D01*
X-11189887Y-2460293D01*
X-11060293Y-2589887D01*
X-10905110Y-2687394D01*
X-10732121Y-2747926D01*
X-10550000Y-2768446D01*
X-10367879Y-2747926D01*
X-10225857Y-2698230D01*
X-10194892Y-2687395D01*
X-10194886Y-2687392D01*
X-10039708Y-2589888D01*
X-9910111Y-2460291D01*
X-9812607Y-2305113D01*
X-9812604Y-2305107D01*
X-9752074Y-2132120D01*
X-9731554Y-1950000D01*
X-9731554Y-1949999D01*
X-9752074Y-1767879D01*
X-9812604Y-1594892D01*
X-9812607Y-1594886D01*
X-9910111Y-1439708D01*
X-10039708Y-1310111D01*
X-10194886Y-1212607D01*
X-10194892Y-1212604D01*
X-10367878Y-1152074D01*
X-10368547Y-1151998D01*
X-10369629Y-1151876D01*
X-10371013Y-1151358D01*
X-10376169Y-1150182D01*
X-10376010Y-1149487D01*
X-10438682Y-1126026D01*
X-10471853Y-1103129D01*
X-10475532Y-1100421D01*
X-10521181Y-1064660D01*
X-10527049Y-1062019D01*
X-10550903Y-1048566D01*
X-10556209Y-1044903D01*
X-10610441Y-1024335D01*
X-10614662Y-1022586D01*
X-10667533Y-998792D01*
X-10667541Y-998789D01*
X-10673877Y-997628D01*
X-10700248Y-990276D01*
X-10706265Y-987994D01*
X-10706274Y-987992D01*
X-10763837Y-981001D01*
X-10768356Y-980313D01*
X-10825398Y-969860D01*
X-10825403Y-969860D01*
X-10883296Y-973362D01*
X-10887868Y-973500D01*
X-20699501Y-973500D01*
X-20775201Y-953216D01*
X-20830617Y-897800D01*
X-20850901Y-822100D01*
X-20830617Y-746400D01*
X-20816535Y-726053D01*
X-20793103Y-697502D01*
X-20705631Y-590917D01*
X-20677022Y-537394D01*
X-20607342Y-407035D01*
X-20607340Y-407029D01*
X-20546814Y-207501D01*
X-20546814Y-207500D01*
X-20526378Y0D01*
X-20546814Y207500D01*
X-20546814Y207501D01*
X-20607340Y407029D01*
X-20607342Y407035D01*
X-20705630Y590915D01*
X-20705632Y590918D01*
X-20837906Y752094D01*
X-20999083Y884369D01*
X-21080779Y928037D01*
X-21182964Y982657D01*
X-21182967Y982658D01*
X-21182969Y982659D01*
X-21382498Y1043185D01*
X-21590000Y1063622D01*
X-21797502Y1043185D01*
X-21997031Y982659D01*
X-22180917Y884369D01*
X-22342094Y752094D01*
X-22474369Y590917D01*
X-22572659Y407031D01*
X-22633185Y207502D01*
X-22653622Y0D01*
X-22633185Y-207502D01*
X-22572659Y-407031D01*
X-22474369Y-590917D01*
X-22380121Y-705758D01*
X-22363465Y-726053D01*
X-22331121Y-797437D01*
X-22338803Y-875430D01*
X-22384452Y-939134D01*
X-22455836Y-971478D01*
X-22480499Y-973500D01*
X-32689134Y-973500D01*
X-32764834Y-953216D01*
X-32796190Y-929156D01*
X-34888290Y1162944D01*
X-34927475Y1230815D01*
X-34927475Y1309185D01*
X-34888290Y1377056D01*
X-33725345Y2540000D01*
X-22653622Y2540000D01*
X-22633185Y2332498D01*
X-22579151Y2154369D01*
X-22572659Y2132970D01*
X-22572657Y2132964D01*
X-22541557Y2074781D01*
X-22474369Y1949083D01*
X-22342094Y1787906D01*
X-22198936Y1670419D01*
X-22180918Y1655632D01*
X-22180915Y1655630D01*
X-21997035Y1557342D01*
X-21997029Y1557340D01*
X-21797500Y1496814D01*
X-21590000Y1476378D01*
X-21382499Y1496814D01*
X-21382498Y1496814D01*
X-21182970Y1557340D01*
X-21182964Y1557342D01*
X-20999084Y1655630D01*
X-20999081Y1655632D01*
X-20837906Y1787906D01*
X-20705632Y1949081D01*
X-20705630Y1949084D01*
X-20607342Y2132964D01*
X-20607340Y2132970D01*
X-20546814Y2332498D01*
X-20546814Y2332499D01*
X-20526378Y2540000D01*
X-20546814Y2747500D01*
X-20546814Y2747501D01*
X-20607340Y2947029D01*
X-20607342Y2947035D01*
X-20705630Y3130915D01*
X-20705632Y3130918D01*
X-20725486Y3155110D01*
X-20837906Y3292094D01*
X-20999083Y3424369D01*
X-21080508Y3467892D01*
X-21182964Y3522657D01*
X-21182967Y3522658D01*
X-21182969Y3522659D01*
X-21382498Y3583185D01*
X-21590000Y3603622D01*
X-21797502Y3583185D01*
X-21997031Y3522659D01*
X-21997034Y3522657D01*
X-21997035Y3522657D01*
X-22006698Y3517492D01*
X-22180917Y3424369D01*
X-22342094Y3292094D01*
X-22474369Y3130917D01*
X-22572659Y2947031D01*
X-22633185Y2747502D01*
X-22653622Y2540000D01*
X-33725345Y2540000D01*
X-32706496Y3558849D01*
X-32638625Y3598034D01*
X-32620794Y3601408D01*
X-32617880Y3602073D01*
X-32444892Y3662604D01*
X-32444886Y3662607D01*
X-32289708Y3760111D01*
X-32160111Y3889708D01*
X-32062607Y4044886D01*
X-32062604Y4044892D01*
X-32002074Y4217879D01*
X-31981554Y4399999D01*
X-31981554Y4400000D01*
X-31992089Y4493500D01*
X-32002074Y4582121D01*
X-32025826Y4649999D01*
X-32062604Y4755107D01*
X-32062607Y4755113D01*
X-32160111Y4910291D01*
X-32289708Y5039888D01*
X-32444886Y5137392D01*
X-32444892Y5137395D01*
X-32484828Y5151369D01*
X-32617879Y5197926D01*
X-32800000Y5218446D01*
X-32982121Y5197926D01*
X-33155110Y5137394D01*
X-33310293Y5039887D01*
X-33439887Y4910293D01*
X-33537394Y4755110D01*
X-33597926Y4582121D01*
X-33597927Y4582110D01*
X-33599820Y4573823D01*
X-33601454Y4574196D01*
X-33626384Y4510661D01*
X-33641144Y4493507D01*
X-35543804Y2590849D01*
X-36159409Y1975244D01*
X-36227280Y1936059D01*
X-36266465Y1930900D01*
X-43551458Y1930900D01*
X-43627158Y1951184D01*
X-43668492Y1986253D01*
X-43669996Y1988086D01*
X-43697906Y2022094D01*
X-43859083Y2154369D01*
X-43982613Y2220398D01*
X-44042964Y2252657D01*
X-44042967Y2252658D01*
X-44042969Y2252659D01*
X-44242498Y2313185D01*
X-44450000Y2333622D01*
X-44657502Y2313185D01*
X-44857031Y2252659D01*
X-45040917Y2154369D01*
X-45202094Y2022094D01*
X-45334369Y1860917D01*
X-45432659Y1677031D01*
X-45493185Y1477502D01*
X-45513622Y1270000D01*
X-49694700Y1270000D01*
X-49694700Y6350000D01*
X-45309507Y6350000D01*
X-45290725Y6171294D01*
X-45235200Y6000408D01*
X-45235199Y6000406D01*
X-45154644Y5860881D01*
X-45154644Y5860880D01*
X-44820147Y6195377D01*
X-44777641Y6111955D01*
X-44688045Y6022359D01*
X-44604621Y5979852D01*
X-44937137Y5647336D01*
X-44879753Y5605644D01*
X-44715604Y5532559D01*
X-44539840Y5495200D01*
X-44360160Y5495200D01*
X-44184395Y5532559D01*
X-44020243Y5605645D01*
X-43962861Y5647335D01*
X-44295378Y5979852D01*
X-44211955Y6022359D01*
X-44122359Y6111955D01*
X-44079852Y6195378D01*
X-43745355Y5860881D01*
X-43745354Y5860881D01*
X-43664800Y6000404D01*
X-43609274Y6171294D01*
X-43590492Y6350000D01*
X-43597849Y6420000D01*
X-31543622Y6420000D01*
X-31524402Y6224852D01*
X-31523185Y6212499D01*
X-31523185Y6212498D01*
X-31462659Y6012970D01*
X-31462657Y6012964D01*
X-31455944Y6000406D01*
X-31364369Y5829083D01*
X-31232094Y5667906D01*
X-31117451Y5573821D01*
X-31070918Y5535632D01*
X-31070915Y5535630D01*
X-30887035Y5437342D01*
X-30887029Y5437340D01*
X-30687500Y5376814D01*
X-30480000Y5356378D01*
X-30272499Y5376814D01*
X-30272498Y5376814D01*
X-30072970Y5437340D01*
X-30072964Y5437342D01*
X-29889084Y5535630D01*
X-29889081Y5535632D01*
X-29727906Y5667906D01*
X-29595632Y5829081D01*
X-29595630Y5829084D01*
X-29497342Y6012964D01*
X-29497340Y6012970D01*
X-29436814Y6212498D01*
X-29436814Y6212499D01*
X-29416378Y6420000D01*
X-29436814Y6627500D01*
X-29436814Y6627501D01*
X-29497340Y6827029D01*
X-29497342Y6827035D01*
X-29595630Y7010915D01*
X-29595632Y7010918D01*
X-29727906Y7172094D01*
X-29889083Y7304369D01*
X-29977247Y7351494D01*
X-30072964Y7402657D01*
X-30072967Y7402658D01*
X-30072969Y7402659D01*
X-30272498Y7463185D01*
X-30480000Y7483622D01*
X-30687502Y7463185D01*
X-30887031Y7402659D01*
X-31070917Y7304369D01*
X-31232094Y7172094D01*
X-31364369Y7010917D01*
X-31462659Y6827031D01*
X-31523185Y6627502D01*
X-31543622Y6420000D01*
X-43597849Y6420000D01*
X-43609274Y6528705D01*
X-43664797Y6699586D01*
X-43664804Y6699600D01*
X-43745354Y6839117D01*
X-43745355Y6839117D01*
X-44079851Y6504620D01*
X-44122359Y6588045D01*
X-44211955Y6677641D01*
X-44295378Y6720147D01*
X-43962861Y7052663D01*
X-44020242Y7094353D01*
X-44020244Y7094354D01*
X-44184395Y7167440D01*
X-44360160Y7204800D01*
X-44539840Y7204800D01*
X-44715604Y7167440D01*
X-44879756Y7094354D01*
X-44937136Y7052662D01*
X-44604621Y6720147D01*
X-44688045Y6677641D01*
X-44777641Y6588045D01*
X-44820147Y6504621D01*
X-45154643Y6839117D01*
X-45235201Y6699589D01*
X-45290725Y6528705D01*
X-45309507Y6350000D01*
X-49694700Y6350000D01*
X-49694700Y13730000D01*
X-34833116Y13730000D01*
X-34814686Y13519345D01*
X-34759956Y13315090D01*
X-34670589Y13123442D01*
X-34549301Y12950224D01*
X-34399776Y12800699D01*
X-34226558Y12679411D01*
X-34095857Y12618464D01*
X-34034911Y12590044D01*
X-34034912Y12590044D01*
X-33830654Y12535313D01*
X-33830655Y12535313D01*
X-33620000Y12516884D01*
X-33409345Y12535313D01*
X-33205087Y12590044D01*
X-33048730Y12662956D01*
X-33013442Y12679411D01*
X-32933271Y12735547D01*
X-32840222Y12800700D01*
X-32690700Y12950222D01*
X-32608581Y13067501D01*
X-32569411Y13123442D01*
X-32487215Y13299711D01*
X-32436839Y13359746D01*
X-32363195Y13386550D01*
X-32286015Y13372941D01*
X-32225980Y13322565D01*
X-32212785Y13299711D01*
X-32130589Y13123442D01*
X-32009301Y12950224D01*
X-31859776Y12800699D01*
X-31686558Y12679411D01*
X-31555857Y12618464D01*
X-31494911Y12590044D01*
X-31494912Y12590044D01*
X-31290654Y12535313D01*
X-31290655Y12535313D01*
X-31080000Y12516884D01*
X-30869345Y12535313D01*
X-30665087Y12590044D01*
X-30665083Y12590046D01*
X-30480428Y12676152D01*
X-30403248Y12689761D01*
X-30329604Y12662956D01*
X-30319924Y12655581D01*
X-30313794Y12650508D01*
X-30308523Y12645712D01*
X-28590852Y10928041D01*
X-28580376Y10914964D01*
X-28579900Y10915359D01*
X-28573826Y10908017D01*
X-28524624Y10861813D01*
X-28504265Y10841454D01*
X-28499491Y10837751D01*
X-28494071Y10833122D01*
X-28461458Y10802496D01*
X-28446424Y10794230D01*
X-28426580Y10781195D01*
X-28413034Y10770688D01*
X-28371970Y10752917D01*
X-28365584Y10749788D01*
X-28326377Y10728234D01*
X-28309765Y10723969D01*
X-28287294Y10716275D01*
X-28271567Y10709469D01*
X-28271563Y10709468D01*
X-28237205Y10704026D01*
X-28227379Y10702470D01*
X-28220413Y10701027D01*
X-28177074Y10689900D01*
X-28159933Y10689900D01*
X-28136249Y10688036D01*
X-28132287Y10687408D01*
X-28119312Y10685353D01*
X-28081552Y10688923D01*
X-28074777Y10689564D01*
X-28067654Y10689900D01*
X-19577528Y10689900D01*
X-19501828Y10669616D01*
X-19470472Y10645556D01*
X-8254441Y-570473D01*
X-8215258Y-638342D01*
X-8210099Y-677526D01*
X-8210099Y-2184578D01*
X-8230383Y-2260275D01*
X-8254443Y-2291631D01*
X-9771962Y-3809150D01*
X-9785041Y-3819630D01*
X-9784648Y-3820106D01*
X-9791985Y-3826175D01*
X-9838170Y-3875358D01*
X-9858546Y-3895734D01*
X-9858552Y-3895741D01*
X-9862248Y-3900506D01*
X-9866887Y-3905939D01*
X-9897503Y-3938540D01*
X-9905761Y-3953562D01*
X-9918806Y-3973421D01*
X-9929309Y-3986960D01*
X-9929310Y-3986962D01*
X-9929313Y-3986966D01*
X-9942041Y-4016378D01*
X-9947080Y-4028022D01*
X-9950216Y-4034424D01*
X-9966977Y-4064912D01*
X-9971766Y-4073624D01*
X-9976027Y-4090221D01*
X-9983723Y-4112700D01*
X-9990532Y-4128435D01*
X-9997531Y-4172633D01*
X-9998973Y-4179591D01*
X-10008586Y-4217029D01*
X-10010100Y-4222927D01*
X-10010100Y-4240066D01*
X-10011964Y-4263749D01*
X-10014646Y-4280684D01*
X-10010436Y-4325216D01*
X-10010100Y-4332344D01*
X-10010100Y-5299378D01*
X-10030384Y-5375078D01*
X-10035423Y-5382470D01*
X-10035364Y-5382508D01*
X-10137392Y-5544886D01*
X-10137394Y-5544890D01*
X-10197926Y-5717879D01*
X-10218446Y-5900000D01*
X-10197926Y-6082121D01*
X-10137394Y-6255110D01*
X-10039887Y-6410293D01*
X-9910293Y-6539887D01*
X-9755110Y-6637394D01*
X-9582121Y-6697926D01*
X-9400000Y-6718446D01*
X-9217879Y-6697926D01*
X-9084828Y-6651369D01*
X-9044892Y-6637395D01*
X-9044886Y-6637392D01*
X-8889708Y-6539888D01*
X-8849820Y-6500000D01*
X-8218446Y-6500000D01*
X-8197926Y-6682121D01*
X-8137394Y-6855110D01*
X-8039887Y-7010293D01*
X-7910293Y-7139887D01*
X-7755110Y-7237394D01*
X-7582121Y-7297926D01*
X-7400000Y-7318446D01*
X-7217879Y-7297926D01*
X-7084828Y-7251369D01*
X-7044892Y-7237395D01*
X-7044886Y-7237392D01*
X-6882508Y-7135364D01*
X-6881103Y-7137599D01*
X-6821933Y-7111790D01*
X-6799378Y-7110100D01*
X2015932Y-7110100D01*
X2032580Y-7111937D01*
X2032639Y-7111322D01*
X2042118Y-7112216D01*
X2042128Y-7112219D01*
X2107381Y-7110168D01*
X2109569Y-7110100D01*
X2138383Y-7110100D01*
X2144379Y-7109341D01*
X2151483Y-7108782D01*
X2196199Y-7107378D01*
X2212652Y-7102597D01*
X2235926Y-7097776D01*
X2252932Y-7095629D01*
X2294541Y-7079153D01*
X2301263Y-7076852D01*
X2344225Y-7064372D01*
X2358976Y-7055647D01*
X2380304Y-7045198D01*
X2396254Y-7038884D01*
X2432467Y-7012573D01*
X2438388Y-7008683D01*
X2476906Y-6985905D01*
X2489025Y-6973784D01*
X2507083Y-6958361D01*
X2520962Y-6948279D01*
X2549498Y-6913783D01*
X2554269Y-6908540D01*
X5671961Y-3790848D01*
X5685037Y-3780376D01*
X5684642Y-3779898D01*
X5691976Y-3773829D01*
X5691983Y-3773826D01*
X5738186Y-3724624D01*
X5758546Y-3704265D01*
X5762245Y-3699494D01*
X5766875Y-3694072D01*
X5797504Y-3661458D01*
X5805760Y-3646438D01*
X5818805Y-3626578D01*
X5829312Y-3613034D01*
X5847078Y-3571978D01*
X5850202Y-3565599D01*
X5871765Y-3526378D01*
X5876027Y-3509772D01*
X5883723Y-3487295D01*
X5890531Y-3471566D01*
X5897528Y-3427380D01*
X5898973Y-3420406D01*
X5910100Y-3377074D01*
X5910100Y-3359933D01*
X5911964Y-3336248D01*
X5914646Y-3319314D01*
X5910436Y-3274782D01*
X5910100Y-3267653D01*
X5910100Y4784576D01*
X5930384Y4860276D01*
X5954444Y4891632D01*
X9771962Y8709150D01*
X9785041Y8719630D01*
X9784648Y8720106D01*
X9791985Y8726175D01*
X9838170Y8775358D01*
X9858546Y8795734D01*
X9858552Y8795741D01*
X9862248Y8800506D01*
X9866887Y8805939D01*
X9897503Y8838540D01*
X9905761Y8853562D01*
X9918806Y8873421D01*
X9929309Y8886960D01*
X9929310Y8886962D01*
X9929313Y8886966D01*
X9947080Y8928022D01*
X9950219Y8934430D01*
X9971766Y8973624D01*
X9976027Y8990221D01*
X9983723Y9012700D01*
X9984260Y9013942D01*
X9990532Y9028435D01*
X9997531Y9072633D01*
X9998973Y9079591D01*
X10010100Y9122926D01*
X10010100Y9140066D01*
X10011964Y9163749D01*
X10012638Y9168008D01*
X10014646Y9180684D01*
X10010435Y9225223D01*
X10010100Y9232344D01*
X10010100Y10999999D01*
X22581554Y10999999D01*
X22602074Y10817879D01*
X22662604Y10644892D01*
X22662607Y10644886D01*
X22760111Y10489708D01*
X22889708Y10360111D01*
X23044886Y10262607D01*
X23044892Y10262604D01*
X23217879Y10202074D01*
X23400000Y10181554D01*
X23582121Y10202074D01*
X23628676Y10218364D01*
X23755107Y10262604D01*
X23755113Y10262607D01*
X23910291Y10360111D01*
X24039888Y10489708D01*
X24137392Y10644886D01*
X24137395Y10644892D01*
X24166136Y10727029D01*
X24197926Y10817879D01*
X24218446Y11000000D01*
X24197926Y11182121D01*
X24137394Y11355110D01*
X24084104Y11439919D01*
X24061006Y11514804D01*
X24060900Y11520466D01*
X24060900Y11899999D01*
X33181554Y11899999D01*
X33202074Y11717879D01*
X33262604Y11544892D01*
X33262607Y11544886D01*
X33360111Y11389708D01*
X33489708Y11260111D01*
X33644886Y11162607D01*
X33644892Y11162604D01*
X33817878Y11102074D01*
X33817879Y11102074D01*
X34000000Y11081554D01*
X34182121Y11102074D01*
X34228676Y11118364D01*
X34355107Y11162604D01*
X34355113Y11162607D01*
X34517492Y11264636D01*
X34518896Y11262400D01*
X34578067Y11288210D01*
X34600622Y11289900D01*
X37474577Y11289900D01*
X37550277Y11269616D01*
X37581633Y11245556D01*
X38273748Y10553439D01*
X38312933Y10485568D01*
X38317363Y10431545D01*
X38306378Y10320001D01*
X38306378Y10320000D01*
X38326814Y10112499D01*
X38326814Y10112498D01*
X38387340Y9912970D01*
X38387342Y9912964D01*
X38485630Y9729084D01*
X38485632Y9729081D01*
X38617906Y9567906D01*
X38779081Y9435632D01*
X38779084Y9435630D01*
X38962964Y9337342D01*
X38962970Y9337340D01*
X39162499Y9276814D01*
X39370000Y9256378D01*
X39577500Y9276814D01*
X39577501Y9276814D01*
X39777029Y9337340D01*
X39777035Y9337342D01*
X39960915Y9435630D01*
X39960918Y9435632D01*
X39981730Y9452712D01*
X40122094Y9567906D01*
X40254369Y9729083D01*
X40297892Y9810508D01*
X40352657Y9912964D01*
X40352659Y9912970D01*
X40375513Y9988308D01*
X40413185Y10112498D01*
X40433622Y10320000D01*
X40413185Y10527502D01*
X40352659Y10727031D01*
X40352015Y10728235D01*
X40332316Y10765090D01*
X40254369Y10910917D01*
X40122094Y11072094D01*
X39960917Y11204369D01*
X39777031Y11302659D01*
X39577502Y11363185D01*
X39370000Y11383622D01*
X39258453Y11372635D01*
X39181133Y11385401D01*
X39136563Y11416247D01*
X38977672Y11575138D01*
X38938489Y11643007D01*
X38938489Y11721377D01*
X38977674Y11789248D01*
X39045545Y11828433D01*
X39123915Y11828433D01*
X39128676Y11827074D01*
X39162498Y11816815D01*
X39162499Y11816814D01*
X39370000Y11796378D01*
X39577500Y11816814D01*
X39577501Y11816814D01*
X39777029Y11877340D01*
X39777035Y11877342D01*
X39960915Y11975630D01*
X39960918Y11975632D01*
X40122094Y12107906D01*
X40254369Y12269083D01*
X40305339Y12364441D01*
X40352657Y12452964D01*
X40352659Y12452970D01*
X40358361Y12471765D01*
X40413185Y12652498D01*
X40433622Y12860000D01*
X40413185Y13067502D01*
X40352659Y13267031D01*
X40254369Y13450917D01*
X40122094Y13612094D01*
X39960917Y13744369D01*
X39777031Y13842659D01*
X39577502Y13903185D01*
X39370000Y13923622D01*
X39162498Y13903185D01*
X38962969Y13842659D01*
X38962967Y13842658D01*
X38962964Y13842657D01*
X38891126Y13804258D01*
X38779083Y13744369D01*
X38617906Y13612094D01*
X38555403Y13535934D01*
X38485632Y13450918D01*
X38485630Y13450915D01*
X38387342Y13267035D01*
X38387340Y13267029D01*
X38326814Y13067501D01*
X38326814Y13067500D01*
X38306378Y12860000D01*
X38326814Y12652499D01*
X38326815Y12652495D01*
X38346185Y12588642D01*
X38348749Y12510314D01*
X38311805Y12441198D01*
X38245252Y12399813D01*
X38166924Y12397249D01*
X38108502Y12425070D01*
X38103034Y12429313D01*
X38061970Y12447082D01*
X38055575Y12450216D01*
X38016378Y12471765D01*
X37999772Y12476028D01*
X37977297Y12483723D01*
X37961565Y12490532D01*
X37917374Y12497530D01*
X37910397Y12498976D01*
X37899509Y12501771D01*
X37867074Y12510100D01*
X37867073Y12510100D01*
X37849933Y12510100D01*
X37826249Y12511964D01*
X37809316Y12514646D01*
X37764778Y12510435D01*
X37757655Y12510100D01*
X34600622Y12510100D01*
X34524922Y12530384D01*
X34517529Y12535423D01*
X34517492Y12535364D01*
X34355113Y12637392D01*
X34355110Y12637394D01*
X34182121Y12697926D01*
X34000000Y12718446D01*
X33817879Y12697926D01*
X33696865Y12655581D01*
X33644892Y12637395D01*
X33644886Y12637392D01*
X33489708Y12539888D01*
X33360111Y12410291D01*
X33262607Y12255113D01*
X33262604Y12255107D01*
X33202074Y12082120D01*
X33181554Y11900000D01*
X33181554Y11899999D01*
X24060900Y11899999D01*
X24060900Y17987700D01*
X24081184Y18063400D01*
X24136600Y18118816D01*
X24212300Y18139100D01*
X33379532Y18139100D01*
X33455232Y18118816D01*
X33460081Y18115894D01*
X33544886Y18062607D01*
X33544892Y18062604D01*
X33699020Y18008673D01*
X33717879Y18002074D01*
X33900000Y17981554D01*
X34082121Y18002074D01*
X34145076Y18024103D01*
X34255107Y18062604D01*
X34255113Y18062607D01*
X34410291Y18160111D01*
X34539888Y18289708D01*
X34637392Y18444886D01*
X34637395Y18444892D01*
X34660280Y18510293D01*
X34697926Y18617879D01*
X34718446Y18800000D01*
X34697926Y18982121D01*
X34637394Y19155110D01*
X34539887Y19310293D01*
X34410293Y19439887D01*
X34255110Y19537394D01*
X34082121Y19597926D01*
X33900000Y19618446D01*
X33717879Y19597926D01*
X33584854Y19551378D01*
X33544892Y19537395D01*
X33544886Y19537392D01*
X33460081Y19484106D01*
X33385192Y19461006D01*
X33379532Y19460900D01*
X23920468Y19460900D01*
X23844768Y19481184D01*
X23839919Y19484106D01*
X23755113Y19537392D01*
X23755110Y19537394D01*
X23582121Y19597926D01*
X23400000Y19618446D01*
X23217879Y19597926D01*
X23084854Y19551378D01*
X23044892Y19537395D01*
X23044886Y19537392D01*
X22889708Y19439888D01*
X22760111Y19310291D01*
X22662607Y19155113D01*
X22662604Y19155107D01*
X22618364Y19028676D01*
X22602074Y18982121D01*
X22582739Y18810515D01*
X22581554Y18800000D01*
X22581554Y18799999D01*
X22602074Y18617879D01*
X22662604Y18444892D01*
X22662607Y18444886D01*
X22715894Y18360081D01*
X22738994Y18285192D01*
X22739100Y18279532D01*
X22739100Y11520466D01*
X22718816Y11444766D01*
X22715919Y11439957D01*
X22673618Y11372635D01*
X22662605Y11355108D01*
X22662604Y11355107D01*
X22602074Y11182120D01*
X22581554Y11000000D01*
X22581554Y10999999D01*
X10010100Y10999999D01*
X10010100Y13535934D01*
X10011937Y13552585D01*
X10011323Y13552644D01*
X10012218Y13562125D01*
X10012219Y13562128D01*
X10010100Y13629567D01*
X10010100Y13658383D01*
X10009341Y13664379D01*
X10008782Y13671483D01*
X10007378Y13716199D01*
X10002597Y13732653D01*
X9997776Y13755930D01*
X9997078Y13761455D01*
X9995629Y13772932D01*
X9979154Y13814539D01*
X9976853Y13821261D01*
X9964372Y13864226D01*
X9955642Y13878985D01*
X9945196Y13900310D01*
X9938884Y13916254D01*
X9912577Y13952461D01*
X9908681Y13958391D01*
X9885905Y13996906D01*
X9873784Y14009025D01*
X9858361Y14027083D01*
X9848279Y14040962D01*
X9813790Y14069491D01*
X9808536Y14074273D01*
X8716248Y15166562D01*
X8677065Y15234431D01*
X8672635Y15288452D01*
X8683622Y15400000D01*
X8663185Y15607502D01*
X8602659Y15807031D01*
X8504369Y15990917D01*
X8372094Y16152094D01*
X8210917Y16284369D01*
X8046733Y16372128D01*
X8027035Y16382657D01*
X8027034Y16382657D01*
X8027031Y16382659D01*
X7827502Y16443185D01*
X7620000Y16463622D01*
X7412498Y16443185D01*
X7212969Y16382659D01*
X7212967Y16382658D01*
X7212964Y16382657D01*
X7110508Y16327892D01*
X7029083Y16284369D01*
X6867906Y16152094D01*
X6747557Y16005449D01*
X6735632Y15990918D01*
X6735630Y15990915D01*
X6637342Y15807035D01*
X6637340Y15807029D01*
X6576814Y15607501D01*
X6576814Y15607500D01*
X6556378Y15400000D01*
X6576814Y15192499D01*
X6576814Y15192498D01*
X6637340Y14992970D01*
X6637342Y14992964D01*
X6735630Y14809084D01*
X6735632Y14809081D01*
X6850528Y14669080D01*
X6882872Y14597695D01*
X6875190Y14519702D01*
X6829541Y14455999D01*
X6806432Y14440361D01*
X6803751Y14438887D01*
X6803747Y14438884D01*
X6803746Y14438884D01*
X6785055Y14425304D01*
X6767554Y14412589D01*
X6761596Y14408675D01*
X6752688Y14403407D01*
X6723098Y14385909D01*
X6723092Y14385904D01*
X6710973Y14373785D01*
X6692908Y14358356D01*
X6679038Y14348279D01*
X6679036Y14348277D01*
X6650521Y14313809D01*
X6645719Y14308531D01*
X6228037Y13890849D01*
X6214957Y13880370D01*
X6215352Y13879893D01*
X6208021Y13873828D01*
X6208017Y13873826D01*
X6208013Y13873822D01*
X6208012Y13873821D01*
X6161829Y13824641D01*
X6141459Y13804271D01*
X6141447Y13804258D01*
X6137738Y13799476D01*
X6133108Y13794056D01*
X6102496Y13761458D01*
X6102494Y13761455D01*
X6094239Y13746438D01*
X6081196Y13726581D01*
X6070687Y13713034D01*
X6052917Y13671971D01*
X6049784Y13665577D01*
X6028234Y13626377D01*
X6023971Y13609772D01*
X6016276Y13587298D01*
X6009467Y13571564D01*
X6009467Y13571563D01*
X6002469Y13527381D01*
X6001022Y13520398D01*
X5989900Y13477074D01*
X5989900Y13459933D01*
X5988036Y13436249D01*
X5985354Y13419316D01*
X5989564Y13374781D01*
X5989900Y13367654D01*
X5989900Y13015424D01*
X5969616Y12939724D01*
X5945556Y12908368D01*
X3734195Y10697007D01*
X3666324Y10657822D01*
X3587954Y10657822D01*
X3520083Y10697007D01*
X3480898Y10764878D01*
X3480898Y10843246D01*
X3514686Y10969345D01*
X3533116Y11180000D01*
X3514686Y11390655D01*
X3459956Y11594910D01*
X3370589Y11786558D01*
X3249301Y11959776D01*
X3099776Y12109301D01*
X2926558Y12230589D01*
X2750287Y12312785D01*
X2690253Y12363161D01*
X2663449Y12436805D01*
X2677058Y12513985D01*
X2727434Y12574020D01*
X2750288Y12587215D01*
X2756359Y12590046D01*
X2926558Y12669411D01*
X3099776Y12790699D01*
X3249301Y12940224D01*
X3370589Y13113442D01*
X3459956Y13305090D01*
X3514686Y13509345D01*
X3533116Y13720000D01*
X3514686Y13930655D01*
X3459956Y14134910D01*
X3370589Y14326558D01*
X3249301Y14499776D01*
X3099776Y14649301D01*
X2926558Y14770589D01*
X2750287Y14852785D01*
X2690253Y14903161D01*
X2663449Y14976805D01*
X2677058Y15053985D01*
X2727434Y15114020D01*
X2750288Y15127215D01*
X2774197Y15138364D01*
X2926558Y15209411D01*
X3099776Y15330699D01*
X3249301Y15480224D01*
X3370589Y15653442D01*
X3446680Y15816619D01*
X3459955Y15845087D01*
X3466631Y15870000D01*
X3514686Y16049345D01*
X3533116Y16260000D01*
X3514686Y16470655D01*
X3459956Y16674910D01*
X3370589Y16866558D01*
X3249301Y17039776D01*
X3099776Y17189301D01*
X2926558Y17310589D01*
X2750287Y17392785D01*
X2690253Y17443161D01*
X2663449Y17516805D01*
X2677058Y17593985D01*
X2727434Y17654020D01*
X2750288Y17667215D01*
X2926558Y17749411D01*
X3099776Y17870699D01*
X3169077Y17940000D01*
X6556378Y17940000D01*
X6576814Y17732499D01*
X6576814Y17732498D01*
X6637340Y17532970D01*
X6637342Y17532964D01*
X6735630Y17349084D01*
X6735632Y17349081D01*
X6867906Y17187906D01*
X7029081Y17055632D01*
X7029084Y17055630D01*
X7212964Y16957342D01*
X7212970Y16957340D01*
X7412499Y16896814D01*
X7620000Y16876378D01*
X7827500Y16896814D01*
X7827501Y16896814D01*
X8027029Y16957340D01*
X8027035Y16957342D01*
X8210915Y17055630D01*
X8210918Y17055632D01*
X8372094Y17187906D01*
X8504369Y17349083D01*
X8554655Y17443161D01*
X8602657Y17532964D01*
X8602659Y17532970D01*
X8636610Y17644890D01*
X8663185Y17732498D01*
X8683622Y17940000D01*
X8663185Y18147502D01*
X8602659Y18347031D01*
X8504369Y18530917D01*
X8372094Y18692094D01*
X8210917Y18824369D01*
X8027031Y18922659D01*
X7827502Y18983185D01*
X7620000Y19003622D01*
X7412498Y18983185D01*
X7212969Y18922659D01*
X7212967Y18922658D01*
X7212964Y18922657D01*
X7110508Y18867892D01*
X7029083Y18824369D01*
X6867906Y18692094D01*
X6783582Y18589345D01*
X6735632Y18530918D01*
X6735630Y18530915D01*
X6637342Y18347035D01*
X6637340Y18347029D01*
X6576814Y18147501D01*
X6576814Y18147500D01*
X6556378Y17940000D01*
X3169077Y17940000D01*
X3249301Y18020224D01*
X3370589Y18193442D01*
X3445976Y18355110D01*
X3459955Y18385087D01*
X3493504Y18510291D01*
X3514686Y18589345D01*
X3533116Y18800000D01*
X3514686Y19010655D01*
X3459956Y19214910D01*
X3370589Y19406558D01*
X3249301Y19579776D01*
X3099776Y19729301D01*
X2926558Y19850589D01*
X2734910Y19939956D01*
X2530655Y19994686D01*
X2320000Y20013116D01*
X2109345Y19994686D01*
X1905090Y19939956D01*
X1905089Y19939955D01*
X1905087Y19939955D01*
X1865528Y19921507D01*
X1713442Y19850589D01*
X1540224Y19729301D01*
X1390699Y19579776D01*
X1269411Y19406558D01*
X1227134Y19315894D01*
X1180044Y19214912D01*
X1125313Y19010654D01*
X1106884Y18800000D01*
X1125313Y18589345D01*
X1180044Y18385087D01*
X1230493Y18276902D01*
X1269411Y18193442D01*
X1301579Y18147501D01*
X1390700Y18020222D01*
X1540222Y17870700D01*
X1599722Y17829038D01*
X1713442Y17749411D01*
X1819765Y17699831D01*
X1889711Y17667215D01*
X1949746Y17616839D01*
X1976550Y17543195D01*
X1962941Y17466015D01*
X1912565Y17405980D01*
X1889711Y17392785D01*
X1856876Y17377473D01*
X1713442Y17310589D01*
X1540224Y17189301D01*
X1390699Y17039776D01*
X1269411Y16866558D01*
X1247382Y16819316D01*
X1180044Y16674912D01*
X1125313Y16470654D01*
X1106884Y16260000D01*
X1125313Y16049345D01*
X1180044Y15845087D01*
X1238931Y15718806D01*
X1269411Y15653442D01*
X1312445Y15591983D01*
X1390700Y15480222D01*
X1540222Y15330700D01*
X1613004Y15279738D01*
X1713442Y15209411D01*
X1805336Y15166560D01*
X1889711Y15127215D01*
X1949746Y15076839D01*
X1976550Y15003195D01*
X1962941Y14926015D01*
X1912565Y14865980D01*
X1889711Y14852785D01*
X1887524Y14851765D01*
X1713442Y14770589D01*
X1540224Y14649301D01*
X1390699Y14499776D01*
X1269411Y14326558D01*
X1230041Y14242128D01*
X1180044Y14134912D01*
X1125313Y13930654D01*
X1106884Y13720000D01*
X1125313Y13509345D01*
X1180044Y13305087D01*
X1244733Y13166364D01*
X1269411Y13113442D01*
X1301579Y13067501D01*
X1390700Y12940222D01*
X1540222Y12790700D01*
X1632313Y12726218D01*
X1713442Y12669411D01*
X1782103Y12637394D01*
X1889711Y12587215D01*
X1949746Y12536839D01*
X1976550Y12463195D01*
X1962941Y12386015D01*
X1912565Y12325980D01*
X1889711Y12312785D01*
X1856876Y12297473D01*
X1713442Y12230589D01*
X1540224Y12109301D01*
X1390699Y11959776D01*
X1269411Y11786558D01*
X1232354Y11707088D01*
X1180044Y11594912D01*
X1125313Y11390654D01*
X1106884Y11180000D01*
X1125313Y10969345D01*
X1180044Y10765087D01*
X1236093Y10644892D01*
X1269411Y10573442D01*
X1269412Y10573441D01*
X1269413Y10573438D01*
X1286988Y10548340D01*
X1313793Y10474696D01*
X1300184Y10397516D01*
X1249809Y10337481D01*
X1176165Y10310676D01*
X1162969Y10310100D01*
X-1484577Y10310100D01*
X-1560277Y10330384D01*
X-1591633Y10354444D01*
X-1810631Y10573442D01*
X-2045557Y10808368D01*
X-2084741Y10876237D01*
X-2089900Y10915422D01*
X-2089900Y17815933D01*
X-2088062Y17832581D01*
X-2088678Y17832640D01*
X-2087781Y17842131D01*
X-2089900Y17909568D01*
X-2089900Y17938396D01*
X-2090657Y17944382D01*
X-2091217Y17951495D01*
X-2092621Y17996200D01*
X-2097404Y18012660D01*
X-2102222Y18035921D01*
X-2104371Y18052933D01*
X-2120837Y18094522D01*
X-2123148Y18101271D01*
X-2135628Y18144226D01*
X-2144355Y18158984D01*
X-2154799Y18180303D01*
X-2161114Y18196251D01*
X-2161116Y18196255D01*
X-2187407Y18232441D01*
X-2191325Y18238405D01*
X-2214092Y18276902D01*
X-2214095Y18276907D01*
X-2226214Y18289026D01*
X-2241642Y18307090D01*
X-2251720Y18320961D01*
X-2251722Y18320963D01*
X-2286188Y18349476D01*
X-2291466Y18354278D01*
X-4309150Y20371962D01*
X-4319630Y20385041D01*
X-4320106Y20384648D01*
X-4326175Y20391985D01*
X-4375358Y20438170D01*
X-4395734Y20458546D01*
X-4395741Y20458552D01*
X-4400506Y20462248D01*
X-4405939Y20466887D01*
X-4419902Y20480000D01*
X6556378Y20480000D01*
X6576814Y20272499D01*
X6576814Y20272498D01*
X6637340Y20072970D01*
X6637342Y20072964D01*
X6735630Y19889084D01*
X6735632Y19889081D01*
X6867906Y19727906D01*
X7029081Y19595632D01*
X7029084Y19595630D01*
X7212964Y19497342D01*
X7212970Y19497340D01*
X7412499Y19436814D01*
X7620000Y19416378D01*
X7827500Y19436814D01*
X7827501Y19436814D01*
X8027029Y19497340D01*
X8027035Y19497342D01*
X8210915Y19595630D01*
X8210918Y19595632D01*
X8238717Y19618446D01*
X8372094Y19727906D01*
X8504369Y19889083D01*
X8547892Y19970508D01*
X8602657Y20072964D01*
X8602659Y20072970D01*
X8613878Y20109952D01*
X8663185Y20272498D01*
X8683622Y20480000D01*
X8663185Y20687502D01*
X8602659Y20887031D01*
X8504369Y21070917D01*
X8372094Y21232094D01*
X8210917Y21364369D01*
X8027031Y21462659D01*
X7827502Y21523185D01*
X7620000Y21543622D01*
X7412498Y21523185D01*
X7212969Y21462659D01*
X7212967Y21462658D01*
X7212964Y21462657D01*
X7110508Y21407892D01*
X7029083Y21364369D01*
X6867906Y21232094D01*
X6735632Y21070918D01*
X6735630Y21070915D01*
X6637342Y20887035D01*
X6637340Y20887029D01*
X6576814Y20687501D01*
X6576814Y20687500D01*
X6556378Y20480000D01*
X-4419902Y20480000D01*
X-4438540Y20497503D01*
X-4453562Y20505761D01*
X-4473421Y20518806D01*
X-4486960Y20529309D01*
X-4486962Y20529310D01*
X-4486966Y20529313D01*
X-4523657Y20545191D01*
X-4528022Y20547080D01*
X-4534424Y20550216D01*
X-4573622Y20571765D01*
X-4573624Y20571766D01*
X-4590221Y20576027D01*
X-4612700Y20583723D01*
X-4613942Y20584260D01*
X-4628435Y20590532D01*
X-4672633Y20597531D01*
X-4679591Y20598973D01*
X-4722926Y20610100D01*
X-4722928Y20610100D01*
X-4740067Y20610100D01*
X-4763751Y20611964D01*
X-4780684Y20614646D01*
X-4825221Y20610435D01*
X-4832345Y20610100D01*
X-5740932Y20610100D01*
X-5757580Y20611937D01*
X-5757639Y20611322D01*
X-5767118Y20612216D01*
X-5767128Y20612219D01*
X-5832381Y20610168D01*
X-5834569Y20610100D01*
X-5863383Y20610100D01*
X-5869379Y20609341D01*
X-5876483Y20608782D01*
X-5921199Y20607378D01*
X-5937647Y20602598D01*
X-5937653Y20602597D01*
X-5960926Y20597776D01*
X-5977932Y20595629D01*
X-6019539Y20579154D01*
X-6026261Y20576853D01*
X-6069226Y20564372D01*
X-6083985Y20555642D01*
X-6105310Y20545196D01*
X-6121254Y20538884D01*
X-6157461Y20512577D01*
X-6163391Y20508681D01*
X-6201906Y20485905D01*
X-6214025Y20473784D01*
X-6232083Y20458361D01*
X-6245962Y20448279D01*
X-6274491Y20413790D01*
X-6279273Y20408536D01*
X-6871960Y19815850D01*
X-6885032Y19805381D01*
X-6884637Y19804903D01*
X-6891978Y19798828D01*
X-6891983Y19798826D01*
X-6938171Y19749640D01*
X-6958547Y19729265D01*
X-6962247Y19724493D01*
X-6966880Y19719067D01*
X-6997504Y19686458D01*
X-7005763Y19671432D01*
X-7018801Y19651584D01*
X-7029313Y19638034D01*
X-7047082Y19596970D01*
X-7050215Y19590576D01*
X-7071765Y19551378D01*
X-7072940Y19546801D01*
X-7076028Y19534774D01*
X-7083723Y19512297D01*
X-7090532Y19496565D01*
X-7097530Y19452374D01*
X-7098976Y19445397D01*
X-7110100Y19402074D01*
X-7110100Y19402072D01*
X-7110100Y19384933D01*
X-7111963Y19361249D01*
X-7114646Y19344316D01*
X-7110436Y19299781D01*
X-7110100Y19292654D01*
X-7110100Y18334066D01*
X-7111939Y18317411D01*
X-7111323Y18317353D01*
X-7112219Y18307869D01*
X-7111648Y18289708D01*
X-7110099Y18240432D01*
X-7110100Y18211617D01*
X-7109440Y18206397D01*
X-7109342Y18205620D01*
X-7108781Y18198505D01*
X-7107378Y18153801D01*
X-7102594Y18137337D01*
X-7097776Y18114074D01*
X-7095629Y18097068D01*
X-7087624Y18076850D01*
X-7079162Y18055479D01*
X-7076852Y18048735D01*
X-7068569Y18020222D01*
X-7064372Y18005775D01*
X-7055647Y17991021D01*
X-7045195Y17969687D01*
X-7038884Y17953746D01*
X-7027722Y17938383D01*
X-7012591Y17917557D01*
X-7008673Y17911592D01*
X-6992738Y17884648D01*
X-6985905Y17873094D01*
X-6973786Y17860975D01*
X-6958360Y17842913D01*
X-6948279Y17829038D01*
X-6913804Y17800518D01*
X-6908527Y17795716D01*
X-6340849Y17228037D01*
X-6330370Y17214957D01*
X-6329893Y17215352D01*
X-6323828Y17208021D01*
X-6323826Y17208017D01*
X-6323822Y17208013D01*
X-6323821Y17208012D01*
X-6274640Y17161828D01*
X-6254265Y17141453D01*
X-6254261Y17141450D01*
X-6254258Y17141447D01*
X-6249476Y17137738D01*
X-6244056Y17133108D01*
X-6211458Y17102496D01*
X-6211455Y17102494D01*
X-6196438Y17094239D01*
X-6176581Y17081196D01*
X-6163034Y17070687D01*
X-6163032Y17070686D01*
X-6161175Y17069588D01*
X-6159780Y17068163D01*
X-6155506Y17064848D01*
X-6155960Y17064262D01*
X-6106343Y17013594D01*
X-6086853Y16937685D01*
X-6107929Y16862202D01*
X-6121213Y16843223D01*
X-6139503Y16820936D01*
X-6232807Y16646378D01*
X-6290261Y16456975D01*
X-6309661Y16260000D01*
X-6290261Y16063024D01*
X-6232807Y15873621D01*
X-6139501Y15699060D01*
X-6111086Y15664438D01*
X-5670146Y16105377D01*
X-5627641Y16021955D01*
X-5538045Y15932359D01*
X-5454620Y15889852D01*
X-5895560Y15448912D01*
X-5895560Y15448910D01*
X-5860943Y15420500D01*
X-5686378Y15327192D01*
X-5496975Y15269738D01*
X-5300000Y15250338D01*
X-5103024Y15269738D01*
X-4913620Y15327193D01*
X-4913618Y15327194D01*
X-4732869Y15423806D01*
X-4656546Y15441602D01*
X-4581550Y15418852D01*
X-4527977Y15361652D01*
X-4510100Y15290283D01*
X-4510100Y14922745D01*
X-4530384Y14847045D01*
X-4585800Y14791629D01*
X-4661500Y14771345D01*
X-4725481Y14785529D01*
X-4885088Y14859955D01*
X-4885089Y14859955D01*
X-4885090Y14859956D01*
X-5089345Y14914686D01*
X-5089344Y14914686D01*
X-5106291Y14916168D01*
X-5300000Y14933116D01*
X-5510655Y14914686D01*
X-5714910Y14859956D01*
X-5906558Y14770589D01*
X-6079776Y14649301D01*
X-6229301Y14499776D01*
X-6350589Y14326558D01*
X-6439956Y14134910D01*
X-6494686Y13930655D01*
X-6513116Y13720000D01*
X-6494686Y13509345D01*
X-6439956Y13305090D01*
X-6350589Y13113442D01*
X-6229301Y12940224D01*
X-6079776Y12790699D01*
X-5906558Y12669411D01*
X-5736359Y12590046D01*
X-5730288Y12587215D01*
X-5670253Y12536839D01*
X-5643449Y12463195D01*
X-5657058Y12386015D01*
X-5707434Y12325980D01*
X-5730286Y12312785D01*
X-5906558Y12230589D01*
X-6079776Y12109301D01*
X-6229301Y11959776D01*
X-6350589Y11786558D01*
X-6439956Y11594910D01*
X-6494686Y11390655D01*
X-6513116Y11180000D01*
X-6494686Y10969345D01*
X-6444271Y10781192D01*
X-6439955Y10765087D01*
X-6433623Y10751509D01*
X-6350589Y10573442D01*
X-6229301Y10400224D01*
X-6079776Y10250699D01*
X-5906558Y10129411D01*
X-5775857Y10068464D01*
X-5714911Y10040044D01*
X-5714912Y10040044D01*
X-5510654Y9985313D01*
X-5510655Y9985313D01*
X-5300000Y9966884D01*
X-5089346Y9985313D01*
X-5078171Y9988308D01*
X-4999801Y9988306D01*
X-4931933Y9949122D01*
X-1854444Y6871632D01*
X-1815259Y6803761D01*
X-1810100Y6764576D01*
X-1810100Y3600621D01*
X-1830384Y3524921D01*
X-1835423Y3517529D01*
X-1835364Y3517492D01*
X-1839887Y3510293D01*
X-1937394Y3355110D01*
X-1997926Y3182121D01*
X-2018446Y3000000D01*
X-1997926Y2817879D01*
X-1973299Y2747501D01*
X-1937395Y2644892D01*
X-1937392Y2644886D01*
X-1839888Y2489708D01*
X-1710291Y2360111D01*
X-1555113Y2262607D01*
X-1555107Y2262604D01*
X-1454444Y2227381D01*
X-1382121Y2202074D01*
X-1200000Y2181554D01*
X-1017880Y2202073D01*
X-844887Y2262607D01*
X-830548Y2271617D01*
X-755659Y2294716D01*
X-679253Y2277276D01*
X-669452Y2271617D01*
X-655112Y2262607D01*
X-655110Y2262606D01*
X-568615Y2232340D01*
X-482119Y2202073D01*
X-300000Y2181554D01*
X-117879Y2202074D01*
X-65512Y2220398D01*
X55107Y2262604D01*
X55113Y2262607D01*
X210291Y2360111D01*
X339888Y2489708D01*
X437392Y2644886D01*
X437395Y2644892D01*
X473299Y2747501D01*
X497926Y2817879D01*
X518446Y3000000D01*
X497926Y3182121D01*
X437394Y3355110D01*
X339887Y3510293D01*
X335364Y3517492D01*
X337603Y3518899D01*
X311794Y3578038D01*
X310100Y3600621D01*
X310100Y7215929D01*
X311938Y7232582D01*
X311323Y7232641D01*
X312217Y7242118D01*
X312220Y7242128D01*
X310100Y7309585D01*
X310100Y7338383D01*
X309340Y7344395D01*
X308783Y7351479D01*
X307378Y7396199D01*
X302593Y7412664D01*
X297776Y7435929D01*
X295629Y7452932D01*
X279162Y7494521D01*
X276851Y7501272D01*
X264373Y7544225D01*
X255647Y7558980D01*
X245192Y7580320D01*
X238884Y7596254D01*
X212586Y7632449D01*
X208688Y7638381D01*
X185906Y7676906D01*
X173782Y7689028D01*
X158357Y7707089D01*
X148279Y7720962D01*
X113789Y7749493D01*
X108546Y7754264D01*
X-368632Y8231444D01*
X-407817Y8299315D01*
X-407817Y8377686D01*
X-368632Y8445556D01*
X-300761Y8484741D01*
X-261576Y8489900D01*
X3775932Y8489900D01*
X3792580Y8488062D01*
X3792639Y8488678D01*
X3802126Y8487781D01*
X3802128Y8487781D01*
X3802129Y8487781D01*
X3802130Y8487781D01*
X3869569Y8489900D01*
X3898396Y8489900D01*
X3904382Y8490657D01*
X3911495Y8491217D01*
X3956200Y8492621D01*
X3972660Y8497404D01*
X3995921Y8502222D01*
X4012933Y8504371D01*
X4012938Y8504372D01*
X4054525Y8520839D01*
X4061271Y8523148D01*
X4104225Y8535628D01*
X4118979Y8544353D01*
X4140308Y8554802D01*
X4156252Y8561115D01*
X4156255Y8561116D01*
X4192451Y8587414D01*
X4198414Y8591331D01*
X4236902Y8614092D01*
X4236909Y8614098D01*
X4249022Y8626211D01*
X4267086Y8641639D01*
X4280960Y8651719D01*
X4309481Y8686194D01*
X4314283Y8691471D01*
X6335136Y10712324D01*
X6403007Y10751509D01*
X6481377Y10751509D01*
X6549248Y10712324D01*
X6588433Y10644453D01*
X6588433Y10566083D01*
X6587073Y10561321D01*
X6576816Y10527507D01*
X6576814Y10527500D01*
X6556378Y10320000D01*
X6576814Y10112499D01*
X6576814Y10112498D01*
X6637340Y9912970D01*
X6637342Y9912964D01*
X6735630Y9729084D01*
X6735632Y9729081D01*
X6867906Y9567906D01*
X7029081Y9435632D01*
X7029084Y9435630D01*
X7212964Y9337342D01*
X7212970Y9337340D01*
X7412499Y9276814D01*
X7620000Y9256378D01*
X7827500Y9276814D01*
X7827501Y9276814D01*
X8027029Y9337340D01*
X8027035Y9337342D01*
X8210915Y9435630D01*
X8210918Y9435632D01*
X8231730Y9452712D01*
X8372094Y9567906D01*
X8504369Y9729083D01*
X8504980Y9730226D01*
X8505511Y9730793D01*
X8508497Y9735262D01*
X8509235Y9734768D01*
X8558555Y9787424D01*
X8633551Y9810171D01*
X8709874Y9792372D01*
X8767072Y9738797D01*
X8789819Y9663801D01*
X8789900Y9658852D01*
X8789900Y9515424D01*
X8769616Y9439724D01*
X8745556Y9408368D01*
X4928037Y5590849D01*
X4914957Y5580370D01*
X4915352Y5579893D01*
X4908021Y5573828D01*
X4908017Y5573826D01*
X4908013Y5573822D01*
X4908012Y5573821D01*
X4861829Y5524641D01*
X4841459Y5504271D01*
X4841447Y5504258D01*
X4837738Y5499476D01*
X4833108Y5494056D01*
X4802496Y5461458D01*
X4802494Y5461455D01*
X4794239Y5446438D01*
X4781196Y5426581D01*
X4770687Y5413034D01*
X4752917Y5371971D01*
X4749784Y5365577D01*
X4728234Y5326377D01*
X4723971Y5309772D01*
X4716276Y5287298D01*
X4709467Y5271564D01*
X4709467Y5271563D01*
X4702469Y5227381D01*
X4701022Y5220398D01*
X4689900Y5177074D01*
X4689900Y5159933D01*
X4688036Y5136249D01*
X4685354Y5119316D01*
X4689564Y5074781D01*
X4689900Y5067654D01*
X4689900Y-2984575D01*
X4669616Y-3060275D01*
X4645556Y-3091631D01*
X1891632Y-5845556D01*
X1823761Y-5884741D01*
X1784576Y-5889900D01*
X-6799378Y-5889900D01*
X-6875078Y-5869616D01*
X-6882470Y-5864576D01*
X-6882508Y-5864636D01*
X-7044886Y-5762607D01*
X-7044892Y-5762604D01*
X-7217879Y-5702074D01*
X-7400000Y-5681554D01*
X-7582121Y-5702074D01*
X-7627289Y-5717879D01*
X-7755107Y-5762604D01*
X-7755113Y-5762607D01*
X-7910291Y-5860111D01*
X-8039888Y-5989708D01*
X-8137392Y-6144886D01*
X-8137394Y-6144890D01*
X-8197926Y-6317879D01*
X-8218446Y-6500000D01*
X-8849820Y-6500000D01*
X-8760111Y-6410291D01*
X-8662607Y-6255113D01*
X-8662604Y-6255107D01*
X-8602074Y-6082120D01*
X-8591930Y-5992094D01*
X-8581554Y-5900000D01*
X-8585539Y-5864636D01*
X-8602074Y-5717879D01*
X-8662604Y-5544892D01*
X-8662607Y-5544886D01*
X-8764636Y-5382508D01*
X-8762400Y-5381103D01*
X-8788210Y-5321933D01*
X-8789900Y-5299378D01*
X-8789900Y-4615422D01*
X-8769616Y-4539722D01*
X-8745559Y-4508370D01*
X-7228041Y-2990852D01*
X-7214964Y-2980376D01*
X-7215359Y-2979900D01*
X-7208016Y-2973825D01*
X-7161814Y-2924625D01*
X-7161813Y-2924624D01*
X-7141454Y-2904265D01*
X-7137751Y-2899491D01*
X-7133122Y-2894071D01*
X-7102497Y-2861459D01*
X-7094234Y-2846429D01*
X-7081195Y-2826580D01*
X-7070688Y-2813034D01*
X-7052917Y-2771970D01*
X-7049788Y-2765584D01*
X-7028234Y-2726377D01*
X-7023969Y-2709765D01*
X-7016275Y-2687294D01*
X-7009469Y-2671567D01*
X-7009468Y-2671563D01*
X-7002471Y-2627383D01*
X-7001023Y-2620395D01*
X-6989900Y-2577076D01*
X-6989899Y-2577069D01*
X-6989899Y-2559927D01*
X-6988036Y-2536257D01*
X-6985354Y-2519317D01*
X-6985354Y-2519316D01*
X-6989564Y-2474777D01*
X-6989900Y-2467654D01*
X-6989900Y-649351D01*
X-6969616Y-573651D01*
X-6919051Y-521158D01*
X-6789707Y-439887D01*
X-6660113Y-310293D01*
X-6660111Y-310291D01*
X-6562607Y-155113D01*
X-6562604Y-155107D01*
X-6502074Y17879D01*
X-6481554Y199999D01*
X-6481554Y200000D01*
X-6502073Y382119D01*
X-6557895Y541647D01*
X-6562606Y555110D01*
X-6562607Y555112D01*
X-6571617Y569452D01*
X-6594716Y644341D01*
X-6577276Y720747D01*
X-6571617Y730548D01*
X-6562607Y744887D01*
X-6521288Y862970D01*
X-6502074Y917879D01*
X-6502073Y917880D01*
X-6499266Y925905D01*
X-6496690Y925003D01*
X-6466666Y981782D01*
X-6400298Y1023463D01*
X-6321982Y1026377D01*
X-6252702Y989742D01*
X-6248648Y985836D01*
X-6190849Y928037D01*
X-6180370Y914957D01*
X-6179893Y915352D01*
X-6173828Y908021D01*
X-6173826Y908017D01*
X-6173822Y908013D01*
X-6173821Y908012D01*
X-6125856Y862970D01*
X-6124641Y861829D01*
X-6104265Y841453D01*
X-6104261Y841450D01*
X-6104258Y841447D01*
X-6099476Y837738D01*
X-6094056Y833108D01*
X-6061458Y802496D01*
X-6061455Y802494D01*
X-6046438Y794239D01*
X-6026581Y781196D01*
X-6013034Y770687D01*
X-5971971Y752917D01*
X-5965577Y749784D01*
X-5926377Y728234D01*
X-5913252Y724864D01*
X-5909769Y723970D01*
X-5887298Y716276D01*
X-5871563Y709467D01*
X-5827381Y702469D01*
X-5820398Y701022D01*
X-5777074Y689900D01*
X-5759933Y689900D01*
X-5736249Y688036D01*
X-5719316Y685354D01*
X-5674778Y689564D01*
X-5667655Y689900D01*
X-5421963Y689900D01*
X-5405314Y688062D01*
X-5405256Y688678D01*
X-5395769Y687781D01*
X-5395767Y687781D01*
X-5395764Y687781D01*
X-5328326Y689900D01*
X-5299515Y689900D01*
X-5299512Y689900D01*
X-5299509Y689900D01*
X-5299496Y689901D01*
X-5293499Y690658D01*
X-5286393Y691217D01*
X-5241696Y692621D01*
X-5241691Y692622D01*
X-5225224Y697406D01*
X-5201973Y702221D01*
X-5184965Y704370D01*
X-5184962Y704370D01*
X-5154894Y716276D01*
X-5143360Y720842D01*
X-5136622Y723149D01*
X-5093670Y735627D01*
X-5078908Y744357D01*
X-5057592Y754799D01*
X-5041647Y761113D01*
X-5041638Y761117D01*
X-5005445Y787412D01*
X-4999485Y791327D01*
X-4960986Y814096D01*
X-4948863Y826219D01*
X-4930810Y841638D01*
X-4916931Y851722D01*
X-4888418Y886189D01*
X-4883616Y891466D01*
X-4518437Y1256645D01*
X-4505362Y1267123D01*
X-4505755Y1267598D01*
X-4498415Y1273670D01*
X-4452213Y1322870D01*
X-4431854Y1343229D01*
X-4431844Y1343240D01*
X-4428145Y1348009D01*
X-4423517Y1353427D01*
X-4392896Y1386037D01*
X-4384631Y1401069D01*
X-4371598Y1420909D01*
X-4361091Y1434454D01*
X-4361087Y1434463D01*
X-4343319Y1475516D01*
X-4340183Y1481918D01*
X-4318635Y1521114D01*
X-4318634Y1521118D01*
X-4314371Y1537722D01*
X-4306677Y1560195D01*
X-4299869Y1575927D01*
X-4292872Y1620103D01*
X-4291425Y1627089D01*
X-4280300Y1670419D01*
X-4280300Y1687561D01*
X-4278436Y1711244D01*
X-4275754Y1728176D01*
X-4279964Y1772711D01*
X-4280300Y1779839D01*
X-4280300Y2706328D01*
X-4278461Y2722981D01*
X-4279077Y2723040D01*
X-4278180Y2732531D01*
X-4280300Y2800001D01*
X-4280300Y2828781D01*
X-4280300Y2828783D01*
X-4281057Y2834784D01*
X-4281616Y2841884D01*
X-4283021Y2886596D01*
X-4283022Y2886601D01*
X-4287806Y2903069D01*
X-4292621Y2926322D01*
X-4294770Y2943329D01*
X-4294771Y2943335D01*
X-4311237Y2984924D01*
X-4313548Y2991673D01*
X-4326027Y3034625D01*
X-4334755Y3049384D01*
X-4345204Y3070713D01*
X-4351515Y3086651D01*
X-4351516Y3086654D01*
X-4377804Y3122838D01*
X-4381719Y3128797D01*
X-4404491Y3167302D01*
X-4404497Y3167309D01*
X-4416614Y3179426D01*
X-4432042Y3197490D01*
X-4442120Y3211361D01*
X-4442122Y3211363D01*
X-4476588Y3239876D01*
X-4481866Y3244678D01*
X-4649726Y3412538D01*
X-4688911Y3480409D01*
X-4693118Y3502641D01*
X-4702073Y3582119D01*
X-4702074Y3582122D01*
X-4762604Y3755107D01*
X-4762607Y3755113D01*
X-4860111Y3910291D01*
X-4989708Y4039888D01*
X-5144886Y4137392D01*
X-5144892Y4137395D01*
X-5184828Y4151369D01*
X-5317879Y4197926D01*
X-5500000Y4218446D01*
X-5682121Y4197926D01*
X-5855110Y4137394D01*
X-6010293Y4039887D01*
X-6139887Y3910293D01*
X-6196163Y3820728D01*
X-6253611Y3767425D01*
X-6330016Y3749986D01*
X-6404905Y3773085D01*
X-6431412Y3794224D01*
X-15945555Y13308367D01*
X-15984740Y13376238D01*
X-15989899Y13415423D01*
X-15989899Y14215940D01*
X-15988062Y14232586D01*
X-15988676Y14232644D01*
X-15987780Y14242123D01*
X-15989900Y14309567D01*
X-15989900Y14338396D01*
X-15990657Y14344382D01*
X-15991217Y14351495D01*
X-15992621Y14396200D01*
X-15997404Y14412660D01*
X-16002222Y14435921D01*
X-16004371Y14452933D01*
X-16020837Y14494522D01*
X-16023148Y14501271D01*
X-16035627Y14544224D01*
X-16035629Y14544228D01*
X-16044354Y14558981D01*
X-16054801Y14580304D01*
X-16061116Y14596254D01*
X-16087414Y14632450D01*
X-16091330Y14638412D01*
X-16114092Y14676903D01*
X-16126211Y14689022D01*
X-16141639Y14707086D01*
X-16151721Y14720962D01*
X-16151722Y14720963D01*
X-16186188Y14749475D01*
X-16191468Y14754279D01*
X-17009150Y15571962D01*
X-17019630Y15585041D01*
X-17020106Y15584648D01*
X-17026175Y15591985D01*
X-17075358Y15638170D01*
X-17095734Y15658546D01*
X-17095741Y15658552D01*
X-17100506Y15662248D01*
X-17105939Y15666887D01*
X-17138540Y15697503D01*
X-17153562Y15705761D01*
X-17173421Y15718806D01*
X-17186960Y15729309D01*
X-17186962Y15729310D01*
X-17186966Y15729313D01*
X-17217922Y15742709D01*
X-17228022Y15747080D01*
X-17234424Y15750216D01*
X-17273622Y15771765D01*
X-17273624Y15771766D01*
X-17290221Y15776027D01*
X-17312697Y15783722D01*
X-17334409Y15793117D01*
X-17395828Y15841795D01*
X-17424680Y15914661D01*
X-17419165Y15976014D01*
X-17389738Y16073023D01*
X-17370338Y16270000D01*
X-17389738Y16466975D01*
X-17447192Y16656378D01*
X-17540500Y16830943D01*
X-17568910Y16865560D01*
X-17568912Y16865560D01*
X-18009851Y16424620D01*
X-18052359Y16508045D01*
X-18141955Y16597641D01*
X-18225378Y16640147D01*
X-17784438Y17081086D01*
X-17784438Y17081087D01*
X-17819060Y17109501D01*
X-17993621Y17202807D01*
X-18183024Y17260261D01*
X-18380000Y17279662D01*
X-18576975Y17260261D01*
X-18766378Y17202807D01*
X-18940934Y17109504D01*
X-18940937Y17109502D01*
X-18975560Y17081086D01*
X-18534621Y16640147D01*
X-18618045Y16597641D01*
X-18707641Y16508045D01*
X-18750147Y16424621D01*
X-19191086Y16865560D01*
X-19219502Y16830937D01*
X-19219504Y16830934D01*
X-19312807Y16656378D01*
X-19370261Y16466975D01*
X-19389661Y16269999D01*
X-19370261Y16073024D01*
X-19349763Y16005449D01*
X-19347199Y15927121D01*
X-19384142Y15858004D01*
X-19450695Y15816619D01*
X-19494644Y15810100D01*
X-19805356Y15810100D01*
X-19881056Y15830384D01*
X-19936472Y15885800D01*
X-19956756Y15961500D01*
X-19950237Y16005449D01*
X-19929738Y16073024D01*
X-19910338Y16270000D01*
X-19929738Y16466975D01*
X-19987192Y16656378D01*
X-20080500Y16830943D01*
X-20108910Y16865560D01*
X-20108912Y16865560D01*
X-20549851Y16424620D01*
X-20592359Y16508045D01*
X-20681955Y16597641D01*
X-20765378Y16640147D01*
X-20324438Y17081086D01*
X-20324438Y17081087D01*
X-20359060Y17109501D01*
X-20533621Y17202807D01*
X-20723024Y17260261D01*
X-20920000Y17279662D01*
X-21116975Y17260261D01*
X-21306378Y17202807D01*
X-21480934Y17109504D01*
X-21480937Y17109502D01*
X-21515560Y17081086D01*
X-21074621Y16640147D01*
X-21158045Y16597641D01*
X-21247641Y16508045D01*
X-21290147Y16424621D01*
X-21731086Y16865560D01*
X-21759502Y16830937D01*
X-21759504Y16830934D01*
X-21852807Y16656378D01*
X-21910261Y16466975D01*
X-21929661Y16270000D01*
X-21910261Y16073024D01*
X-21889763Y16005449D01*
X-21887199Y15927121D01*
X-21924142Y15858004D01*
X-21990695Y15816619D01*
X-22034644Y15810100D01*
X-22134791Y15810100D01*
X-22210491Y15830384D01*
X-22265907Y15885800D01*
X-22286191Y15961500D01*
X-22281032Y16000686D01*
X-22279755Y16005449D01*
X-22267993Y16049345D01*
X-22265313Y16059346D01*
X-22246884Y16269999D01*
X-22265313Y16480654D01*
X-22320044Y16684912D01*
X-22386511Y16827448D01*
X-22409411Y16876558D01*
X-22530699Y17049776D01*
X-22680224Y17199301D01*
X-22853442Y17320589D01*
X-23045088Y17409955D01*
X-23045089Y17409955D01*
X-23045090Y17409956D01*
X-23249345Y17464686D01*
X-23249344Y17464686D01*
X-23266291Y17466168D01*
X-23460000Y17483116D01*
X-23670655Y17464686D01*
X-23874910Y17409956D01*
X-24066558Y17320589D01*
X-24239776Y17199301D01*
X-24389301Y17049776D01*
X-24510589Y16876558D01*
X-24563800Y16762446D01*
X-24592785Y16700288D01*
X-24643161Y16640253D01*
X-24716805Y16613449D01*
X-24793985Y16627058D01*
X-24854020Y16677434D01*
X-24867215Y16700288D01*
X-24897548Y16765337D01*
X-24949411Y16876558D01*
X-25070699Y17049776D01*
X-25220224Y17199301D01*
X-25393442Y17320589D01*
X-25585088Y17409955D01*
X-25585089Y17409955D01*
X-25585090Y17409956D01*
X-25789345Y17464686D01*
X-25789344Y17464686D01*
X-25806291Y17466168D01*
X-26000000Y17483116D01*
X-26210655Y17464686D01*
X-26414910Y17409956D01*
X-26606558Y17320589D01*
X-26779776Y17199301D01*
X-26929301Y17049776D01*
X-27050589Y16876558D01*
X-27103800Y16762446D01*
X-27132785Y16700288D01*
X-27183161Y16640253D01*
X-27256805Y16613449D01*
X-27333985Y16627058D01*
X-27394020Y16677434D01*
X-27407215Y16700288D01*
X-27437548Y16765337D01*
X-27489411Y16876558D01*
X-27610699Y17049776D01*
X-27760224Y17199301D01*
X-27933442Y17320589D01*
X-28125088Y17409955D01*
X-28125089Y17409955D01*
X-28125090Y17409956D01*
X-28329345Y17464686D01*
X-28329344Y17464686D01*
X-28346291Y17466168D01*
X-28540000Y17483116D01*
X-28750655Y17464686D01*
X-28954910Y17409956D01*
X-29146558Y17320589D01*
X-29282582Y17225343D01*
X-29356222Y17198542D01*
X-29433401Y17212151D01*
X-29465922Y17232710D01*
X-29486190Y17249477D01*
X-29491467Y17254279D01*
X-30109150Y17871962D01*
X-30119630Y17885041D01*
X-30120106Y17884648D01*
X-30126175Y17891985D01*
X-30175358Y17938170D01*
X-30195734Y17958546D01*
X-30195741Y17958552D01*
X-30200506Y17962248D01*
X-30205939Y17966887D01*
X-30238540Y17997503D01*
X-30253562Y18005761D01*
X-30273421Y18018806D01*
X-30286960Y18029309D01*
X-30286962Y18029310D01*
X-30286966Y18029313D01*
X-30323655Y18045190D01*
X-30328022Y18047080D01*
X-30334424Y18050216D01*
X-30373622Y18071765D01*
X-30373624Y18071766D01*
X-30390221Y18076027D01*
X-30412700Y18083723D01*
X-30413942Y18084260D01*
X-30428435Y18090532D01*
X-30472633Y18097531D01*
X-30479591Y18098973D01*
X-30522926Y18110100D01*
X-30522928Y18110100D01*
X-30540067Y18110100D01*
X-30563751Y18111964D01*
X-30580684Y18114646D01*
X-30625221Y18110435D01*
X-30632345Y18110100D01*
X-31515933Y18110100D01*
X-31532581Y18111937D01*
X-31532640Y18111322D01*
X-31542119Y18112216D01*
X-31542129Y18112219D01*
X-31609568Y18110100D01*
X-31638383Y18110100D01*
X-31644379Y18109341D01*
X-31651483Y18108782D01*
X-31696199Y18107378D01*
X-31712647Y18102598D01*
X-31712653Y18102597D01*
X-31735926Y18097776D01*
X-31752932Y18095629D01*
X-31794533Y18079157D01*
X-31801261Y18076853D01*
X-31844226Y18064372D01*
X-31858983Y18055644D01*
X-31880307Y18045197D01*
X-31896254Y18038884D01*
X-31932452Y18012583D01*
X-31938393Y18008680D01*
X-31976907Y17985905D01*
X-31989028Y17973782D01*
X-32007089Y17958357D01*
X-32020962Y17948279D01*
X-32049493Y17913789D01*
X-32054264Y17908546D01*
X-32671961Y17290849D01*
X-32685032Y17280381D01*
X-32684637Y17279903D01*
X-32691978Y17273828D01*
X-32691983Y17273826D01*
X-32738170Y17224641D01*
X-32758547Y17204265D01*
X-32762247Y17199493D01*
X-32766880Y17194067D01*
X-32797504Y17161458D01*
X-32805763Y17146432D01*
X-32818805Y17126578D01*
X-32824987Y17118610D01*
X-32887417Y17071239D01*
X-32965171Y17061428D01*
X-33037413Y17091808D01*
X-33040648Y17094390D01*
X-33059064Y17109504D01*
X-33233621Y17202807D01*
X-33423024Y17260261D01*
X-33620000Y17279662D01*
X-33816975Y17260261D01*
X-34006378Y17202807D01*
X-34180934Y17109504D01*
X-34180937Y17109502D01*
X-34215560Y17081086D01*
X-33774621Y16640147D01*
X-33858045Y16597641D01*
X-33947641Y16508045D01*
X-33990147Y16424621D01*
X-34431086Y16865560D01*
X-34459502Y16830937D01*
X-34459504Y16830934D01*
X-34552807Y16656378D01*
X-34610261Y16466975D01*
X-34629661Y16269999D01*
X-34610261Y16073024D01*
X-34552807Y15883621D01*
X-34459501Y15709060D01*
X-34431086Y15674438D01*
X-33990147Y16115377D01*
X-33947641Y16031955D01*
X-33858045Y15942359D01*
X-33774620Y15899852D01*
X-34215560Y15458912D01*
X-34215560Y15458910D01*
X-34180943Y15430500D01*
X-34006378Y15337192D01*
X-33816975Y15279738D01*
X-33620000Y15260338D01*
X-33423024Y15279738D01*
X-33298127Y15317625D01*
X-33219798Y15320189D01*
X-33150682Y15283245D01*
X-33109297Y15216693D01*
X-33106733Y15138364D01*
X-33143677Y15069248D01*
X-33147092Y15065718D01*
X-33251935Y14960875D01*
X-33319804Y14921692D01*
X-33398171Y14921692D01*
X-33409345Y14924686D01*
X-33409344Y14924686D01*
X-33426291Y14926168D01*
X-33620000Y14943116D01*
X-33830655Y14924686D01*
X-34034910Y14869956D01*
X-34226558Y14780589D01*
X-34399776Y14659301D01*
X-34549301Y14509776D01*
X-34670589Y14336558D01*
X-34759956Y14144910D01*
X-34814686Y13940655D01*
X-34833116Y13730000D01*
X-49694700Y13730000D01*
X-49694700Y18000000D01*
X-46018446Y18000000D01*
X-45997926Y17817879D01*
X-45951369Y17684828D01*
X-45937395Y17644892D01*
X-45937392Y17644886D01*
X-45839888Y17489708D01*
X-45710291Y17360111D01*
X-45555113Y17262607D01*
X-45555107Y17262604D01*
X-45436099Y17220962D01*
X-45382121Y17202074D01*
X-45200000Y17181554D01*
X-45017879Y17202074D01*
X-44844892Y17262604D01*
X-44844886Y17262607D01*
X-44689708Y17360111D01*
X-44560111Y17489708D01*
X-44462607Y17644886D01*
X-44462605Y17644890D01*
X-44402073Y17817879D01*
X-44400182Y17826168D01*
X-44398552Y17825795D01*
X-44373603Y17889352D01*
X-44358849Y17906496D01*
X-40270590Y21994756D01*
X-40202719Y22033941D01*
X-40163534Y22039100D01*
X-33820468Y22039100D01*
X-33744768Y22018816D01*
X-33739919Y22015894D01*
X-33655113Y21962607D01*
X-33655107Y21962604D01*
X-33528676Y21918364D01*
X-33482121Y21902074D01*
X-33300000Y21881554D01*
X-33117879Y21902074D01*
X-32944892Y21962604D01*
X-32944886Y21962607D01*
X-32789708Y22060111D01*
X-32660111Y22189708D01*
X-32562607Y22344886D01*
X-32562604Y22344892D01*
X-32502074Y22517879D01*
X-32481554Y22699999D01*
X-32481554Y22700000D01*
X-32502074Y22882120D01*
X-32562604Y23055107D01*
X-32562607Y23055113D01*
X-32660111Y23210291D01*
X-32789708Y23339888D01*
X-32944886Y23437392D01*
X-32944892Y23437395D01*
X-33009817Y23460113D01*
X-33117879Y23497926D01*
X-33300000Y23518446D01*
X-33482121Y23497926D01*
X-33655110Y23437394D01*
X-33655113Y23437392D01*
X-33739919Y23384106D01*
X-33814808Y23361006D01*
X-33820468Y23360900D01*
X-40477732Y23360900D01*
X-40482304Y23361038D01*
X-40486724Y23361305D01*
X-40540197Y23364540D01*
X-40592874Y23354885D01*
X-40597254Y23354083D01*
X-40601747Y23353398D01*
X-40659325Y23346408D01*
X-40665328Y23344130D01*
X-40691733Y23336768D01*
X-40698064Y23335609D01*
X-40750972Y23311796D01*
X-40755143Y23310068D01*
X-40809391Y23289496D01*
X-40809760Y23289241D01*
X-40814680Y23285845D01*
X-40838562Y23272376D01*
X-40842937Y23270406D01*
X-40844420Y23269739D01*
X-40890067Y23233976D01*
X-40893726Y23231282D01*
X-40941477Y23198324D01*
X-40979953Y23154891D01*
X-40983045Y23151607D01*
X-45293503Y18841148D01*
X-45361372Y18801965D01*
X-45379215Y18798589D01*
X-45382117Y18797926D01*
X-45382121Y18797926D01*
X-45555110Y18737394D01*
X-45710293Y18639887D01*
X-45839887Y18510293D01*
X-45937394Y18355110D01*
X-45997926Y18182121D01*
X-46018446Y18000000D01*
X-49694700Y18000000D01*
X-49694700Y22840000D01*
X-45813498Y22840000D01*
X-45793543Y22611913D01*
X-45734284Y22390757D01*
X-45637523Y22183251D01*
X-45637520Y22183247D01*
X-45637518Y22183243D01*
X-45506197Y21995699D01*
X-45344300Y21833802D01*
X-45156756Y21702481D01*
X-45156747Y21702476D01*
X-44949251Y21605719D01*
X-44949246Y21605717D01*
X-44949243Y21605716D01*
X-44728087Y21546457D01*
X-44728083Y21546456D01*
X-44728087Y21546456D01*
X-44500000Y21526502D01*
X-44271914Y21546456D01*
X-44052519Y21605244D01*
X-44050757Y21605716D01*
X-44050755Y21605716D01*
X-44050748Y21605719D01*
X-43843252Y21702476D01*
X-43843243Y21702481D01*
X-43655699Y21833802D01*
X-43493802Y21995699D01*
X-43362481Y22183243D01*
X-43362476Y22183252D01*
X-43265719Y22390748D01*
X-43265716Y22390758D01*
X-43206456Y22611914D01*
X-43186502Y22840000D01*
X-43206456Y23068085D01*
X-43244561Y23210293D01*
X-43265716Y23289243D01*
X-43265717Y23289246D01*
X-43265719Y23289251D01*
X-43362476Y23496747D01*
X-43362481Y23496756D01*
X-43493802Y23684300D01*
X-43655699Y23846197D01*
X-43843251Y23977523D01*
X-43845606Y23978883D01*
X-43846571Y23979848D01*
X-43848666Y23981315D01*
X-43848407Y23981684D01*
X-43901023Y24034298D01*
X-43921308Y24109998D01*
X-43901025Y24185698D01*
X-43848408Y24238316D01*
X-43848666Y24238685D01*
X-43846577Y24240147D01*
X-43845610Y24241115D01*
X-43845606Y24241117D01*
X-43843251Y24242476D01*
X-43655699Y24373802D01*
X-43493802Y24535699D01*
X-43362481Y24723243D01*
X-43362476Y24723252D01*
X-43265719Y24930748D01*
X-43265716Y24930758D01*
X-43206456Y25151914D01*
X-43186502Y25380000D01*
X-43206456Y25608085D01*
X-43233958Y25710723D01*
X-43265716Y25829243D01*
X-43265717Y25829246D01*
X-43265719Y25829251D01*
X-43362476Y26036747D01*
X-43362481Y26036756D01*
X-43493802Y26224300D01*
X-43655699Y26386197D01*
X-43818226Y26500000D01*
X-27318446Y26500000D01*
X-27297926Y26317879D01*
X-27237394Y26144890D01*
X-27184103Y26060078D01*
X-27161005Y25985194D01*
X-27160900Y25979585D01*
X-27160900Y23233984D01*
X-27160900Y20522268D01*
X-27161038Y20517696D01*
X-27164540Y20459803D01*
X-27154083Y20402743D01*
X-27153397Y20398246D01*
X-27146408Y20340675D01*
X-27144127Y20334661D01*
X-27136768Y20308266D01*
X-27135609Y20301936D01*
X-27111801Y20249039D01*
X-27110064Y20244843D01*
X-27089496Y20190609D01*
X-27089493Y20190605D01*
X-27085841Y20185314D01*
X-27072375Y20161439D01*
X-27069739Y20155580D01*
X-27069738Y20155578D01*
X-27060456Y20143731D01*
X-27033965Y20109918D01*
X-27031281Y20106270D01*
X-26998324Y20058523D01*
X-26968389Y20032003D01*
X-26954914Y20020065D01*
X-26951583Y20016930D01*
X-26841150Y19906495D01*
X-26801965Y19838625D01*
X-26798590Y19820788D01*
X-26797926Y19817880D01*
X-26797926Y19817879D01*
X-26793385Y19804903D01*
X-26737395Y19644892D01*
X-26737392Y19644886D01*
X-26639888Y19489708D01*
X-26510291Y19360111D01*
X-26355113Y19262607D01*
X-26355107Y19262604D01*
X-26228676Y19218364D01*
X-26182121Y19202074D01*
X-26000000Y19181554D01*
X-25817879Y19202074D01*
X-25644892Y19262604D01*
X-25644886Y19262607D01*
X-25560081Y19315894D01*
X-25485192Y19338994D01*
X-25479532Y19339100D01*
X-13522268Y19339100D01*
X-13517696Y19338962D01*
X-13459803Y19335460D01*
X-13459798Y19335460D01*
X-13402756Y19345913D01*
X-13398237Y19346601D01*
X-13340674Y19353592D01*
X-13340665Y19353594D01*
X-13334648Y19355876D01*
X-13308277Y19363228D01*
X-13301941Y19364389D01*
X-13301933Y19364392D01*
X-13249062Y19388186D01*
X-13244841Y19389935D01*
X-13190609Y19410503D01*
X-13185303Y19414166D01*
X-13161449Y19427619D01*
X-13155581Y19430260D01*
X-13109934Y19466021D01*
X-13106252Y19468729D01*
X-13058523Y19501675D01*
X-13020056Y19545094D01*
X-13016922Y19548423D01*
X-9906496Y22658849D01*
X-9838625Y22698034D01*
X-9820794Y22701408D01*
X-9817880Y22702073D01*
X-9644892Y22762604D01*
X-9644886Y22762607D01*
X-9489708Y22860111D01*
X-9360111Y22989708D01*
X-9262607Y23144886D01*
X-9262604Y23144892D01*
X-9202074Y23317877D01*
X-9202073Y23317881D01*
X-9196759Y23365051D01*
X-9168127Y23438004D01*
X-9106855Y23486867D01*
X-9046311Y23499500D01*
X-612392Y23499500D01*
X-536692Y23479216D01*
X-517611Y23464575D01*
X-516942Y23465415D01*
X-510292Y23460112D01*
X-355113Y23362607D01*
X-355107Y23362604D01*
X-228676Y23318364D01*
X-182121Y23302074D01*
X0Y23281554D01*
X182121Y23302074D01*
X228676Y23318364D01*
X355107Y23362604D01*
X355113Y23362607D01*
X510291Y23460111D01*
X639888Y23589708D01*
X737392Y23744886D01*
X737395Y23744892D01*
X772843Y23846197D01*
X797926Y23917879D01*
X818446Y24100000D01*
X797926Y24282121D01*
X737394Y24455110D01*
X639887Y24610293D01*
X510293Y24739887D01*
X355110Y24837394D01*
X182121Y24897926D01*
X0Y24918446D01*
X-182121Y24897926D01*
X-355107Y24837395D01*
X-355110Y24837394D01*
X-357393Y24836295D01*
X-359863Y24835731D01*
X-363136Y24834586D01*
X-363265Y24834954D01*
X-423086Y24821300D01*
X-10717332Y24821300D01*
X-10721904Y24821438D01*
X-10726324Y24821705D01*
X-10779797Y24824940D01*
X-10832474Y24815285D01*
X-10836854Y24814483D01*
X-10841347Y24813798D01*
X-10898925Y24806808D01*
X-10904928Y24804530D01*
X-10931333Y24797168D01*
X-10937664Y24796009D01*
X-10990572Y24772196D01*
X-10994743Y24770468D01*
X-11048991Y24749896D01*
X-11054280Y24746245D01*
X-11078162Y24732776D01*
X-11082537Y24730806D01*
X-11084020Y24730139D01*
X-11129667Y24694376D01*
X-11133326Y24691682D01*
X-11181077Y24658724D01*
X-11219553Y24615291D01*
X-11222645Y24612007D01*
X-12766566Y23068087D01*
X-14229409Y21605244D01*
X-14297280Y21566059D01*
X-14336465Y21560900D01*
X-25179532Y21560900D01*
X-25255232Y21581184D01*
X-25260081Y21584106D01*
X-25344886Y21637392D01*
X-25344892Y21637395D01*
X-25384828Y21651369D01*
X-25517879Y21697926D01*
X-25700000Y21718446D01*
X-25700000Y21718445D01*
X-25704651Y21718970D01*
X-25777604Y21747602D01*
X-25826467Y21808874D01*
X-25839100Y21869418D01*
X-25839100Y25979532D01*
X-25818816Y26055232D01*
X-25815894Y26060081D01*
X-25762607Y26144886D01*
X-25762604Y26144892D01*
X-25702074Y26317879D01*
X-25681554Y26499999D01*
X-25681554Y26500000D01*
X-25702074Y26682120D01*
X-25762604Y26855107D01*
X-25762607Y26855113D01*
X-25860111Y27010291D01*
X-25989708Y27139888D01*
X-26144886Y27237392D01*
X-26144892Y27237395D01*
X-26218762Y27263243D01*
X-26317879Y27297926D01*
X-26500000Y27318446D01*
X-26682121Y27297926D01*
X-26855110Y27237394D01*
X-27010293Y27139887D01*
X-27139887Y27010293D01*
X-27237394Y26855110D01*
X-27297926Y26682121D01*
X-27318446Y26500000D01*
X-43818226Y26500000D01*
X-43843251Y26517523D01*
X-43845606Y26518883D01*
X-43846571Y26519848D01*
X-43848666Y26521315D01*
X-43848407Y26521684D01*
X-43901023Y26574298D01*
X-43921308Y26649998D01*
X-43901025Y26725698D01*
X-43848408Y26778316D01*
X-43848666Y26778685D01*
X-43846577Y26780147D01*
X-43845610Y26781115D01*
X-43845606Y26781117D01*
X-43843251Y26782476D01*
X-43655699Y26913802D01*
X-43493802Y27075699D01*
X-43362481Y27263243D01*
X-43362476Y27263252D01*
X-43265719Y27470748D01*
X-43265716Y27470758D01*
X-43206456Y27691914D01*
X-43186502Y27920000D01*
X-43206456Y28148085D01*
X-43244454Y28289893D01*
X-43265716Y28369243D01*
X-43265717Y28369246D01*
X-43265719Y28369251D01*
X-43362476Y28576747D01*
X-43362481Y28576756D01*
X-43493802Y28764300D01*
X-43655699Y28926197D01*
X-43843243Y29057518D01*
X-43843247Y29057520D01*
X-43843251Y29057523D01*
X-44050757Y29154284D01*
X-44271913Y29213543D01*
X-44271912Y29213543D01*
X-44290261Y29215148D01*
X-44500000Y29233498D01*
X-44728087Y29213543D01*
X-44949243Y29154284D01*
X-45156749Y29057523D01*
X-45344300Y28926198D01*
X-45506198Y28764300D01*
X-45637523Y28576749D01*
X-45734284Y28369243D01*
X-45793543Y28148087D01*
X-45813498Y27920000D01*
X-45793543Y27691913D01*
X-45734284Y27470757D01*
X-45637523Y27263251D01*
X-45637520Y27263247D01*
X-45637518Y27263243D01*
X-45506197Y27075699D01*
X-45344300Y26913802D01*
X-45156751Y26782478D01*
X-45154400Y26781121D01*
X-45153435Y26780156D01*
X-45151334Y26778685D01*
X-45151593Y26778314D01*
X-45098980Y26725709D01*
X-45078691Y26650010D01*
X-45098970Y26574309D01*
X-45151590Y26521681D01*
X-45151334Y26521315D01*
X-45153409Y26519861D01*
X-45154382Y26518889D01*
X-45154400Y26518879D01*
X-45156741Y26517526D01*
X-45156749Y26517523D01*
X-45344300Y26386198D01*
X-45506198Y26224300D01*
X-45637523Y26036749D01*
X-45734284Y25829243D01*
X-45793543Y25608087D01*
X-45813498Y25380000D01*
X-45793543Y25151913D01*
X-45734284Y24930757D01*
X-45637523Y24723251D01*
X-45637520Y24723247D01*
X-45637518Y24723243D01*
X-45506197Y24535699D01*
X-45344300Y24373802D01*
X-45156751Y24242478D01*
X-45154400Y24241121D01*
X-45153435Y24240156D01*
X-45151334Y24238685D01*
X-45151593Y24238314D01*
X-45098980Y24185709D01*
X-45078691Y24110010D01*
X-45098970Y24034309D01*
X-45151590Y23981681D01*
X-45151334Y23981315D01*
X-45153409Y23979861D01*
X-45154382Y23978889D01*
X-45154400Y23978879D01*
X-45156741Y23977526D01*
X-45156749Y23977523D01*
X-45344300Y23846198D01*
X-45506198Y23684300D01*
X-45637523Y23496749D01*
X-45734284Y23289243D01*
X-45793543Y23068087D01*
X-45813498Y22840000D01*
X-49694700Y22840000D01*
X-49694700Y30419897D01*
X-15899121Y30419897D01*
X-15868618Y30142671D01*
X-15868616Y30142664D01*
X-15868616Y30142663D01*
X-15800145Y29880755D01*
X-15798075Y29872840D01*
X-15688996Y29616155D01*
X-15543705Y29378088D01*
X-15543702Y29378085D01*
X-15543702Y29378084D01*
X-15543699Y29378080D01*
X-15365304Y29163715D01*
X-15365302Y29163713D01*
X-15365301Y29163712D01*
X-15157584Y28977597D01*
X-14924982Y28823709D01*
X-14672452Y28705328D01*
X-14660067Y28701602D01*
X-14405383Y28624979D01*
X-14405378Y28624978D01*
X-14129450Y28584369D01*
X-14129446Y28584369D01*
X-13920372Y28584369D01*
X-13711844Y28599631D01*
X-13439612Y28660273D01*
X-13179133Y28759897D01*
X-13179116Y28759905D01*
X-12935909Y28896400D01*
X-12715154Y29066861D01*
X-12715153Y29066862D01*
X-12712447Y29069669D01*
X-8243116Y29069669D01*
X-8224686Y28859014D01*
X-8182508Y28701602D01*
X-8169955Y28654756D01*
X-8156069Y28624979D01*
X-8080589Y28463111D01*
X-7959301Y28289893D01*
X-7809776Y28140368D01*
X-7636558Y28019080D01*
X-7505857Y27958133D01*
X-7444911Y27929713D01*
X-7444912Y27929713D01*
X-7240654Y27874982D01*
X-7240655Y27874982D01*
X-7030000Y27856553D01*
X-6819345Y27874982D01*
X-6615087Y27929713D01*
X-6476364Y27994402D01*
X-6423442Y28019080D01*
X-6337286Y28079407D01*
X-6250222Y28140369D01*
X-6100700Y28289891D01*
X-5979412Y28463110D01*
X-5979411Y28463111D01*
X-5954733Y28516033D01*
X-5890044Y28654756D01*
X-5835313Y28859014D01*
X-5816884Y29069668D01*
X-5816884Y29069669D01*
X-5473116Y29069669D01*
X-5454686Y28859014D01*
X-5412508Y28701602D01*
X-5399955Y28654756D01*
X-5386069Y28624979D01*
X-5310589Y28463111D01*
X-5189301Y28289893D01*
X-5039776Y28140368D01*
X-4866558Y28019080D01*
X-4735857Y27958133D01*
X-4674911Y27929713D01*
X-4674912Y27929713D01*
X-4470654Y27874982D01*
X-4470655Y27874982D01*
X-4260000Y27856553D01*
X-4049345Y27874982D01*
X-3845087Y27929713D01*
X-3706364Y27994402D01*
X-3653442Y28019080D01*
X-3567286Y28079407D01*
X-3480222Y28140369D01*
X-3330700Y28289891D01*
X-3209412Y28463110D01*
X-3209411Y28463111D01*
X-3184733Y28516033D01*
X-3120044Y28654756D01*
X-3065313Y28859014D01*
X-3046884Y29069669D01*
X-2703116Y29069669D01*
X-2684686Y28859014D01*
X-2642508Y28701602D01*
X-2629955Y28654756D01*
X-2616069Y28624979D01*
X-2540589Y28463111D01*
X-2419301Y28289893D01*
X-2269776Y28140368D01*
X-2096558Y28019080D01*
X-1965857Y27958133D01*
X-1904911Y27929713D01*
X-1904912Y27929713D01*
X-1700654Y27874982D01*
X-1700655Y27874982D01*
X-1506946Y27858035D01*
X-1490000Y27856553D01*
X-1489999Y27856553D01*
X-1279345Y27874982D01*
X-1075087Y27929713D01*
X-936364Y27994402D01*
X-883442Y28019080D01*
X-797286Y28079407D01*
X-710222Y28140369D01*
X-560700Y28289891D01*
X-439412Y28463110D01*
X-439411Y28463111D01*
X-414733Y28516033D01*
X-350044Y28654756D01*
X-295313Y28859014D01*
X-276884Y29069669D01*
X66884Y29069669D01*
X85313Y28859014D01*
X140044Y28654756D01*
X204733Y28516033D01*
X229411Y28463111D01*
X229412Y28463110D01*
X350700Y28289891D01*
X500222Y28140369D01*
X587286Y28079407D01*
X673442Y28019080D01*
X743194Y27986553D01*
X865088Y27929713D01*
X865087Y27929713D01*
X1069345Y27874982D01*
X1069344Y27874982D01*
X1280000Y27856553D01*
X1490654Y27874982D01*
X1694912Y27929713D01*
X1787393Y27972839D01*
X1886558Y28019080D01*
X2059776Y28140368D01*
X2209301Y28289893D01*
X2330589Y28463111D01*
X2406069Y28624979D01*
X2419955Y28654756D01*
X2432508Y28701602D01*
X2474686Y28859014D01*
X2493116Y29069669D01*
X2836884Y29069669D01*
X2855313Y28859014D01*
X2910044Y28654756D01*
X2974733Y28516033D01*
X2999411Y28463111D01*
X2999412Y28463110D01*
X3120700Y28289891D01*
X3270222Y28140369D01*
X3357286Y28079407D01*
X3443442Y28019080D01*
X3513194Y27986553D01*
X3635088Y27929713D01*
X3635087Y27929713D01*
X3839345Y27874982D01*
X3839344Y27874982D01*
X4049999Y27856553D01*
X4050000Y27856553D01*
X4068428Y27858165D01*
X4260654Y27874982D01*
X4464912Y27929713D01*
X4557393Y27972839D01*
X4656558Y28019080D01*
X4829776Y28140368D01*
X4979301Y28289893D01*
X5100589Y28463111D01*
X5176069Y28624979D01*
X5189955Y28654756D01*
X5202508Y28701602D01*
X5244686Y28859014D01*
X5263116Y29069669D01*
X5244686Y29280324D01*
X5189956Y29484579D01*
X5100589Y29676227D01*
X4979301Y29849445D01*
X4829776Y29998970D01*
X4656558Y30120258D01*
X4464910Y30209625D01*
X4260655Y30264355D01*
X4050000Y30282785D01*
X3839345Y30264355D01*
X3635090Y30209625D01*
X3635089Y30209624D01*
X3635087Y30209624D01*
X3595528Y30191176D01*
X3443442Y30120258D01*
X3270224Y29998970D01*
X3120699Y29849445D01*
X2999411Y29676227D01*
X2971399Y29616155D01*
X2910044Y29484581D01*
X2855313Y29280323D01*
X2836884Y29069669D01*
X2493116Y29069669D01*
X2474686Y29280324D01*
X2419956Y29484579D01*
X2330589Y29676227D01*
X2209301Y29849445D01*
X2059776Y29998970D01*
X1886558Y30120258D01*
X1694910Y30209625D01*
X1490655Y30264355D01*
X1280000Y30282785D01*
X1069345Y30264355D01*
X865090Y30209625D01*
X865089Y30209624D01*
X865087Y30209624D01*
X825528Y30191176D01*
X673442Y30120258D01*
X500224Y29998970D01*
X350699Y29849445D01*
X229411Y29676227D01*
X201399Y29616155D01*
X140044Y29484581D01*
X85313Y29280323D01*
X66884Y29069669D01*
X-276884Y29069669D01*
X-295313Y29280323D01*
X-350044Y29484581D01*
X-411399Y29616155D01*
X-439411Y29676227D01*
X-560699Y29849445D01*
X-710224Y29998970D01*
X-883442Y30120258D01*
X-1075088Y30209624D01*
X-1075089Y30209624D01*
X-1075090Y30209625D01*
X-1279345Y30264355D01*
X-1279344Y30264355D01*
X-1297774Y30265967D01*
X-1490000Y30282785D01*
X-1700655Y30264355D01*
X-1904910Y30209625D01*
X-2096558Y30120258D01*
X-2269776Y29998970D01*
X-2419301Y29849445D01*
X-2540589Y29676227D01*
X-2629956Y29484579D01*
X-2684686Y29280324D01*
X-2703116Y29069669D01*
X-3046884Y29069669D01*
X-3065313Y29280323D01*
X-3120044Y29484581D01*
X-3181399Y29616155D01*
X-3209411Y29676227D01*
X-3330699Y29849445D01*
X-3480224Y29998970D01*
X-3653442Y30120258D01*
X-3845088Y30209624D01*
X-3845089Y30209624D01*
X-3845090Y30209625D01*
X-4049345Y30264355D01*
X-4049344Y30264355D01*
X-4066291Y30265837D01*
X-4260000Y30282785D01*
X-4470655Y30264355D01*
X-4674910Y30209625D01*
X-4866558Y30120258D01*
X-5039776Y29998970D01*
X-5189301Y29849445D01*
X-5310589Y29676227D01*
X-5399956Y29484579D01*
X-5454686Y29280324D01*
X-5473116Y29069669D01*
X-5816884Y29069669D01*
X-5835313Y29280323D01*
X-5890044Y29484581D01*
X-5951399Y29616155D01*
X-5979411Y29676227D01*
X-6100699Y29849445D01*
X-6250224Y29998970D01*
X-6423442Y30120258D01*
X-6615088Y30209624D01*
X-6615089Y30209624D01*
X-6615090Y30209625D01*
X-6819345Y30264355D01*
X-6819344Y30264355D01*
X-6836291Y30265837D01*
X-7030000Y30282785D01*
X-7240655Y30264355D01*
X-7444910Y30209625D01*
X-7636558Y30120258D01*
X-7809776Y29998970D01*
X-7959301Y29849445D01*
X-8080589Y29676227D01*
X-8169956Y29484579D01*
X-8224686Y29280324D01*
X-8243116Y29069669D01*
X-12712447Y29069669D01*
X-12521576Y29267643D01*
X-12521574Y29267646D01*
X-12359302Y29494460D01*
X-12359301Y29494463D01*
X-12231774Y29742502D01*
X-12141723Y30006463D01*
X-12091064Y30280727D01*
X-12085978Y30419897D01*
X9100879Y30419897D01*
X9131381Y30142674D01*
X9131383Y30142663D01*
X9201922Y29872846D01*
X9201925Y29872837D01*
X9311002Y29616158D01*
X9456297Y29378084D01*
X9456300Y29378080D01*
X9634695Y29163715D01*
X9753213Y29057523D01*
X9842416Y28977597D01*
X9842418Y28977595D01*
X9842419Y28977595D01*
X10075017Y28823709D01*
X10210293Y28760294D01*
X10327548Y28705328D01*
X10327550Y28705327D01*
X10327551Y28705327D01*
X10594616Y28624979D01*
X10594621Y28624978D01*
X10649807Y28616856D01*
X10870550Y28584369D01*
X10870554Y28584369D01*
X11079628Y28584369D01*
X11288156Y28599631D01*
X11342601Y28611759D01*
X11560387Y28660273D01*
X11820866Y28759897D01*
X11820883Y28759905D01*
X12064090Y28896400D01*
X12064095Y28896403D01*
X12284843Y29066859D01*
X12478420Y29267640D01*
X12478423Y29267643D01*
X12478425Y29267646D01*
X12640697Y29494460D01*
X12640698Y29494463D01*
X12640701Y29494467D01*
X12768226Y29742504D01*
X12858277Y30006466D01*
X12908935Y30280727D01*
X12914021Y30419897D01*
X17100879Y30419897D01*
X17131381Y30142674D01*
X17131383Y30142663D01*
X17201922Y29872846D01*
X17201925Y29872837D01*
X17311002Y29616158D01*
X17456297Y29378084D01*
X17456300Y29378080D01*
X17634695Y29163715D01*
X17753213Y29057523D01*
X17842416Y28977597D01*
X17842418Y28977595D01*
X17842419Y28977595D01*
X18075017Y28823709D01*
X18210293Y28760294D01*
X18327548Y28705328D01*
X18327550Y28705327D01*
X18327551Y28705327D01*
X18594616Y28624979D01*
X18594621Y28624978D01*
X18649807Y28616856D01*
X18870550Y28584369D01*
X18870554Y28584369D01*
X19079628Y28584369D01*
X19288156Y28599631D01*
X19342601Y28611759D01*
X19560387Y28660273D01*
X19820866Y28759897D01*
X19820883Y28759905D01*
X20064090Y28896400D01*
X20064095Y28896403D01*
X20284843Y29066859D01*
X20287551Y29069668D01*
X24960338Y29069668D01*
X24979738Y28872693D01*
X25037192Y28683290D01*
X25130495Y28508734D01*
X25158912Y28474107D01*
X25599852Y28915047D01*
X25642359Y28831624D01*
X25731955Y28742028D01*
X25815378Y28699521D01*
X25374438Y28258581D01*
X25409065Y28230164D01*
X25583621Y28136861D01*
X25773024Y28079407D01*
X25970000Y28060007D01*
X26166975Y28079407D01*
X26356378Y28136861D01*
X26530943Y28230169D01*
X26565560Y28258579D01*
X26565560Y28258581D01*
X26124621Y28699521D01*
X26208045Y28742028D01*
X26297641Y28831624D01*
X26340147Y28915046D01*
X26781086Y28474107D01*
X26781087Y28474107D01*
X26809501Y28508729D01*
X26902807Y28683290D01*
X26960261Y28872693D01*
X26979661Y29069668D01*
X27526884Y29069668D01*
X27545313Y28859014D01*
X27600044Y28654756D01*
X27664733Y28516033D01*
X27689411Y28463111D01*
X27689412Y28463110D01*
X27810700Y28289891D01*
X27960222Y28140369D01*
X28047286Y28079407D01*
X28133442Y28019080D01*
X28203194Y27986553D01*
X28325088Y27929713D01*
X28325087Y27929713D01*
X28529345Y27874982D01*
X28529344Y27874982D01*
X28740000Y27856553D01*
X28950654Y27874982D01*
X29154912Y27929713D01*
X29247393Y27972839D01*
X29346558Y28019080D01*
X29519776Y28140368D01*
X29669301Y28289893D01*
X29790589Y28463111D01*
X29866069Y28624979D01*
X29879955Y28654756D01*
X29892508Y28701602D01*
X29934686Y28859014D01*
X29953116Y29069669D01*
X30296884Y29069669D01*
X30315313Y28859014D01*
X30370044Y28654756D01*
X30434733Y28516033D01*
X30459411Y28463111D01*
X30459412Y28463110D01*
X30580700Y28289891D01*
X30730222Y28140369D01*
X30817286Y28079407D01*
X30903442Y28019080D01*
X30973194Y27986553D01*
X31095088Y27929713D01*
X31095087Y27929713D01*
X31299345Y27874982D01*
X31299344Y27874982D01*
X31509999Y27856553D01*
X31510000Y27856553D01*
X31615327Y27865768D01*
X31720656Y27874983D01*
X31731828Y27877976D01*
X31810199Y27877974D01*
X31878065Y27838790D01*
X33045556Y26671300D01*
X33084741Y26603429D01*
X33089900Y26564244D01*
X33089899Y22184067D01*
X33088063Y22167419D01*
X33088678Y22167361D01*
X33087781Y22157869D01*
X33089900Y22090431D01*
X33089900Y22061619D01*
X33089901Y22061601D01*
X33090658Y22055604D01*
X33091217Y22048498D01*
X33092621Y22003801D01*
X33092622Y22003796D01*
X33097406Y21987329D01*
X33102221Y21964078D01*
X33104370Y21947070D01*
X33104370Y21947067D01*
X33115630Y21918628D01*
X33120842Y21905465D01*
X33123149Y21898727D01*
X33135627Y21855775D01*
X33144357Y21841013D01*
X33154799Y21819697D01*
X33161113Y21803752D01*
X33161117Y21803743D01*
X33187412Y21767550D01*
X33191327Y21761590D01*
X33214096Y21723091D01*
X33226219Y21710968D01*
X33241638Y21692915D01*
X33251722Y21679036D01*
X33286189Y21650523D01*
X33291466Y21645721D01*
X38596236Y16340950D01*
X38635421Y16273079D01*
X38635421Y16194709D01*
X38606214Y16137847D01*
X38497557Y16005449D01*
X38485632Y15990918D01*
X38485630Y15990915D01*
X38387342Y15807035D01*
X38387340Y15807029D01*
X38326814Y15607501D01*
X38326814Y15607500D01*
X38306378Y15400000D01*
X38326814Y15192499D01*
X38326814Y15192498D01*
X38387340Y14992970D01*
X38387342Y14992964D01*
X38485630Y14809084D01*
X38485632Y14809081D01*
X38617906Y14647906D01*
X38779081Y14515632D01*
X38779084Y14515630D01*
X38962964Y14417342D01*
X38962970Y14417340D01*
X39162499Y14356814D01*
X39370000Y14336378D01*
X39577500Y14356814D01*
X39577501Y14356814D01*
X39777029Y14417340D01*
X39777035Y14417342D01*
X39960915Y14515630D01*
X39960918Y14515632D01*
X40122094Y14647906D01*
X40254369Y14809083D01*
X40304655Y14903161D01*
X40352657Y14992964D01*
X40352659Y14992970D01*
X40355393Y15001981D01*
X40413185Y15192498D01*
X40433622Y15400000D01*
X40413185Y15607502D01*
X40352659Y15807031D01*
X40254369Y15990917D01*
X40122094Y16152094D01*
X40035451Y16223199D01*
X39989804Y16286900D01*
X39980100Y16340231D01*
X39980100Y16345934D01*
X39981937Y16362585D01*
X39981323Y16362644D01*
X39982218Y16372125D01*
X39982219Y16372128D01*
X39980100Y16439567D01*
X39980100Y16468383D01*
X39979341Y16474379D01*
X39978782Y16481483D01*
X39977378Y16526199D01*
X39972597Y16542653D01*
X39967776Y16565930D01*
X39965629Y16582930D01*
X39965628Y16582934D01*
X39963764Y16587641D01*
X39949153Y16624541D01*
X39946852Y16631263D01*
X39934372Y16674225D01*
X39925647Y16688976D01*
X39915198Y16710304D01*
X39908884Y16726254D01*
X39882573Y16762467D01*
X39878683Y16768388D01*
X39855905Y16806906D01*
X39855904Y16806906D01*
X39851054Y16815109D01*
X39853780Y16816721D01*
X39829890Y16873482D01*
X39839678Y16951239D01*
X39887033Y17013684D01*
X39908509Y17027618D01*
X39916848Y17032075D01*
X39960917Y17055631D01*
X40122094Y17187906D01*
X40254369Y17349083D01*
X40304655Y17443161D01*
X40352657Y17532964D01*
X40352659Y17532970D01*
X40386610Y17644890D01*
X40413185Y17732498D01*
X40433622Y17940000D01*
X40413185Y18147502D01*
X40352659Y18347031D01*
X40254369Y18530917D01*
X40122094Y18692094D01*
X39960917Y18824369D01*
X39777031Y18922659D01*
X39577502Y18983185D01*
X39370000Y19003622D01*
X39162498Y18983185D01*
X38962969Y18922659D01*
X38835974Y18854778D01*
X38786458Y18828311D01*
X38710135Y18810515D01*
X38635139Y18833265D01*
X38608036Y18854774D01*
X34934442Y22528369D01*
X34895259Y22596238D01*
X34890100Y22635423D01*
X34890100Y27942746D01*
X34910384Y28018446D01*
X34954658Y28066763D01*
X35059776Y28140368D01*
X35209301Y28289893D01*
X35330589Y28463111D01*
X35406069Y28624979D01*
X35419955Y28654756D01*
X35432508Y28701602D01*
X35474686Y28859014D01*
X35493116Y29069668D01*
X35836884Y29069668D01*
X35855313Y28859014D01*
X35910044Y28654756D01*
X35974733Y28516033D01*
X35999411Y28463111D01*
X35999412Y28463110D01*
X36120700Y28289891D01*
X36270222Y28140369D01*
X36357286Y28079407D01*
X36443442Y28019080D01*
X36513194Y27986553D01*
X36635088Y27929713D01*
X36635087Y27929713D01*
X36839345Y27874982D01*
X36839344Y27874982D01*
X37049999Y27856553D01*
X37050000Y27856553D01*
X37068428Y27858165D01*
X37260654Y27874982D01*
X37464912Y27929713D01*
X37557393Y27972839D01*
X37656558Y28019080D01*
X37829776Y28140368D01*
X37979301Y28289893D01*
X38100589Y28463111D01*
X38176069Y28624979D01*
X38189955Y28654756D01*
X38202508Y28701602D01*
X38244686Y28859014D01*
X38263116Y29069669D01*
X38244686Y29280324D01*
X38189956Y29484579D01*
X38100589Y29676227D01*
X37979301Y29849445D01*
X37829776Y29998970D01*
X37656558Y30120258D01*
X37464910Y30209625D01*
X37260655Y30264355D01*
X37050000Y30282785D01*
X36839345Y30264355D01*
X36635090Y30209625D01*
X36635089Y30209624D01*
X36635087Y30209624D01*
X36595528Y30191176D01*
X36443442Y30120258D01*
X36270224Y29998970D01*
X36120699Y29849445D01*
X35999411Y29676227D01*
X35971399Y29616155D01*
X35910044Y29484581D01*
X35855313Y29280323D01*
X35836884Y29069668D01*
X35493116Y29069668D01*
X35493116Y29069669D01*
X35474686Y29280324D01*
X35419956Y29484579D01*
X35330589Y29676227D01*
X35209301Y29849445D01*
X35059776Y29998970D01*
X34886558Y30120258D01*
X34694910Y30209625D01*
X34490655Y30264355D01*
X34280000Y30282785D01*
X34069345Y30264355D01*
X33865090Y30209625D01*
X33865089Y30209624D01*
X33865087Y30209624D01*
X33825528Y30191176D01*
X33673442Y30120258D01*
X33500224Y29998970D01*
X33350699Y29849445D01*
X33229411Y29676227D01*
X33201399Y29616155D01*
X33140044Y29484581D01*
X33085313Y29280323D01*
X33066884Y29069669D01*
X33085313Y28859014D01*
X33122762Y28719255D01*
X33122762Y28640885D01*
X33083577Y28573014D01*
X33015706Y28533829D01*
X32937336Y28533829D01*
X32869467Y28573012D01*
X32740875Y28701604D01*
X32701692Y28769473D01*
X32701692Y28847840D01*
X32704686Y28859014D01*
X32723116Y29069669D01*
X32704686Y29280324D01*
X32649956Y29484579D01*
X32560589Y29676227D01*
X32439301Y29849445D01*
X32289776Y29998970D01*
X32116558Y30120258D01*
X31924910Y30209625D01*
X31720655Y30264355D01*
X31510000Y30282785D01*
X31299345Y30264355D01*
X31095090Y30209625D01*
X31095089Y30209624D01*
X31095087Y30209624D01*
X31055528Y30191176D01*
X30903442Y30120258D01*
X30730224Y29998970D01*
X30580699Y29849445D01*
X30459411Y29676227D01*
X30431399Y29616155D01*
X30370044Y29484581D01*
X30315313Y29280323D01*
X30296884Y29069669D01*
X29953116Y29069669D01*
X29934686Y29280324D01*
X29879956Y29484579D01*
X29790589Y29676227D01*
X29669301Y29849445D01*
X29519776Y29998970D01*
X29346558Y30120258D01*
X29154910Y30209625D01*
X28950655Y30264355D01*
X28740000Y30282785D01*
X28529345Y30264355D01*
X28325090Y30209625D01*
X28325089Y30209624D01*
X28325087Y30209624D01*
X28285528Y30191176D01*
X28133442Y30120258D01*
X27960224Y29998970D01*
X27810699Y29849445D01*
X27689411Y29676227D01*
X27661399Y29616155D01*
X27600044Y29484581D01*
X27545313Y29280323D01*
X27526884Y29069668D01*
X26979661Y29069668D01*
X26960261Y29266644D01*
X26902807Y29456047D01*
X26809504Y29630603D01*
X26809502Y29630606D01*
X26781086Y29665229D01*
X26340147Y29224290D01*
X26297641Y29307714D01*
X26208045Y29397310D01*
X26124621Y29439816D01*
X26565561Y29880755D01*
X26530937Y29909171D01*
X26530934Y29909173D01*
X26356378Y30002476D01*
X26166975Y30059930D01*
X25970000Y30079331D01*
X25773024Y30059930D01*
X25583621Y30002476D01*
X25409060Y29909170D01*
X25374438Y29880756D01*
X25374438Y29880755D01*
X25815378Y29439816D01*
X25731955Y29397310D01*
X25642359Y29307714D01*
X25599851Y29224289D01*
X25158912Y29665229D01*
X25158910Y29665229D01*
X25130500Y29630612D01*
X25037192Y29456047D01*
X24979738Y29266644D01*
X24960338Y29069668D01*
X20287551Y29069668D01*
X20478420Y29267640D01*
X20478423Y29267643D01*
X20478425Y29267646D01*
X20640697Y29494460D01*
X20640698Y29494463D01*
X20640701Y29494467D01*
X20768226Y29742504D01*
X20858277Y30006466D01*
X20908935Y30280727D01*
X20914021Y30419897D01*
X42100879Y30419897D01*
X42131381Y30142674D01*
X42131383Y30142663D01*
X42201922Y29872846D01*
X42201925Y29872837D01*
X42311002Y29616158D01*
X42456297Y29378084D01*
X42456300Y29378080D01*
X42634695Y29163715D01*
X42753213Y29057523D01*
X42842416Y28977597D01*
X42842418Y28977595D01*
X42842419Y28977595D01*
X43075017Y28823709D01*
X43210293Y28760294D01*
X43327548Y28705328D01*
X43327550Y28705327D01*
X43327551Y28705327D01*
X43594616Y28624979D01*
X43594621Y28624978D01*
X43649807Y28616856D01*
X43870550Y28584369D01*
X43870554Y28584369D01*
X44079628Y28584369D01*
X44288156Y28599631D01*
X44342601Y28611759D01*
X44560387Y28660273D01*
X44820866Y28759897D01*
X44820883Y28759905D01*
X45064090Y28896400D01*
X45064095Y28896403D01*
X45284843Y29066859D01*
X45478420Y29267640D01*
X45478423Y29267643D01*
X45478425Y29267646D01*
X45640697Y29494460D01*
X45640698Y29494463D01*
X45640701Y29494467D01*
X45768226Y29742504D01*
X45858277Y30006466D01*
X45908935Y30280727D01*
X45919121Y30559441D01*
X45888618Y30836667D01*
X45818075Y31106498D01*
X45708996Y31363183D01*
X45563705Y31601250D01*
X45385301Y31815626D01*
X45177584Y32001741D01*
X44944982Y32155629D01*
X44692452Y32274010D01*
X44425378Y32354360D01*
X44149450Y32394969D01*
X43940372Y32394969D01*
X43731844Y32379707D01*
X43487429Y32325260D01*
X43459612Y32319064D01*
X43199133Y32219440D01*
X43199121Y32219434D01*
X43199120Y32219434D01*
X42955905Y32082935D01*
X42735157Y31912479D01*
X42735154Y31912476D01*
X42735153Y31912475D01*
X42541576Y31711694D01*
X42541574Y31711691D01*
X42379302Y31484877D01*
X42379301Y31484874D01*
X42251774Y31236835D01*
X42161723Y30972874D01*
X42111064Y30698610D01*
X42100879Y30419897D01*
X20914021Y30419897D01*
X20919121Y30559441D01*
X20888618Y30836667D01*
X20818075Y31106498D01*
X20708996Y31363183D01*
X20563705Y31601250D01*
X20385301Y31815626D01*
X20280343Y31909669D01*
X26141884Y31909669D01*
X26160313Y31699014D01*
X26215044Y31494756D01*
X26276399Y31363183D01*
X26304411Y31303111D01*
X26304412Y31303110D01*
X26425700Y31129891D01*
X26575222Y30980369D01*
X26585929Y30972872D01*
X26748442Y30859080D01*
X26818194Y30826553D01*
X26940088Y30769713D01*
X26940087Y30769713D01*
X27144345Y30714982D01*
X27144344Y30714982D01*
X27354999Y30696553D01*
X27355000Y30696553D01*
X27378523Y30698611D01*
X27565654Y30714982D01*
X27769912Y30769713D01*
X27862393Y30812839D01*
X27961558Y30859080D01*
X28134776Y30980368D01*
X28284301Y31129893D01*
X28405589Y31303111D01*
X28494956Y31494759D01*
X28549686Y31699014D01*
X28568116Y31909669D01*
X28911884Y31909669D01*
X28930313Y31699014D01*
X28985044Y31494756D01*
X29046399Y31363183D01*
X29074411Y31303111D01*
X29074412Y31303110D01*
X29195700Y31129891D01*
X29345222Y30980369D01*
X29355929Y30972872D01*
X29518442Y30859080D01*
X29588194Y30826553D01*
X29710088Y30769713D01*
X29710087Y30769713D01*
X29914345Y30714982D01*
X29914344Y30714982D01*
X30124999Y30696553D01*
X30125000Y30696553D01*
X30148523Y30698611D01*
X30335654Y30714982D01*
X30539912Y30769713D01*
X30632393Y30812839D01*
X30731558Y30859080D01*
X30904776Y30980368D01*
X31054301Y31129893D01*
X31175589Y31303111D01*
X31264956Y31494759D01*
X31319686Y31699014D01*
X31338116Y31909668D01*
X31681884Y31909668D01*
X31700313Y31699014D01*
X31755044Y31494756D01*
X31816399Y31363183D01*
X31844411Y31303111D01*
X31844412Y31303110D01*
X31965700Y31129891D01*
X32115222Y30980369D01*
X32125929Y30972872D01*
X32288442Y30859080D01*
X32358194Y30826553D01*
X32480088Y30769713D01*
X32480087Y30769713D01*
X32684345Y30714982D01*
X32684344Y30714982D01*
X32894999Y30696553D01*
X32895000Y30696553D01*
X32918523Y30698611D01*
X33105654Y30714982D01*
X33309912Y30769713D01*
X33402393Y30812839D01*
X33501558Y30859080D01*
X33674776Y30980368D01*
X33824301Y31129893D01*
X33945589Y31303111D01*
X34034956Y31494759D01*
X34089686Y31699014D01*
X34108116Y31909668D01*
X34451884Y31909668D01*
X34470313Y31699014D01*
X34525044Y31494756D01*
X34586399Y31363183D01*
X34614411Y31303111D01*
X34614412Y31303110D01*
X34735700Y31129891D01*
X34885222Y30980369D01*
X34895929Y30972872D01*
X35058442Y30859080D01*
X35128194Y30826553D01*
X35250088Y30769713D01*
X35250087Y30769713D01*
X35454345Y30714982D01*
X35454344Y30714982D01*
X35665000Y30696553D01*
X35875654Y30714982D01*
X36079912Y30769713D01*
X36172393Y30812839D01*
X36271558Y30859080D01*
X36444776Y30980368D01*
X36594301Y31129893D01*
X36715589Y31303111D01*
X36804956Y31494759D01*
X36859686Y31699014D01*
X36878116Y31909669D01*
X36859686Y32120324D01*
X36804956Y32324579D01*
X36715589Y32516227D01*
X36594301Y32689445D01*
X36444776Y32838970D01*
X36271558Y32960258D01*
X36079910Y33049625D01*
X35875655Y33104355D01*
X35665000Y33122785D01*
X35454345Y33104355D01*
X35250090Y33049625D01*
X35250089Y33049624D01*
X35250087Y33049624D01*
X35210528Y33031176D01*
X35058442Y32960258D01*
X34885224Y32838970D01*
X34735699Y32689445D01*
X34614411Y32516227D01*
X34568170Y32417062D01*
X34525044Y32324581D01*
X34470313Y32120323D01*
X34457900Y31978432D01*
X34452130Y31912475D01*
X34451884Y31909668D01*
X34108116Y31909668D01*
X34108116Y31909669D01*
X34089686Y32120324D01*
X34034956Y32324579D01*
X33945589Y32516227D01*
X33824301Y32689445D01*
X33674776Y32838970D01*
X33501558Y32960258D01*
X33309910Y33049625D01*
X33105655Y33104355D01*
X32895000Y33122785D01*
X32684345Y33104355D01*
X32480090Y33049625D01*
X32480089Y33049624D01*
X32480087Y33049624D01*
X32440528Y33031176D01*
X32288442Y32960258D01*
X32115224Y32838970D01*
X31965699Y32689445D01*
X31844411Y32516227D01*
X31798170Y32417062D01*
X31755044Y32324581D01*
X31700313Y32120323D01*
X31687900Y31978432D01*
X31682130Y31912475D01*
X31681884Y31909668D01*
X31338116Y31909668D01*
X31338116Y31909669D01*
X31319686Y32120324D01*
X31264956Y32324579D01*
X31175589Y32516227D01*
X31054301Y32689445D01*
X30904776Y32838970D01*
X30731558Y32960258D01*
X30539910Y33049625D01*
X30335655Y33104355D01*
X30125000Y33122785D01*
X29914345Y33104355D01*
X29710090Y33049625D01*
X29710089Y33049624D01*
X29710087Y33049624D01*
X29670528Y33031176D01*
X29518442Y32960258D01*
X29345224Y32838970D01*
X29195699Y32689445D01*
X29074411Y32516227D01*
X29028170Y32417062D01*
X28985044Y32324581D01*
X28930313Y32120323D01*
X28911884Y31909669D01*
X28568116Y31909669D01*
X28549686Y32120324D01*
X28494956Y32324579D01*
X28405589Y32516227D01*
X28284301Y32689445D01*
X28134776Y32838970D01*
X27961558Y32960258D01*
X27769910Y33049625D01*
X27565655Y33104355D01*
X27355000Y33122785D01*
X27144345Y33104355D01*
X26940090Y33049625D01*
X26940089Y33049624D01*
X26940087Y33049624D01*
X26900528Y33031176D01*
X26748442Y32960258D01*
X26575224Y32838970D01*
X26425699Y32689445D01*
X26304411Y32516227D01*
X26258170Y32417062D01*
X26215044Y32324581D01*
X26160313Y32120323D01*
X26141884Y31909669D01*
X20280343Y31909669D01*
X20177584Y32001741D01*
X19944982Y32155629D01*
X19692452Y32274010D01*
X19425378Y32354360D01*
X19149450Y32394969D01*
X18940372Y32394969D01*
X18731844Y32379707D01*
X18487429Y32325260D01*
X18459612Y32319064D01*
X18199133Y32219440D01*
X18199121Y32219434D01*
X18199120Y32219434D01*
X17955905Y32082935D01*
X17735157Y31912479D01*
X17735154Y31912476D01*
X17735153Y31912475D01*
X17541576Y31711694D01*
X17541574Y31711691D01*
X17379302Y31484877D01*
X17379301Y31484874D01*
X17251774Y31236835D01*
X17161723Y30972874D01*
X17111064Y30698610D01*
X17100879Y30419897D01*
X12914021Y30419897D01*
X12919121Y30559441D01*
X12888618Y30836667D01*
X12818075Y31106498D01*
X12708996Y31363183D01*
X12563705Y31601250D01*
X12385301Y31815626D01*
X12177584Y32001741D01*
X11944982Y32155629D01*
X11692452Y32274010D01*
X11425378Y32354360D01*
X11149450Y32394969D01*
X10940372Y32394969D01*
X10731844Y32379707D01*
X10487429Y32325260D01*
X10459612Y32319064D01*
X10199133Y32219440D01*
X10199121Y32219434D01*
X10199120Y32219434D01*
X9955905Y32082935D01*
X9735157Y31912479D01*
X9735154Y31912476D01*
X9735153Y31912475D01*
X9541576Y31711694D01*
X9541574Y31711691D01*
X9379302Y31484877D01*
X9379301Y31484874D01*
X9251774Y31236835D01*
X9161723Y30972874D01*
X9111064Y30698610D01*
X9100879Y30419897D01*
X-12085978Y30419897D01*
X-12080879Y30559441D01*
X-12111381Y30836663D01*
X-12111383Y30836674D01*
X-12181922Y31106491D01*
X-12181925Y31106500D01*
X-12291002Y31363179D01*
X-12365272Y31484874D01*
X-12436295Y31601250D01*
X-12436297Y31601253D01*
X-12436300Y31601257D01*
X-12614695Y31815622D01*
X-12655745Y31852403D01*
X-12719658Y31909669D01*
X-6858116Y31909669D01*
X-6839686Y31699014D01*
X-6784956Y31494759D01*
X-6695589Y31303111D01*
X-6574301Y31129893D01*
X-6424776Y30980368D01*
X-6251558Y30859080D01*
X-6120857Y30798133D01*
X-6059911Y30769713D01*
X-6059912Y30769713D01*
X-5855654Y30714982D01*
X-5855655Y30714982D01*
X-5668523Y30698611D01*
X-5645000Y30696553D01*
X-5644999Y30696553D01*
X-5434345Y30714982D01*
X-5230087Y30769713D01*
X-5086492Y30836674D01*
X-5038442Y30859080D01*
X-4875929Y30972872D01*
X-4865222Y30980369D01*
X-4715700Y31129891D01*
X-4594412Y31303110D01*
X-4594411Y31303111D01*
X-4566399Y31363183D01*
X-4505044Y31494756D01*
X-4450313Y31699014D01*
X-4431884Y31909669D01*
X-4088116Y31909669D01*
X-4069686Y31699014D01*
X-4014956Y31494759D01*
X-3925589Y31303111D01*
X-3804301Y31129893D01*
X-3654776Y30980368D01*
X-3481558Y30859080D01*
X-3350857Y30798133D01*
X-3289911Y30769713D01*
X-3289912Y30769713D01*
X-3085654Y30714982D01*
X-3085655Y30714982D01*
X-2898523Y30698611D01*
X-2875000Y30696553D01*
X-2874999Y30696553D01*
X-2664345Y30714982D01*
X-2460087Y30769713D01*
X-2316492Y30836674D01*
X-2268442Y30859080D01*
X-2105929Y30972872D01*
X-2095222Y30980369D01*
X-1945700Y31129891D01*
X-1824412Y31303110D01*
X-1824411Y31303111D01*
X-1796399Y31363183D01*
X-1735044Y31494756D01*
X-1680313Y31699014D01*
X-1661884Y31909669D01*
X-1318116Y31909669D01*
X-1299686Y31699014D01*
X-1244956Y31494759D01*
X-1155589Y31303111D01*
X-1034301Y31129893D01*
X-884776Y30980368D01*
X-711558Y30859080D01*
X-580857Y30798133D01*
X-519911Y30769713D01*
X-519912Y30769713D01*
X-315654Y30714982D01*
X-315655Y30714982D01*
X-105000Y30696553D01*
X105654Y30714982D01*
X309912Y30769713D01*
X402393Y30812839D01*
X501558Y30859080D01*
X674776Y30980368D01*
X824301Y31129893D01*
X945589Y31303111D01*
X1034956Y31494759D01*
X1089686Y31699014D01*
X1108116Y31909669D01*
X1451884Y31909669D01*
X1470313Y31699014D01*
X1525044Y31494756D01*
X1586399Y31363183D01*
X1614411Y31303111D01*
X1614412Y31303110D01*
X1735700Y31129891D01*
X1885222Y30980369D01*
X1895929Y30972872D01*
X2058442Y30859080D01*
X2128194Y30826553D01*
X2250088Y30769713D01*
X2250087Y30769713D01*
X2454345Y30714982D01*
X2454344Y30714982D01*
X2665000Y30696553D01*
X2875654Y30714982D01*
X3079912Y30769713D01*
X3172393Y30812839D01*
X3271558Y30859080D01*
X3444776Y30980368D01*
X3594301Y31129893D01*
X3715589Y31303111D01*
X3804956Y31494759D01*
X3859686Y31699014D01*
X3878116Y31909669D01*
X3859686Y32120324D01*
X3804956Y32324579D01*
X3715589Y32516227D01*
X3594301Y32689445D01*
X3444776Y32838970D01*
X3271558Y32960258D01*
X3079910Y33049625D01*
X2875655Y33104355D01*
X2665000Y33122785D01*
X2454345Y33104355D01*
X2250090Y33049625D01*
X2250089Y33049624D01*
X2250087Y33049624D01*
X2210528Y33031176D01*
X2058442Y32960258D01*
X1885224Y32838970D01*
X1735699Y32689445D01*
X1614411Y32516227D01*
X1568170Y32417062D01*
X1525044Y32324581D01*
X1470313Y32120323D01*
X1451884Y31909669D01*
X1108116Y31909669D01*
X1089686Y32120324D01*
X1034956Y32324579D01*
X945589Y32516227D01*
X824301Y32689445D01*
X674776Y32838970D01*
X501558Y32960258D01*
X309910Y33049625D01*
X105655Y33104355D01*
X-105000Y33122785D01*
X-315655Y33104355D01*
X-519910Y33049625D01*
X-711558Y32960258D01*
X-884776Y32838970D01*
X-1034301Y32689445D01*
X-1155589Y32516227D01*
X-1244956Y32324579D01*
X-1299686Y32120324D01*
X-1318116Y31909669D01*
X-1661884Y31909669D01*
X-1680313Y32120323D01*
X-1735044Y32324581D01*
X-1778170Y32417062D01*
X-1824411Y32516227D01*
X-1945699Y32689445D01*
X-2095224Y32838970D01*
X-2268442Y32960258D01*
X-2460088Y33049624D01*
X-2460089Y33049624D01*
X-2460090Y33049625D01*
X-2664345Y33104355D01*
X-2664344Y33104355D01*
X-2682774Y33105967D01*
X-2875000Y33122785D01*
X-3085655Y33104355D01*
X-3289910Y33049625D01*
X-3481558Y32960258D01*
X-3654776Y32838970D01*
X-3804301Y32689445D01*
X-3925589Y32516227D01*
X-4014956Y32324579D01*
X-4069686Y32120324D01*
X-4088116Y31909669D01*
X-4431884Y31909669D01*
X-4450313Y32120323D01*
X-4505044Y32324581D01*
X-4548170Y32417062D01*
X-4594411Y32516227D01*
X-4715699Y32689445D01*
X-4865224Y32838970D01*
X-5038442Y32960258D01*
X-5230088Y33049624D01*
X-5230089Y33049624D01*
X-5230090Y33049625D01*
X-5434345Y33104355D01*
X-5434344Y33104355D01*
X-5451291Y33105837D01*
X-5645000Y33122785D01*
X-5855655Y33104355D01*
X-6059910Y33049625D01*
X-6251558Y32960258D01*
X-6424776Y32838970D01*
X-6574301Y32689445D01*
X-6695589Y32516227D01*
X-6784956Y32324579D01*
X-6839686Y32120324D01*
X-6858116Y31909669D01*
X-12719658Y31909669D01*
X-12822416Y32001741D01*
X-13055018Y32155629D01*
X-13307548Y32274010D01*
X-13574622Y32354360D01*
X-13850550Y32394969D01*
X-14059628Y32394969D01*
X-14268156Y32379707D01*
X-14540383Y32319065D01*
X-14540387Y32319064D01*
X-14800866Y32219440D01*
X-14800873Y32219436D01*
X-14800880Y32219434D01*
X-15044095Y32082935D01*
X-15264843Y31912479D01*
X-15458420Y31711698D01*
X-15620701Y31484871D01*
X-15748226Y31236834D01*
X-15838277Y30972872D01*
X-15888935Y30698611D01*
X-15899121Y30419897D01*
X-49694700Y30419897D01*
X-49694700Y33000000D01*
X-45813498Y33000000D01*
X-45793543Y32771913D01*
X-45734284Y32550757D01*
X-45637523Y32343251D01*
X-45637520Y32343247D01*
X-45637518Y32343243D01*
X-45506197Y32155699D01*
X-45344300Y31993802D01*
X-45156756Y31862481D01*
X-45156747Y31862476D01*
X-44949251Y31765719D01*
X-44949246Y31765717D01*
X-44949243Y31765716D01*
X-44747620Y31711691D01*
X-44728083Y31706456D01*
X-44728087Y31706456D01*
X-44500000Y31686502D01*
X-44271914Y31706456D01*
X-44110017Y31749837D01*
X-44050757Y31765716D01*
X-44050755Y31765716D01*
X-44050748Y31765719D01*
X-43843252Y31862476D01*
X-43843243Y31862481D01*
X-43655699Y31993802D01*
X-43493802Y32155699D01*
X-43362481Y32343243D01*
X-43362476Y32343252D01*
X-43265719Y32550748D01*
X-43265716Y32550758D01*
X-43240342Y32645453D01*
X-35328500Y32645453D01*
X-35313908Y32497299D01*
X-35256241Y32307196D01*
X-35209418Y32219596D01*
X-35175265Y32155699D01*
X-35162595Y32131996D01*
X-35036568Y31978432D01*
X-34956199Y31912475D01*
X-34883002Y31852403D01*
X-34707804Y31758759D01*
X-34707802Y31758758D01*
X-34517701Y31701091D01*
X-34320000Y31681620D01*
X-34122298Y31701091D01*
X-33932197Y31758758D01*
X-33932195Y31758759D01*
X-33756997Y31852403D01*
X-33603432Y31978432D01*
X-33477403Y32131997D01*
X-33383759Y32307195D01*
X-33383758Y32307197D01*
X-33326092Y32497298D01*
X-33311499Y32645456D01*
X-33311499Y33007294D01*
X-33291215Y33082994D01*
X-33235799Y33138410D01*
X-33160099Y33158694D01*
X-33122448Y33153938D01*
X-32969625Y33114700D01*
X-32969623Y33114700D01*
X-32850331Y33114700D01*
X-32732003Y33129649D01*
X-32583937Y33188274D01*
X-32455102Y33281876D01*
X-32353590Y33404584D01*
X-32353589Y33404584D01*
X-32285783Y33548680D01*
X-32255944Y33705111D01*
X-32260963Y33784891D01*
X-27744056Y33784891D01*
X-27734057Y33625955D01*
X-27684846Y33474498D01*
X-27684843Y33474494D01*
X-27684843Y33474493D01*
X-27640477Y33404584D01*
X-27599515Y33340038D01*
X-27483426Y33231023D01*
X-27483424Y33231022D01*
X-27483423Y33231021D01*
X-27343874Y33154304D01*
X-27292457Y33141102D01*
X-27189625Y33114700D01*
X-27189623Y33114700D01*
X-27070331Y33114700D01*
X-26952001Y33129649D01*
X-26895634Y33151967D01*
X-26817783Y33160975D01*
X-26745858Y33129850D01*
X-26699132Y33066933D01*
X-26688500Y33011199D01*
X-26688500Y32645453D01*
X-26673908Y32497299D01*
X-26616241Y32307196D01*
X-26569417Y32219596D01*
X-26535265Y32155699D01*
X-26522595Y32131996D01*
X-26396568Y31978432D01*
X-26316199Y31912475D01*
X-26243002Y31852403D01*
X-26067804Y31758759D01*
X-26067802Y31758758D01*
X-25877701Y31701091D01*
X-25680000Y31681620D01*
X-25482298Y31701091D01*
X-25292197Y31758758D01*
X-25292195Y31758759D01*
X-25116997Y31852403D01*
X-24963432Y31978432D01*
X-24837403Y32131997D01*
X-24743759Y32307195D01*
X-24743758Y32307197D01*
X-24686092Y32497298D01*
X-24671500Y32645456D01*
X-24671500Y33844543D01*
X-24673421Y33864045D01*
X-24686092Y33992701D01*
X-24714217Y34085416D01*
X-24743758Y34182802D01*
X-24743759Y34182804D01*
X-24837403Y34358002D01*
X-24875729Y34404702D01*
X-24963432Y34511568D01*
X-25116996Y34637595D01*
X-25116997Y34637596D01*
X-25204596Y34684417D01*
X-25292196Y34731241D01*
X-25387247Y34760074D01*
X-25482298Y34788908D01*
X-25680000Y34808380D01*
X-25877701Y34788908D01*
X-26067804Y34731241D01*
X-26243004Y34637595D01*
X-26396568Y34511568D01*
X-26522595Y34358004D01*
X-26522597Y34358000D01*
X-26539887Y34325654D01*
X-26593460Y34268453D01*
X-26668455Y34245703D01*
X-26744778Y34263499D01*
X-26746199Y34264268D01*
X-26876127Y34335696D01*
X-27030375Y34375300D01*
X-27149659Y34375300D01*
X-27149668Y34375299D01*
X-27165701Y34373273D01*
X-27267995Y34360351D01*
X-27416063Y34301726D01*
X-27544900Y34208121D01*
X-27646410Y34085416D01*
X-27714216Y33941322D01*
X-27744056Y33784891D01*
X-32260963Y33784891D01*
X-32265943Y33864046D01*
X-32315151Y34015496D01*
X-32315156Y34015506D01*
X-32400482Y34149958D01*
X-32400483Y34149959D01*
X-32400485Y34149962D01*
X-32516574Y34258977D01*
X-32615747Y34313497D01*
X-32656125Y34335695D01*
X-32656127Y34335696D01*
X-32810375Y34375300D01*
X-32929659Y34375300D01*
X-32929668Y34375299D01*
X-32945701Y34373273D01*
X-33047995Y34360351D01*
X-33196063Y34301726D01*
X-33236450Y34272383D01*
X-33309613Y34244298D01*
X-33387019Y34256558D01*
X-33447924Y34305878D01*
X-33458962Y34323500D01*
X-33477403Y34358002D01*
X-33515729Y34404702D01*
X-33603432Y34511568D01*
X-33756996Y34637595D01*
X-33756997Y34637596D01*
X-33844595Y34684417D01*
X-33932196Y34731241D01*
X-34027247Y34760074D01*
X-34122298Y34788908D01*
X-34320000Y34808380D01*
X-34517701Y34788908D01*
X-34707804Y34731241D01*
X-34883004Y34637595D01*
X-35036568Y34511568D01*
X-35162595Y34358004D01*
X-35256241Y34182804D01*
X-35313908Y33992701D01*
X-35328500Y33844547D01*
X-35328500Y32645453D01*
X-43240342Y32645453D01*
X-43206456Y32771914D01*
X-43186502Y32999999D01*
X-43206456Y33228085D01*
X-43253750Y33404584D01*
X-43265716Y33449243D01*
X-43265717Y33449246D01*
X-43265719Y33449251D01*
X-43362476Y33656747D01*
X-43362481Y33656756D01*
X-43493802Y33844300D01*
X-43655699Y34006197D01*
X-43668988Y34015502D01*
X-43768833Y34085415D01*
X-43843243Y34137518D01*
X-43843247Y34137520D01*
X-43843251Y34137523D01*
X-44050757Y34234284D01*
X-44271913Y34293543D01*
X-44271912Y34293543D01*
X-44290261Y34295148D01*
X-44500000Y34313498D01*
X-44728087Y34293543D01*
X-44949243Y34234284D01*
X-45156749Y34137523D01*
X-45344300Y34006198D01*
X-45506198Y33844300D01*
X-45637523Y33656749D01*
X-45734284Y33449243D01*
X-45793543Y33228087D01*
X-45813498Y33000000D01*
X-49694700Y33000000D01*
X-49694700Y36975453D01*
X-35328500Y36975453D01*
X-35313908Y36827299D01*
X-35256241Y36637196D01*
X-35162595Y36461996D01*
X-35036568Y36308432D01*
X-34929702Y36220729D01*
X-34883002Y36182403D01*
X-34707804Y36088759D01*
X-34707802Y36088758D01*
X-34517701Y36031091D01*
X-34320000Y36011620D01*
X-34122298Y36031091D01*
X-33932197Y36088758D01*
X-33932195Y36088759D01*
X-33756997Y36182403D01*
X-33603432Y36308432D01*
X-33477403Y36461997D01*
X-33383759Y36637195D01*
X-33383758Y36637197D01*
X-33326092Y36827298D01*
X-33311500Y36975453D01*
X-26688500Y36975453D01*
X-26673908Y36827299D01*
X-26616241Y36637196D01*
X-26522595Y36461996D01*
X-26396568Y36308432D01*
X-26289702Y36220729D01*
X-26243002Y36182403D01*
X-26067804Y36088759D01*
X-26067802Y36088758D01*
X-25877701Y36031091D01*
X-25680000Y36011620D01*
X-25482298Y36031091D01*
X-25292197Y36088758D01*
X-25292195Y36088759D01*
X-25116997Y36182403D01*
X-24963432Y36308432D01*
X-24837403Y36461997D01*
X-24743759Y36637195D01*
X-24743758Y36637197D01*
X-24686092Y36827298D01*
X-24671500Y36975456D01*
X-24671500Y37874543D01*
X-24672620Y37885912D01*
X-24686092Y38022701D01*
X-24686091Y38022701D01*
X-24743758Y38212802D01*
X-24743759Y38212804D01*
X-24837403Y38388002D01*
X-24931480Y38502634D01*
X-24963432Y38541568D01*
X-25116996Y38667595D01*
X-25116997Y38667596D01*
X-25204596Y38714417D01*
X-25292196Y38761241D01*
X-25428756Y38802666D01*
X-25482298Y38818908D01*
X-25680000Y38838380D01*
X-25877701Y38818908D01*
X-26067804Y38761241D01*
X-26243004Y38667595D01*
X-26396568Y38541568D01*
X-26522595Y38388004D01*
X-26616241Y38212804D01*
X-26673908Y38022701D01*
X-26688500Y37874547D01*
X-26688500Y36975453D01*
X-33311500Y36975453D01*
X-33311500Y36975456D01*
X-33311500Y37874543D01*
X-33312620Y37885912D01*
X-33326092Y38022701D01*
X-33326091Y38022701D01*
X-33383758Y38212802D01*
X-33383759Y38212804D01*
X-33477403Y38388002D01*
X-33571480Y38502634D01*
X-33603432Y38541568D01*
X-33756996Y38667595D01*
X-33756997Y38667596D01*
X-33844596Y38714417D01*
X-33932196Y38761241D01*
X-34068756Y38802666D01*
X-34122298Y38818908D01*
X-34320000Y38838380D01*
X-34517701Y38818908D01*
X-34707804Y38761241D01*
X-34883004Y38667595D01*
X-35036568Y38541568D01*
X-35162595Y38388004D01*
X-35256241Y38212804D01*
X-35313908Y38022701D01*
X-35328500Y37874547D01*
X-35328500Y36975453D01*
X-49694700Y36975453D01*
X-49694700Y36997872D01*
X-49694581Y37002117D01*
X-49677994Y37297464D01*
X-49677042Y37305906D01*
X-49627850Y37595431D01*
X-49625960Y37603714D01*
X-49544658Y37885919D01*
X-49541852Y37893938D01*
X-49429471Y38165250D01*
X-49425785Y38172904D01*
X-49283725Y38429943D01*
X-49279205Y38437137D01*
X-49109261Y38676649D01*
X-49103964Y38683292D01*
X-48908275Y38902267D01*
X-48902267Y38908275D01*
X-48683292Y39103964D01*
X-48676649Y39109261D01*
X-48437137Y39279205D01*
X-48429943Y39283725D01*
X-48172904Y39425785D01*
X-48165250Y39429471D01*
X-47893938Y39541852D01*
X-47885919Y39544658D01*
X-47603714Y39625960D01*
X-47595431Y39627850D01*
X-47305906Y39677042D01*
X-47297464Y39677994D01*
X-47002118Y39694581D01*
X-46997873Y39694700D01*
X-46951645Y39694700D01*
X46951645Y39694700D01*
X46997873Y39694700D01*
X47002118Y39694581D01*
G37*
G04 #@! TD.AperFunction*
M02*
