G04 #@! TF.GenerationSoftware,KiCad,Pcbnew,7.0.6*
G04 #@! TF.CreationDate,2023-12-17T19:57:47+09:00*
G04 #@! TF.ProjectId,EB-RH850F1KMS1,45422d52-4838-4353-9046-314b4d53312e,V1.0*
G04 #@! TF.SameCoordinates,Original*
G04 #@! TF.FileFunction,Soldermask,Top*
G04 #@! TF.FilePolarity,Negative*
%FSLAX46Y46*%
G04 Gerber Fmt 4.6, Leading zero omitted, Abs format (unit mm)*
G04 Created by KiCad (PCBNEW 7.0.6) date 2023-12-17 19:57:47*
%MOMM*%
%LPD*%
G01*
G04 APERTURE LIST*
G04 Aperture macros list*
%AMRoundRect*
0 Rectangle with rounded corners*
0 $1 Rounding radius*
0 $2 $3 $4 $5 $6 $7 $8 $9 X,Y pos of 4 corners*
0 Add a 4 corners polygon primitive as box body*
4,1,4,$2,$3,$4,$5,$6,$7,$8,$9,$2,$3,0*
0 Add four circle primitives for the rounded corners*
1,1,$1+$1,$2,$3*
1,1,$1+$1,$4,$5*
1,1,$1+$1,$6,$7*
1,1,$1+$1,$8,$9*
0 Add four rect primitives between the rounded corners*
20,1,$1+$1,$2,$3,$4,$5,0*
20,1,$1+$1,$4,$5,$6,$7,0*
20,1,$1+$1,$6,$7,$8,$9,0*
20,1,$1+$1,$8,$9,$2,$3,0*%
%AMFreePoly0*
4,1,13,0.900000,0.500000,2.600000,0.500000,2.600000,-0.500000,0.900000,-0.500000,0.400000,-1.000000,-0.400000,-1.000000,-0.400000,-0.500000,-2.600000,-0.500000,-2.600000,0.500000,-0.400000,0.500000,-0.400000,1.000000,0.400000,1.000000,0.900000,0.500000,0.900000,0.500000,$1*%
G04 Aperture macros list end*
%ADD10C,1.100000*%
%ADD11RoundRect,0.200000X-0.250000X-0.200000X0.250000X-0.200000X0.250000X0.200000X-0.250000X0.200000X0*%
%ADD12RoundRect,0.200000X0.250000X0.200000X-0.250000X0.200000X-0.250000X-0.200000X0.250000X-0.200000X0*%
%ADD13R,1.200000X0.500000*%
%ADD14C,0.750000*%
%ADD15R,1.600000X1.000000*%
%ADD16C,1.600000*%
%ADD17RoundRect,0.150000X0.150000X-0.150000X0.150000X0.150000X-0.150000X0.150000X-0.150000X-0.150000X0*%
%ADD18RoundRect,0.050800X-0.050800X0.724200X-0.050800X-0.724200X0.050800X-0.724200X0.050800X0.724200X0*%
%ADD19RoundRect,0.050800X-0.724200X0.050800X-0.724200X-0.050800X0.724200X-0.050800X0.724200X0.050800X0*%
%ADD20C,3.200000*%
%ADD21C,1.400000*%
%ADD22O,1.000000X1.800000*%
%ADD23C,0.650000*%
%ADD24O,1.000000X2.100000*%
%ADD25R,0.450000X0.940000*%
%ADD26R,0.203200X1.140000*%
%ADD27RoundRect,0.150000X-0.150000X0.150000X-0.150000X-0.150000X0.150000X-0.150000X0.150000X0.150000X0*%
%ADD28R,1.500000X0.700000*%
%ADD29FreePoly0,0.000000*%
%ADD30RoundRect,0.075000X-0.475000X-0.075000X0.475000X-0.075000X0.475000X0.075000X-0.475000X0.075000X0*%
%ADD31R,1.200000X1.400000*%
G04 APERTURE END LIST*
D10*
X-30480000Y-5240000D03*
D11*
X-45250000Y15400000D03*
X-43550000Y15400000D03*
D12*
X-36150000Y24200000D03*
X-37850000Y24200000D03*
X-6650000Y-12500000D03*
X-8350000Y-12500000D03*
D10*
X30480000Y-21430000D03*
D13*
X-36710000Y4830000D03*
X-36710000Y3880000D03*
X-36710000Y2930000D03*
X-34410000Y2930000D03*
X-34410000Y4830000D03*
D11*
X8150000Y-4100000D03*
X9850000Y-4100000D03*
D10*
X39370000Y10320000D03*
D12*
X-10550000Y2700000D03*
X-12250000Y2700000D03*
D11*
X-38950000Y-5240000D03*
X-37250000Y-5240000D03*
X-37850000Y25700000D03*
X-36150000Y25700000D03*
D10*
X30480000Y-8730000D03*
D14*
X15900000Y-32000000D03*
X14100000Y-32000000D03*
D15*
X15000000Y-34200000D03*
X15000000Y-29800000D03*
D11*
X-45250000Y16900000D03*
X-43550000Y16900000D03*
D16*
X-12500000Y-32775000D03*
X-10000000Y-32775000D03*
X-7500000Y-32775000D03*
X-12500000Y-30275000D03*
X-10000000Y-30275000D03*
X-7500000Y-30275000D03*
D10*
X39370000Y17940000D03*
X-44450000Y-3810000D03*
D11*
X6650000Y-18500000D03*
X8350000Y-18500000D03*
D10*
X7500000Y-16000000D03*
X30480000Y-23970000D03*
X-21590000Y-5080000D03*
D12*
X-10550000Y1200000D03*
X-12250000Y1200000D03*
D17*
X-14500000Y-6500000D03*
X-14500000Y-5500000D03*
D18*
X3750000Y675000D03*
X3250000Y675000D03*
X2750000Y675000D03*
X2250000Y675000D03*
X1750000Y675000D03*
X1250000Y675000D03*
X750000Y675000D03*
X250000Y675000D03*
X-250000Y675000D03*
X-750000Y675000D03*
X-1250000Y675000D03*
X-1750000Y675000D03*
X-2250000Y675000D03*
X-2750000Y675000D03*
X-3250000Y675000D03*
X-3750000Y675000D03*
D19*
X-5675000Y-1250000D03*
X-5675000Y-1750000D03*
X-5675000Y-2250000D03*
X-5675000Y-2750000D03*
X-5675000Y-3250000D03*
X-5675000Y-3750000D03*
X-5675000Y-4250000D03*
X-5675000Y-4750000D03*
X-5675000Y-5250000D03*
X-5675000Y-5750000D03*
X-5675000Y-6250000D03*
X-5675000Y-6750000D03*
X-5675000Y-7250000D03*
X-5675000Y-7750000D03*
X-5675000Y-8250000D03*
X-5675000Y-8750000D03*
D18*
X-3750000Y-10675000D03*
X-3250000Y-10675000D03*
X-2750000Y-10675000D03*
X-2250000Y-10675000D03*
X-1750000Y-10675000D03*
X-1250000Y-10675000D03*
X-750000Y-10675000D03*
X-250000Y-10675000D03*
X250000Y-10675000D03*
X750000Y-10675000D03*
X1250000Y-10675000D03*
X1750000Y-10675000D03*
X2250000Y-10675000D03*
X2750000Y-10675000D03*
X3250000Y-10675000D03*
X3750000Y-10675000D03*
D19*
X5675000Y-8750000D03*
X5675000Y-8250000D03*
X5675000Y-7750000D03*
X5675000Y-7250000D03*
X5675000Y-6750000D03*
X5675000Y-6250000D03*
X5675000Y-5750000D03*
X5675000Y-5250000D03*
X5675000Y-4750000D03*
X5675000Y-4250000D03*
X5675000Y-3750000D03*
X5675000Y-3250000D03*
X5675000Y-2750000D03*
X5675000Y-2250000D03*
X5675000Y-1750000D03*
X5675000Y-1250000D03*
D20*
X11010000Y30489669D03*
X-13990000Y30489669D03*
D21*
X4050000Y29069669D03*
X1280000Y29069669D03*
X-1490000Y29069669D03*
X-4260000Y29069669D03*
X-7030000Y29069669D03*
X2665000Y31909669D03*
X-105000Y31909669D03*
X-2875000Y31909669D03*
X-5645000Y31909669D03*
D10*
X-7500000Y-16000000D03*
X-44450000Y6350000D03*
X-21590000Y-2540000D03*
D21*
X-38100000Y-12655000D03*
X-35560000Y-12655000D03*
X-33020000Y-12655000D03*
X-30480000Y-12655000D03*
X37400000Y-3650000D03*
X39940000Y-3650000D03*
X37400000Y-6190000D03*
X39940000Y-6190000D03*
X37400000Y-8730000D03*
X39940000Y-8730000D03*
X37400000Y-11270000D03*
X39940000Y-11270000D03*
X37400000Y-13810000D03*
X39940000Y-13810000D03*
X37400000Y-16350000D03*
X39940000Y-16350000D03*
D11*
X-31350000Y3900000D03*
X-29650000Y3900000D03*
D10*
X15000000Y-26000000D03*
X30480000Y-6190000D03*
D11*
X-8350000Y-20000000D03*
X-6650000Y-20000000D03*
D10*
X-21590000Y0D03*
D12*
X-36150000Y27200000D03*
X-37850000Y27200000D03*
D10*
X39370000Y15400000D03*
D22*
X-25680000Y37425000D03*
D23*
X-27110000Y33745000D03*
X-32890000Y33745000D03*
D24*
X-34320000Y33245000D03*
D22*
X-34320000Y37425000D03*
D25*
X-26800000Y32575000D03*
X-27600000Y32575000D03*
D26*
X-28750000Y32675000D03*
X-29750000Y32675000D03*
X-30250000Y32675000D03*
X-31250000Y32675000D03*
D25*
X-32400000Y32575000D03*
X-33200000Y32575000D03*
X-33200000Y32575000D03*
X-32400000Y32575000D03*
D26*
X-31750000Y32675000D03*
X-30750000Y32675000D03*
X-29250000Y32675000D03*
X-28250000Y32675000D03*
D25*
X-27600000Y32575000D03*
X-26800000Y32575000D03*
D24*
X-25680000Y33245000D03*
D10*
X-44450000Y1270000D03*
X7620000Y20480000D03*
X30480000Y-3650000D03*
X30480000Y-11270000D03*
D11*
X-24850000Y27200000D03*
X-23150000Y27200000D03*
D10*
X-10000000Y-26000000D03*
X7620000Y12860000D03*
D11*
X-37850000Y21200000D03*
X-36150000Y21200000D03*
D10*
X-21590000Y2540000D03*
D11*
X8150000Y-11300000D03*
X9850000Y-11300000D03*
D20*
X44010000Y30489669D03*
X19010000Y30489669D03*
D21*
X37050000Y29069669D03*
X34280000Y29069669D03*
X31510000Y29069669D03*
X28740000Y29069669D03*
X25970000Y29069669D03*
X35665000Y31909669D03*
X32895000Y31909669D03*
X30125000Y31909669D03*
X27355000Y31909669D03*
D10*
X30480000Y-1110000D03*
X30480000Y-13810000D03*
D11*
X-24850000Y25700000D03*
X-23150000Y25700000D03*
D10*
X-30480000Y6420000D03*
X30480000Y-16350000D03*
D27*
X-14500000Y-3500000D03*
X-14500000Y-4500000D03*
D10*
X39370000Y12860000D03*
D14*
X5900000Y-32000000D03*
X4100000Y-32000000D03*
D15*
X5000000Y-34200000D03*
X5000000Y-29800000D03*
D10*
X5000000Y-26000000D03*
X7620000Y17940000D03*
X-30480000Y-7780000D03*
X7620000Y10320000D03*
D11*
X-31350000Y2400000D03*
X-29650000Y2400000D03*
X-24850000Y24200000D03*
X-23150000Y24200000D03*
X1150000Y23500000D03*
X2850000Y23500000D03*
X-8350000Y-18500000D03*
X-6650000Y-18500000D03*
D16*
X-44500000Y33000000D03*
X-44500000Y27920000D03*
X-44500000Y25380000D03*
X-44500000Y22840000D03*
D12*
X21850000Y16900000D03*
X20150000Y16900000D03*
D21*
X-33620000Y13730000D03*
X-33620000Y16270000D03*
X-31080000Y13730000D03*
X-31080000Y16270000D03*
X-28540000Y13730000D03*
X-28540000Y16270000D03*
X-26000000Y13730000D03*
X-26000000Y16270000D03*
X-23460000Y13730000D03*
X-23460000Y16270000D03*
X-20920000Y13730000D03*
X-20920000Y16270000D03*
X-18380000Y13730000D03*
X-18380000Y16270000D03*
D12*
X-50000Y4200000D03*
X-1750000Y4200000D03*
D11*
X-5550000Y23500000D03*
X-3850000Y23500000D03*
X20150000Y15000000D03*
X21850000Y15000000D03*
D28*
X-31850000Y26500000D03*
D29*
X-30000000Y25000000D03*
D28*
X-31850000Y23500000D03*
X-28150000Y23500000D03*
X-28150000Y26500000D03*
D11*
X37650000Y-27400000D03*
X39350000Y-27400000D03*
X37650000Y-25900000D03*
X39350000Y-25900000D03*
D12*
X21850000Y11000000D03*
X20150000Y11000000D03*
X-10550000Y-300000D03*
X-12250000Y-300000D03*
X9850000Y-9800000D03*
X8150000Y-9800000D03*
X21850000Y13000000D03*
X20150000Y13000000D03*
D10*
X30480000Y-18890000D03*
D30*
X28300000Y17275000D03*
X28300000Y16625000D03*
X28300000Y15975000D03*
X28300000Y15325000D03*
X28300000Y14675000D03*
X28300000Y14025000D03*
X28300000Y13375000D03*
X28300000Y12725000D03*
X34700000Y12725000D03*
X34700000Y13375000D03*
X34700000Y14025000D03*
X34700000Y14675000D03*
X34700000Y15325000D03*
X34700000Y15975000D03*
X34700000Y16625000D03*
X34700000Y17275000D03*
D11*
X6650000Y-20000000D03*
X8350000Y-20000000D03*
D31*
X-11150000Y-6100000D03*
X-11150000Y-3900000D03*
X-12850000Y-3900000D03*
X-12850000Y-6100000D03*
D11*
X-24850000Y22700000D03*
X-23150000Y22700000D03*
X20150000Y18800000D03*
X21850000Y18800000D03*
D21*
X-5300000Y18800000D03*
X-5300000Y16260000D03*
X-5300000Y13720000D03*
X-5300000Y11180000D03*
X2320000Y11180000D03*
X2320000Y13720000D03*
X2320000Y16260000D03*
X2320000Y18800000D03*
D11*
X-38950000Y-7780000D03*
X-37250000Y-7780000D03*
D10*
X7620000Y15400000D03*
M02*
