M48
; DRILL file {KiCad 7.0.6} date Sun Dec 17 19:57:44 2023
; FORMAT={-:-/ absolute / metric / decimal}
; #@! TF.CreationDate,2023-12-17T19:57:44+09:00
; #@! TF.GenerationSoftware,Kicad,Pcbnew,7.0.6
; #@! TF.FileFunction,MixedPlating,1,2
FMAT,2
METRIC
; #@! TA.AperFunction,Plated,PTH,ViaDrill
T1C0.305
; #@! TA.AperFunction,Plated,PTH,ComponentDrill
T2C0.600
; #@! TA.AperFunction,Plated,PTH,ComponentDrill
T3C0.800
; #@! TA.AperFunction,Plated,PTH,ComponentDrill
T4C1.000
; #@! TA.AperFunction,NonPlated,NPTH,ComponentDrill
T5C0.650
; #@! TA.AperFunction,NonPlated,NPTH,ComponentDrill
T6C0.750
; #@! TA.AperFunction,NonPlated,NPTH,ComponentDrill
T7C3.200
%
G90
G05
T1
X-45.2Y18.0
X-45.0Y35.0
X-45.0Y10.0
X-45.0Y-10.0
X-45.0Y-15.0
X-45.0Y-20.0
X-45.0Y-25.0
X-45.0Y-30.0
X-45.0Y-35.0
X-40.0Y35.0
X-40.0Y20.0
X-40.0Y15.0
X-40.0Y10.0
X-40.0Y5.0
X-40.0Y0.0
X-40.0Y-10.0
X-40.0Y-15.0
X-40.0Y-20.0
X-40.0Y-25.0
X-40.0Y-30.0
X-40.0Y-35.0
X-35.0Y20.0
X-35.0Y15.0
X-35.0Y10.0
X-35.0Y-10.0
X-35.0Y-15.0
X-35.0Y-20.0
X-35.0Y-25.0
X-35.0Y-30.0
X-35.0Y-35.0
X-33.3Y22.7
X-32.8Y4.4
X-30.0Y35.0
X-30.0Y20.0
X-30.0Y10.0
X-30.0Y0.0
X-30.0Y-15.0
X-30.0Y-20.0
X-30.0Y-25.0
X-30.0Y-30.0
X-30.0Y-35.0
X-26.5Y26.5
X-26.0Y20.0
X-25.7Y20.9
X-25.0Y30.0
X-25.0Y10.0
X-25.0Y5.0
X-25.0Y0.0
X-25.0Y-5.0
X-25.0Y-10.0
X-25.0Y-15.0
X-25.0Y-20.0
X-25.0Y-25.0
X-25.0Y-30.0
X-25.0Y-35.0
X-20.0Y35.0
X-20.0Y30.0
X-20.0Y25.0
X-20.0Y5.0
X-20.0Y-10.0
X-20.0Y-15.0
X-20.0Y-20.0
X-20.0Y-25.0
X-20.0Y-35.0
X-15.0Y35.0
X-15.0Y25.0
X-15.0Y15.0
X-15.0Y5.0
X-15.0Y0.0
X-15.0Y-15.0
X-15.0Y-20.0
X-15.0Y-25.0
X-15.0Y-35.0
X-10.55Y-1.95
X-10.0Y35.0
X-10.0Y30.0
X-10.0Y23.5
X-10.0Y20.0
X-10.0Y15.0
X-10.0Y10.0
X-10.0Y-15.0
X-10.0Y-20.0
X-10.0Y-35.0
X-9.4Y-5.9
X-9.0Y-1.7
X-7.4Y-6.5
X-7.3Y2.0
X-7.3Y1.1
X-7.3Y0.2
X-5.5Y3.4
X-5.5Y2.0
X-5.0Y35.0
X-5.0Y5.0
X-5.0Y0.0
X-5.0Y-10.0
X-5.0Y-15.0
X-5.0Y-20.0
X-5.0Y-30.0
X-5.0Y-35.0
X-1.2Y3.0
X-0.3Y3.0
X0.0Y35.0
X0.0Y24.1
X0.0Y-5.0
X0.0Y-25.0
X0.0Y-30.0
X0.0Y-35.0
X2.5Y-12.6
X3.2Y-13.3
X4.1Y-12.7
X5.0Y35.0
X5.0Y25.0
X5.0Y20.0
X5.0Y-10.0
X5.0Y-13.391
X5.0Y-20.0
X7.8Y-8.4
X7.9Y-7.5
X10.0Y35.0
X10.0Y25.0
X10.0Y20.0
X10.0Y-25.0
X10.0Y-30.0
X10.0Y-35.0
X10.2Y4.6
X10.2Y3.7
X10.2Y2.8
X10.2Y1.9
X10.2Y1.0
X11.1Y1.0
X12.0Y1.0
X15.0Y35.0
X15.0Y30.0
X15.0Y25.0
X15.0Y20.0
X15.0Y15.0
X15.0Y10.0
X15.0Y5.0
X15.0Y-10.0
X15.0Y-20.0
X20.0Y35.0
X20.0Y25.0
X20.0Y5.0
X20.0Y-10.0
X20.0Y-20.0
X20.0Y-25.0
X20.0Y-30.0
X20.0Y-35.0
X23.4Y18.8
X23.4Y11.0
X25.0Y35.0
X25.0Y25.0
X25.0Y20.0
X25.0Y10.0
X25.0Y5.0
X25.0Y-5.0
X25.0Y-10.0
X25.0Y-25.0
X25.0Y-30.0
X25.0Y-35.0
X30.0Y35.0
X30.0Y25.0
X30.0Y20.0
X30.0Y15.0
X30.0Y10.0
X30.0Y-30.0
X30.0Y-35.0
X33.9Y18.8
X34.0Y11.9
X35.0Y35.0
X35.0Y5.0
X35.0Y0.0
X35.0Y-25.0
X35.0Y-30.0
X35.0Y-35.0
X36.5Y-25.9
X40.0Y35.0
X40.0Y30.0
X40.0Y25.0
X40.0Y20.0
X40.0Y5.0
X40.0Y0.0
X40.0Y-20.0
X40.0Y-30.0
X40.0Y-35.0
X45.0Y35.0
X45.0Y25.0
X45.0Y20.0
X45.0Y15.0
X45.0Y10.0
X45.0Y5.0
X45.0Y0.0
X45.0Y-5.0
X45.0Y-10.0
X45.0Y-15.0
X45.0Y-20.0
X45.0Y-25.0
X45.0Y-30.0
X45.0Y-35.0
T3
X-44.45Y6.35
X-44.45Y1.27
X-44.45Y-3.81
X-38.1Y-12.655
X-35.56Y-12.655
X-33.62Y16.27
X-33.62Y13.73
X-33.02Y-12.655
X-31.08Y16.27
X-31.08Y13.73
X-30.48Y6.42
X-30.48Y-5.24
X-30.48Y-7.78
X-30.48Y-12.655
X-28.54Y16.27
X-28.54Y13.73
X-26.0Y16.27
X-26.0Y13.73
X-23.46Y16.27
X-23.46Y13.73
X-21.59Y2.54
X-21.59Y0.0
X-21.59Y-2.54
X-21.59Y-5.08
X-20.92Y16.27
X-20.92Y13.73
X-18.38Y16.27
X-18.38Y13.73
X-10.0Y-26.0
X-7.5Y-16.0
X-7.03Y29.07
X-5.645Y31.91
X-5.3Y18.8
X-5.3Y16.26
X-5.3Y13.72
X-5.3Y11.18
X-4.26Y29.07
X-2.875Y31.91
X-1.49Y29.07
X-0.105Y31.91
X1.28Y29.07
X2.32Y18.8
X2.32Y16.26
X2.32Y13.72
X2.32Y11.18
X2.665Y31.91
X4.05Y29.07
X5.0Y-26.0
X7.5Y-16.0
X7.62Y20.48
X7.62Y17.94
X7.62Y15.4
X7.62Y12.86
X7.62Y10.32
X15.0Y-26.0
X25.97Y29.07
X27.355Y31.91
X28.74Y29.07
X30.125Y31.91
X30.48Y-1.11
X30.48Y-3.65
X30.48Y-6.19
X30.48Y-8.73
X30.48Y-11.27
X30.48Y-13.81
X30.48Y-16.35
X30.48Y-18.89
X30.48Y-21.43
X30.48Y-23.97
X31.51Y29.07
X32.895Y31.91
X34.28Y29.07
X35.665Y31.91
X37.05Y29.07
X37.4Y-3.65
X37.4Y-6.19
X37.4Y-8.73
X37.4Y-11.27
X37.4Y-13.81
X37.4Y-16.35
X39.37Y17.94
X39.37Y15.4
X39.37Y12.86
X39.37Y10.32
X39.94Y-3.65
X39.94Y-6.19
X39.94Y-8.73
X39.94Y-11.27
X39.94Y-13.81
X39.94Y-16.35
T4
X-44.5Y33.0
X-44.5Y27.92
X-44.5Y25.38
X-44.5Y22.84
X-12.5Y-30.275
X-12.5Y-32.775
X-10.0Y-30.275
X-10.0Y-32.775
X-7.5Y-30.275
X-7.5Y-32.775
T5
X-32.89Y33.745
X-27.11Y33.745
T6
X4.1Y-32.0
X5.9Y-32.0
X14.1Y-32.0
X15.9Y-32.0
T7
X-13.99Y30.49
X11.01Y30.49
X19.01Y30.49
X44.01Y30.49
T2
G00X-34.32Y37.025
M15
G01X-34.32Y37.825
M16
G05
G00X-34.32Y32.695
M15
G01X-34.32Y33.795
M16
G05
G00X-25.68Y37.025
M15
G01X-25.68Y37.825
M16
G05
G00X-25.68Y32.695
M15
G01X-25.68Y33.795
M16
G05
T0
M30
