G04 #@! TF.GenerationSoftware,KiCad,Pcbnew,7.0.6*
G04 #@! TF.CreationDate,2023-12-17T19:57:47+09:00*
G04 #@! TF.ProjectId,EB-RH850F1KMS1,45422d52-4838-4353-9046-314b4d53312e,V1.0*
G04 #@! TF.SameCoordinates,Original*
G04 #@! TF.FileFunction,Soldermask,Bot*
G04 #@! TF.FilePolarity,Negative*
%FSLAX46Y46*%
G04 Gerber Fmt 4.6, Leading zero omitted, Abs format (unit mm)*
G04 Created by KiCad (PCBNEW 7.0.6) date 2023-12-17 19:57:47*
%MOMM*%
%LPD*%
G01*
G04 APERTURE LIST*
%ADD10C,1.100000*%
%ADD11C,0.750000*%
%ADD12C,1.600000*%
%ADD13C,3.200000*%
%ADD14C,1.400000*%
%ADD15O,1.000000X1.800000*%
%ADD16C,0.650000*%
%ADD17O,1.000000X2.100000*%
G04 APERTURE END LIST*
D10*
X-30480000Y-5240000D03*
X30480000Y-21430000D03*
X39370000Y10320000D03*
X30480000Y-8730000D03*
D11*
X15900000Y-32000000D03*
X14100000Y-32000000D03*
D12*
X-12500000Y-32775000D03*
X-10000000Y-32775000D03*
X-7500000Y-32775000D03*
X-12500000Y-30275000D03*
X-10000000Y-30275000D03*
X-7500000Y-30275000D03*
D10*
X39370000Y17940000D03*
X-44450000Y-3810000D03*
X7500000Y-16000000D03*
X30480000Y-23970000D03*
X-21590000Y-5080000D03*
D13*
X11010000Y30489669D03*
X-13990000Y30489669D03*
D14*
X4050000Y29069669D03*
X1280000Y29069669D03*
X-1490000Y29069669D03*
X-4260000Y29069669D03*
X-7030000Y29069669D03*
X2665000Y31909669D03*
X-105000Y31909669D03*
X-2875000Y31909669D03*
X-5645000Y31909669D03*
D10*
X-7500000Y-16000000D03*
X-44450000Y6350000D03*
X-21590000Y-2540000D03*
D14*
X-38100000Y-12655000D03*
X-35560000Y-12655000D03*
X-33020000Y-12655000D03*
X-30480000Y-12655000D03*
X37400000Y-3650000D03*
X39940000Y-3650000D03*
X37400000Y-6190000D03*
X39940000Y-6190000D03*
X37400000Y-8730000D03*
X39940000Y-8730000D03*
X37400000Y-11270000D03*
X39940000Y-11270000D03*
X37400000Y-13810000D03*
X39940000Y-13810000D03*
X37400000Y-16350000D03*
X39940000Y-16350000D03*
D10*
X15000000Y-26000000D03*
X30480000Y-6190000D03*
X-21590000Y0D03*
X39370000Y15400000D03*
D15*
X-25680000Y37425000D03*
D16*
X-27110000Y33745000D03*
X-32890000Y33745000D03*
D17*
X-34320000Y33245000D03*
D15*
X-34320000Y37425000D03*
D17*
X-25680000Y33245000D03*
D10*
X-44450000Y1270000D03*
X7620000Y20480000D03*
X30480000Y-3650000D03*
X30480000Y-11270000D03*
X-10000000Y-26000000D03*
X7620000Y12860000D03*
X-21590000Y2540000D03*
D13*
X44010000Y30489669D03*
X19010000Y30489669D03*
D14*
X37050000Y29069669D03*
X34280000Y29069669D03*
X31510000Y29069669D03*
X28740000Y29069669D03*
X25970000Y29069669D03*
X35665000Y31909669D03*
X32895000Y31909669D03*
X30125000Y31909669D03*
X27355000Y31909669D03*
D10*
X30480000Y-1110000D03*
X30480000Y-13810000D03*
X-30480000Y6420000D03*
X30480000Y-16350000D03*
X39370000Y12860000D03*
D11*
X5900000Y-32000000D03*
X4100000Y-32000000D03*
D10*
X5000000Y-26000000D03*
X7620000Y17940000D03*
X-30480000Y-7780000D03*
X7620000Y10320000D03*
D12*
X-44500000Y33000000D03*
X-44500000Y27920000D03*
X-44500000Y25380000D03*
X-44500000Y22840000D03*
D14*
X-33620000Y13730000D03*
X-33620000Y16270000D03*
X-31080000Y13730000D03*
X-31080000Y16270000D03*
X-28540000Y13730000D03*
X-28540000Y16270000D03*
X-26000000Y13730000D03*
X-26000000Y16270000D03*
X-23460000Y13730000D03*
X-23460000Y16270000D03*
X-20920000Y13730000D03*
X-20920000Y16270000D03*
X-18380000Y13730000D03*
X-18380000Y16270000D03*
D10*
X30480000Y-18890000D03*
D14*
X-5300000Y18800000D03*
X-5300000Y16260000D03*
X-5300000Y13720000D03*
X-5300000Y11180000D03*
X2320000Y11180000D03*
X2320000Y13720000D03*
X2320000Y16260000D03*
X2320000Y18800000D03*
D10*
X7620000Y15400000D03*
M02*
